<?xml version="1.0" encoding="utf-8"?>
<!-- Generator: Adobe Illustrator 15.0.0, SVG Export Plug-In . SVG Version: 6.00 Build 0)  -->
<!DOCTYPE svg PUBLIC "-//W3C//DTD SVG 1.1//EN" "http://www.w3.org/Graphics/SVG/1.1/DTD/svg11.dtd">
<svg version="1.1" id="Layer_1" xmlns="http://www.w3.org/2000/svg" xmlns:xlink="http://www.w3.org/1999/xlink" x="0px" y="0px"
	 width="480px" height="32.505px" viewBox="0 0 480 32.505" enable-background="new 0 0 480 32.505" xml:space="preserve">
<rect fill="#333333" width="480" height="32.505"/>
<g>
	<path fill="#FFFFFF" d="M138.365,20.683c-1.642,0-2.964-1.322-2.964-2.95v-2.296c0-1.628,1.322-2.95,2.964-2.95h3.966v2.546h-3.966
		c-0.236,0-0.417,0.181-0.417,0.404v2.296c0,0.223,0.181,0.403,0.417,0.403h3.966v2.547H138.365z M148.145,12.486
		c1.628,0,2.95,1.322,2.95,2.95v2.296c0,1.628-1.322,2.95-2.95,2.95h-2.282c-1.628,0-2.964-1.322-2.964-2.95v-2.296
		c0-1.628,1.336-2.95,2.964-2.95H148.145z M145.863,15.033c-0.223,0-0.418,0.181-0.418,0.404v2.296c0,0.223,0.195,0.403,0.418,0.403
		h2.282c0.223,0,0.403-0.181,0.403-0.403v-2.296c0-0.223-0.181-0.404-0.403-0.404H145.863z M154.598,20.683v-2.547h2.296
		c0.223,0,0.404-0.181,0.404-0.403v-2.296c0-0.223-0.181-0.404-0.404-0.404h-2.296c-0.223,0-0.403,0.181-0.403,0.404
		c0,2.282,0,4.536,0,6.805h-2.547c0-2.269,0-4.522,0-6.805c0-1.628,1.322-2.95,2.95-2.95h2.296c1.628,0,2.95,1.322,2.95,2.95v2.296
		c0,1.628-1.322,2.95-2.95,2.95H154.598z M165.922,18.136c0-1.878,0-3.757,0-5.649h2.547v9.755h-2.547v-1.586
		c-0.139,0.014-0.278,0.028-0.417,0.028h-0.779c-1.406,0-2.491-1.016-2.881-2.31l-1.781-5.886h2.644l1.642,5.371
		c0.056,0.167,0.209,0.278,0.376,0.278C165.129,18.136,165.519,18.136,165.922,18.136z M173.698,12.486v2.546h-1.586
		c-0.223,0-0.404,0.181-0.404,0.404c0,1.739,0,3.507,0,5.246h-2.546c0-1.739,0-3.507,0-5.246c0-1.628,1.322-2.95,2.95-2.95H173.698z
		 M174.113,10.941h2.588v1.545h-2.588V10.941z M174.113,20.683c0-1.976,0-5.873,0-7.849h2.546c0,1.976,0,5.873,0,7.849H174.113z
		 M185.454,12.486v1.461l-0.64,0.125c0.445,0.362,0.571,0.863,0.571,1.364v0.821c0,1.628-1.155,2.825-2.783,2.825h-2.171
		c-0.292,0-0.292,0.459,0,0.459h2.171c1.628,0,2.783,1.072,2.783,2.7h-2.547c0-0.223-0.125-0.306-0.334-0.306h-2.421
		c-2.825,0-3.604-2.282-2.143-3.715c-0.459-0.529-0.737-1.211-0.737-1.962v-0.821c0-1.628,1.322-2.95,2.95-2.95
		C181.919,12.486,183.686,12.486,185.454,12.486z M180.152,15.033c-0.223,0-0.404,0.181-0.404,0.404v0.891
		c0,0.223,0.181,0.403,0.404,0.403h2.282c0.223,0,0.403-0.181,0.403-0.403v-0.891c0-0.223-0.181-0.404-0.403-0.404H180.152z
		 M185.937,20.683c0-1.962,0-7.793,0-9.741h2.547c0,0.39,0,0.904,0,1.545h2.686c1.628,0,2.964,1.322,2.964,2.95v5.246h-2.546v-5.246
		c0-0.223-0.195-0.404-0.417-0.404h-2.686c0,2.185,0,4.537,0,5.65H185.937z M197.637,20.683c-1.628,0-2.95-1.336-2.95-2.95
		c0-1.739,0-5.052,0-6.791h2.546v1.545h1.977v2.491h-1.977v2.769c0,0.237,0.07,0.39,0.32,0.39c0.557,0,1.113,0,1.656,0v2.547
		H197.637z"/>
	<path fill="#FFFFFF" d="M216.969,15.285c0,3.587-2.816,6.466-6.362,6.466c-3.567,0-6.424-2.878-6.424-6.466
		c0-3.546,2.857-6.425,6.445-6.425C214.153,8.86,216.969,11.739,216.969,15.285z M205.559,15.306c0,2.941,2.232,5.256,5.027,5.256
		c2.774,0.021,5.006-2.315,5.006-5.256c0-2.92-2.232-5.256-5.027-5.256C207.791,10.049,205.559,12.386,205.559,15.306z
		 M213.089,13.22c-0.25-0.146-1.064-0.458-1.981-0.458c-1.606,0-2.587,0.959-2.587,2.586c0,1.522,1.022,2.607,2.566,2.607
		c0.855,0,1.627-0.209,2.086-0.501l0.313,1.064c-0.73,0.48-1.669,0.667-2.587,0.667c-2.44,0-3.838-1.648-3.838-3.775
		c0-2.399,1.919-3.88,4.047-3.88c1.001,0,2.023,0.292,2.294,0.584L213.089,13.22z M216.969,15.285c0,3.587-2.816,6.466-6.362,6.466
		c-3.567,0-6.424-2.878-6.424-6.466c0-3.546,2.857-6.425,6.445-6.425C214.153,8.86,216.969,11.739,216.969,15.285z M205.559,15.306
		c0,2.941,2.232,5.256,5.027,5.256c2.774,0.021,5.006-2.315,5.006-5.256c0-2.92-2.232-5.256-5.027-5.256
		C207.791,10.049,205.559,12.386,205.559,15.306z M213.089,13.22c-0.25-0.146-1.064-0.458-1.981-0.458
		c-1.606,0-2.587,0.959-2.587,2.586c0,1.522,1.022,2.607,2.566,2.607c0.855,0,1.627-0.209,2.086-0.501l0.313,1.064
		c-0.73,0.48-1.669,0.667-2.587,0.667c-2.44,0-3.838-1.648-3.838-3.775c0-2.399,1.919-3.88,4.047-3.88
		c1.001,0,2.023,0.292,2.294,0.584L213.089,13.22z"/>
	<path fill="#FFFFFF" d="M229.188,9.386h3.281V9.49l-4.922,5.039v0.105l5.033,5.145l-0.111,0.111h-3.17l-5.256-5.256v-0.105
		L229.188,9.386z M239.624,9.41h0.11v10.26l-0.223,0.223h-3.346l-3.457-3.457v-0.111L239.624,9.41z M234.157,17.771h3.567v-3.567
		L234.157,17.771z M242.161,9.404h6.662v0.11l-2.298,2.291h-6.661v-0.104L242.161,9.404z M239.864,17.49h8.848l0.223,0.217
		c-1.77,1.457-2.645,2.186-2.625,2.186h-4.147l-2.297-2.297L239.864,17.49L239.864,17.49z M243.361,11.916l5.244,5.244v0.105h-3.28
		l-5.244-5.244l0.11-0.105H243.361z M251.4,9.404h8.83v0.11l-2.319,2.319h-2.761v8.058h-0.11l-2.314-2.319v-5.736h-3.422
		l-0.223-0.223L251.4,9.404z M260.583,9.444h9.668v0.111c-0.012,0.16-1.863,2.123-5.556,5.889l-1.559-1.553l2.338-2.449h-2.561
		v8.228l-0.224,0.223c-1.555-1.508-2.332-2.434-2.332-2.777V9.668L260.583,9.444z M266.359,14.226l5.562,5.556v0.11h-2.783
		l-4.219-4.226L266.359,14.226z M272.999,9.356l0.117,0.111v10.424h-0.117l-2.49-2.379v-5.666L272.999,9.356z M274.798,9.356
		l3.662,3.552l3.545-3.552l0.111,0.111v2.993l-2.104,2.109v0.105l2.104,2.221v2.883h-0.111l-3.545-3.438h-0.111l-3.551,3.551
		l-1.553-1.553l3.551-3.662v-0.104l-3.551-3.662v-0.111L274.798,9.356z M289.163,15.382c0,1.02,0.013,3.79,0.061,4.138
		c0.288,0.048,1.151,0.132,1.522,0.168l0.061,0.252c-0.396-0.023-1.739-0.048-2.291-0.048c-0.6,0-1.739,0.024-2.074,0.048
		l0.049-0.252c0.18-0.023,0.959-0.107,1.271-0.168c0.049-0.527,0.062-3.082,0.062-4.197v-0.479c0-0.385-0.013-2.567-0.062-2.975
		c-0.228-0.084-0.995-0.146-1.283-0.168l-0.035-0.252c0.359,0,2.11-0.013,2.662-0.013c1.309,0,2.304,0.106,2.892,0.349
		c1.066,0.442,1.175,1.174,1.175,1.475c0,0.816-0.348,1.428-0.827,1.906c-0.792,0.793-2.087,1.115-2.519,1.177l0.035-0.3
		c0.433-0.108,1.884-0.541,1.884-2.352c0-0.732-0.36-1.332-0.973-1.632c-0.396-0.19-1.02-0.265-1.547-0.265
		c-0.048,0.349-0.061,2.052-0.061,3.082L289.163,15.382L289.163,15.382z M295.477,14.83c0-0.433-0.013-2.734-0.061-2.963
		c-0.204-0.048-1.021-0.119-1.283-0.145l-0.036-0.251l2.591-0.013c1.141,0,2.566,0.013,3.381,0.336
		c0.637,0.252,1.031,0.707,1.031,1.367c0,0.756-0.768,1.75-1.689,2.267c0.133,0.3,2.063,3.442,3.311,4.762l-0.527,0.084
		c-0.84-0.384-4.029-4.065-4.223-4.317c-0.455,0.037-0.947,0.071-1.15,0.071v0.313c0,0.779,0.023,2.626,0.061,3.178
		c0.203,0.061,0.996,0.145,1.26,0.168l0.047,0.252c-0.299-0.023-1.51-0.048-2.063-0.048c-0.491,0-1.75,0.024-2.026,0.048
		l0.048-0.252c0.168-0.012,0.937-0.084,1.271-0.168c0.048-0.348,0.061-2.697,0.061-3.958V14.83H295.477z M296.818,15.658
		c0.434,0,0.947-0.035,1.465-0.229c0.516-0.191,1.365-0.743,1.365-1.932c0-0.768-0.693-1.703-2.77-1.703
		c-0.035,0.492-0.061,2.64-0.061,3.49V15.658L296.818,15.658z M304.32,18.74c-0.875-0.898-1.15-1.774-1.15-2.901
		c0-2.375,1.955-4.533,5.266-4.533c1.271,0,2.277,0.203,3.322,0.971c0.947,0.696,1.451,1.859,1.451,2.976
		c0,2.938-2.23,4.834-5.184,4.834C306.814,20.084,305.436,19.88,304.32,18.74z M311.744,16.125c0-2.543-1.764-4.365-3.754-4.365
		c-1.645,0-3.441,1.104-3.441,3.574c0,2.146,1.727,4.258,4.064,4.258C310.328,19.592,311.744,18.045,311.744,16.125z
		 M316.955,15.598v2.771c0,0.996-0.047,1.535-0.563,2.422c-0.301,0.517-0.768,1.057-2.063,2.039l-0.252-0.084
		c0.936-0.994,1.139-1.654,1.27-2.146c0.18-0.624,0.289-2.11,0.289-4.798v-0.827c0-0.456-0.012-2.483-0.109-3.106
		c-0.285-0.047-1.234-0.145-1.582-0.168l-0.049-0.252c0.289,0.024,1.703,0.049,2.363,0.049c0.648,0,1.668-0.023,2.074-0.049
		l-0.035,0.252c-0.203,0.023-0.863,0.121-1.283,0.168c-0.049,0.373-0.061,2.83-0.061,3.095V15.598z M320.615,15.227
		c0-1.08-0.035-2.986-0.084-3.357c-0.229-0.049-0.959-0.133-1.246-0.168l-0.051-0.252c0.289,0.012,0.686,0.023,1.08,0.035
		c0.396,0,0.791,0.012,1.057,0.012c0.385,0,3.203,0,3.525-0.084c0.035-0.144,0.072-0.348,0.098-0.563l0.273-0.048
		c-0.059,0.252-0.215,2.11-0.24,2.481l-0.264-0.084c0-0.084,0.012-0.623,0-0.863c-0.215-0.348-2.063-0.504-2.697-0.504
		c-0.035,0.168-0.084,2.482-0.084,3.19v0.239c1.031,0,2.193-0.084,2.482-0.191c0.061-0.18,0.096-0.348,0.119-0.516l0.252-0.023
		c-0.035,0.215-0.252,1.858-0.313,2.242l-0.229-0.096c0.012-0.252,0.023-0.564,0.023-0.805c-0.371-0.191-1.307-0.264-2.338-0.264
		v0.239c0,0.731,0.047,3.347,0.084,3.694c1.199,0,2.326-0.096,2.877-0.408c0.133-0.42,0.193-0.791,0.266-1.055l0.275-0.072
		c-0.084,0.348-0.348,2.171-0.396,2.771l-0.252-0.048c0-0.324,0-0.54-0.012-0.73c-0.35-0.062-3.012-0.108-3.768-0.108
		c-0.406,0-1.354,0.024-1.822,0.048l0.061-0.252c0.191-0.012,0.912-0.084,1.234-0.168c0.049-0.216,0.086-2.423,0.086-3.741v-0.552
		H320.615z M334.928,14.11c0-0.228-0.035-0.791-0.07-0.995c-0.229-0.526-1.344-1.392-2.891-1.392c-2.184,0-3.564,1.584-3.564,3.454
		c0,2.339,1.934,4.318,4.463,4.318c0.91,0,1.99-0.146,2.844-0.647l-0.168,0.517c-0.277,0.228-1.488,0.719-3.371,0.719
		c-0.443,0-1.752-0.049-2.723-0.527c-1.561-0.768-2.482-2.135-2.482-3.67c0-1.655,0.84-2.878,1.895-3.586
		c1.248-0.84,2.363-0.995,3.574-0.995c1.057,0,2.172,0.216,2.508,0.312c0.07-0.156,0.217-0.924,0.25-1.066l0.277-0.061
		c-0.18,1.318-0.252,2.566-0.264,3.705L334.928,14.11z M339.684,14.938c0-0.888-0.023-2.663-0.061-2.938
		c-1.92,0-2.783,0.301-3.105,0.505c-0.098,0.264-0.168,0.73-0.24,1.127l-0.275,0.071c0.049-0.576,0.191-2.074,0.18-3.021
		l0.275,0.048c0.012,0.156,0.037,0.527,0.072,0.779c0.191,0.036,2.256,0.12,3.873,0.12c1.74,0,3.814-0.084,4.008-0.12
		c0.047-0.144,0.119-0.517,0.168-0.743l0.299-0.048c-0.072,0.274-0.348,2.733-0.383,3.094l-0.277-0.071
		c0.025-0.479,0.037-0.972,0.025-1.234c-0.301-0.24-1.969-0.504-3.133-0.504c-0.035,0.324-0.059,2.074-0.059,2.938v0.54
		c0,1.056,0.023,3.082,0.059,4.041c0.23,0.036,1.32,0.146,1.549,0.168l0.049,0.252c-0.289-0.022-1.691-0.048-2.352-0.048
		c-0.541,0-1.979,0.023-2.328,0.048l0.061-0.252c0.277-0.022,1.248-0.132,1.535-0.168c0.037-0.937,0.061-2.998,0.061-4.041V14.938
		L339.684,14.938z M286.441,9.468h58.436v0.635h-58.436V9.468z M224.044,22.513h89.165v0.635h-89.165V22.513z M316.115,22.513
		h28.762v0.635h-28.762V22.513z"/>
</g>
</svg>
