<?xml version="1.0" encoding="utf-8"?>
<!-- Generator: Adobe Illustrator 15.0.0, SVG Export Plug-In . SVG Version: 6.00 Build 0)  -->
<!DOCTYPE svg PUBLIC "-//W3C//DTD SVG 1.1//EN" "http://www.w3.org/Graphics/SVG/1.1/DTD/svg11.dtd">
<svg version="1.1" id="Layer_1" xmlns="http://www.w3.org/2000/svg" xmlns:xlink="http://www.w3.org/1999/xlink" x="0px" y="0px"
	 width="480px" height="148.01px" viewBox="0 0 480 148.01" enable-background="new 0 0 480 148.01" xml:space="preserve">
<g onclick="window.open(&quot;http://www.wattpad.com/story/34686701-the-cursed-finger&quot;, &quot;_blank&quot;)">
	<rect x="9.908" y="24.505" fill="#FFFFFF" width="460.184" height="99"/>
	<path fill="#333333" d="M10.293,27.905h15.022v81.943h24.721v13.656H10.293V27.905z M45.238,51.989v69.242H31.717V25.629h18.847
		l15.431,57.226V25.629H79.38v95.602H63.95L45.238,51.989z"/>
	<path fill="#333333" d="M89.299,48.789V25.967h1.499v21.451h7.173v1.368h-8.672V48.789z M101.72,25.967v22.822h-1.5V25.967H101.72z
		 M114.076,31.54v1.696h-1.434v-1.793c0-2.444-0.944-4.304-3.456-4.304c-2.511,0-3.455,1.86-3.455,4.304V43.31
		c0,2.444,0.946,4.272,3.455,4.272c2.511,0,3.456-1.826,3.456-4.272v-4.922h-3.032v-1.37h4.466v6.196c0,3.295-1.434,5.77-4.923,5.77
		c-3.489,0-4.923-2.477-4.923-5.77V31.54c0-3.293,1.434-5.77,4.923-5.77C112.642,25.77,114.076,28.247,114.076,31.54z
		 M118.088,38.063V48.79h-1.501V25.967h1.501v10.727h7.106V25.967h1.532V48.79h-1.532V38.063H118.088z M133.185,48.789V27.335
		h-4.629v-1.368h10.792v1.368h-4.663v21.454H133.185z M147.628,48.789h-1.368V25.967h1.954l6.848,19.267V25.967h1.37v22.822h-1.663
		l-7.142-20.345L147.628,48.789L147.628,48.789z M158.911,31.54c0-3.325,1.532-5.77,4.989-5.77c3.52,0,5.053,2.445,5.053,5.77
		v11.674c0,3.326-1.533,5.77-5.053,5.77c-3.455,0-4.989-2.443-4.989-5.77V31.54z M160.41,43.31c0,2.48,0.978,4.304,3.489,4.304
		c2.543,0,3.554-1.824,3.554-4.304V31.444c0-2.479-1.009-4.304-3.554-4.304c-2.511,0-3.489,1.825-3.489,4.304V43.31z
		 M172.604,25.967l4.631,21.093l4.629-21.093h1.403l-4.957,22.822h-2.216l-5.022-22.822H172.604z M193.274,36.53v1.369h-6.226v9.521
		h7.499v1.369h-8.999V25.967h8.999v1.367h-7.499v9.194L193.274,36.53L193.274,36.53z M196.993,48.789V25.967h1.5v21.451h7.172v1.368
		h-8.673V48.789z M218.154,47.517v1.273h-5.087V25.934h5.087v1.271h-3.586v20.313L218.154,47.517L218.154,47.517z M220.436,31.54
		c0-3.325,1.534-5.77,4.991-5.77c3.519,0,5.054,2.445,5.054,5.77v11.674c0,3.326-1.535,5.77-5.054,5.77
		c-3.457,0-4.991-2.443-4.991-5.77V31.54z M221.938,43.31c0,2.48,0.978,4.304,3.489,4.304c2.542,0,3.553-1.824,3.553-4.304V31.444
		c0-2.479-1.01-4.304-3.553-4.304c-2.512,0-3.489,1.825-3.489,4.304V43.31z M234.327,48.789h-1.368V25.967h1.954l6.85,19.267V25.967
		h1.368v22.822h-1.665l-7.139-20.345V48.789L234.327,48.789z M245.642,36.691h6v1.369h-6V36.691z M263.933,31.54v1.696h-1.436
		v-1.793c0-2.444-0.944-4.304-3.454-4.304c-2.513,0-3.457,1.86-3.457,4.304V43.31c0,2.444,0.944,4.272,3.457,4.272
		c2.51,0,3.454-1.826,3.454-4.272v-4.922h-3.031v-1.37h4.467v6.196c0,3.295-1.436,5.77-4.924,5.77c-3.487,0-4.923-2.477-4.923-5.77
		V31.54c0-3.293,1.436-5.77,4.923-5.77C262.497,25.77,263.933,28.247,263.933,31.54z M266.347,31.54c0-3.325,1.531-5.77,4.989-5.77
		c3.519,0,5.054,2.445,5.054,5.77v11.674c0,3.326-1.535,5.77-5.054,5.77c-3.458,0-4.989-2.443-4.989-5.77V31.54z M267.846,43.31
		c0,2.48,0.979,4.304,3.487,4.304c2.542,0,3.555-1.824,3.555-4.304V31.444c0-2.479-1.01-4.304-3.555-4.304
		c-2.509,0-3.487,1.825-3.487,4.304V43.31z M280.368,25.967v22.822h-1.501V25.967H280.368z M284.345,48.789h-1.37V25.967h1.956
		l6.847,19.267V25.967h1.368v22.822h-1.662l-7.141-20.345L284.345,48.789L284.345,48.789z M305.473,31.54v1.696h-1.436v-1.793
		c0-2.444-0.945-4.304-3.455-4.304c-2.511,0-3.457,1.86-3.457,4.304V43.31c0,2.444,0.946,4.272,3.457,4.272
		c2.51,0,3.455-1.826,3.455-4.272v-4.922h-3.032v-1.37h4.468v6.196c0,3.295-1.436,5.77-4.924,5.77s-4.922-2.477-4.922-5.77V31.54
		c0-3.293,1.434-5.77,4.922-5.77S305.473,28.247,305.473,31.54z M311.375,47.517V27.205h-3.588v-1.271h5.087v22.856h-5.087v-1.274
		L311.375,47.517L311.375,47.517z"/>
	<path fill="#333333" d="M123.954,79.313l0.886,0.606c-0.328,1.505-0.773,2.695-1.34,3.564c-0.568,0.872-1.4,1.558-2.495,2.064
		c-1.097,0.504-2.359,0.756-3.79,0.756c-0.762,0-1.685-0.047-2.774-0.139v23.55c2.354-0.713,4.229-1.633,5.622-2.754
		c1.394-1.125,2.687-2.74,3.879-4.848l0.899,0.432c-0.684,2.08-1.478,3.749-2.378,5.005c-1.445,2.037-3.311,3.648-5.595,4.833
		c-2.286,1.188-4.929,1.782-7.929,1.782c-2.922,0-5.658-0.561-8.207-1.681c-1.478-0.649-2.83-1.569-4.057-2.752
		c-1.228-1.182-2.235-2.609-3.019-4.292c-0.786-1.679-1.179-3.582-1.179-5.711c0-2.146,0.428-4.199,1.281-6.159
		c0.853-1.958,2.111-3.832,3.772-5.621c1.056-1.118,2.547-2.356,4.472-3.706l-2.925-0.158c-1.084-0.063-2.285,0.167-3.601,0.688
		c-1.315,0.521-2.341,1.216-3.077,2.086c-0.736,0.871-1.375,2.17-1.917,3.895l-0.897-0.524c0.527-2.207,1.212-3.921,2.05-5.148
		c1.118-1.63,2.595-2.891,4.427-3.784c1.834-0.891,3.923-1.338,6.269-1.338c1.632,0,4.512,0.341,8.646,1.024
		c4.132,0.686,6.975,1.027,8.527,1.027c1.042,0,1.837-0.159,2.389-0.479C122.442,81.22,123.13,80.479,123.954,79.313z
		 M104.625,84.487l-1.235-0.115c-2.084,1.788-3.614,3.577-4.595,5.363c-1.321,2.41-1.981,4.89-1.981,7.439
		c0,4.352,1.787,7.902,5.362,10.655c1.136-0.951,1.826-1.721,2.076-2.31c0.249-0.593,0.373-1.797,0.373-3.614V84.487z
		 M113.368,85.96c-1.477-0.205-2.782-0.423-3.917-0.654v13.947c0,1.632-0.067,2.671-0.198,3.113
		c-0.132,0.443-0.438,0.944-0.919,1.504c-0.871,0.963-2.61,2.489-5.22,4.569c1.305,0.639,2.362,1.063,3.17,1.28
		c1.399,0.372,2.742,0.559,4.031,0.559c0.684,0,1.703-0.087,3.053-0.257V85.96z M136.663,80.76l0.233,0.558
		c-1.111,0.715-1.873,1.476-2.281,2.284c-0.406,0.809-0.61,2.091-0.61,3.848v7.601l7.217-5.737c1.534,0.996,2.533,1.957,2.998,2.886
		c0.468,0.924,0.698,2.499,0.698,4.726v10.569c0,2.021-0.21,3.498-0.631,4.435c-0.668,1.522-1.905,2.954-3.707,4.291
		c-2.363,1.771-5.371,3.303-9.023,4.595l-0.326-0.885c2.968-1.23,5.036-2.349,6.202-3.358c1.167-1.01,1.929-2.083,2.286-3.218
		c0.265-0.855,0.397-3.077,0.397-6.668v-9.772c0-1.088-0.111-1.841-0.328-2.261c-0.327-0.574-0.926-1.145-1.797-1.703l-3.985,3.226
		v12.982l1.656,1.665l-4.092,3.347l-4.163-3.347l1.841-1.827v-21.2c0-1.925-0.167-3.246-0.507-3.962
		c-0.34-0.715-1.009-1.359-2.011-1.932l0.257-0.585c0.821,0.233,1.479,0.494,1.976,0.784c0.495,0.287,1.146,0.788,1.951,1.502
		c0.951-0.902,1.861-1.563,2.734-1.982C134.519,81.202,135.525,80.913,136.663,80.76z M158.929,89.314l6.576,7.673l-10.447,7.32
		v4.245l5.409,2.146l3.661-2.496l0.512,0.699l-7.541,5.268c-1.542-0.825-2.812-1.413-3.809-1.77
		c-0.996-0.356-2.412-0.731-4.248-1.118v-0.583c0.527-0.311,0.881-0.697,1.06-1.155c0.179-0.459,0.269-1.447,0.269-2.972V93.234
		c1.459-0.527,2.672-1.009,3.637-1.446C154.709,91.46,156.348,90.637,158.929,89.314z M155.384,91.995l-0.326,0.164v10.588
		l6.142-4.307L155.384,91.995z M191.771,82.229l0.572,0.649c-2.315,1.57-4.044,3.25-5.178,5.039c-1.46,2.3-2.192,4.804-2.192,7.509
		c0,3.279,1.083,6.31,3.244,9.093c0.93-0.763,1.492-1.402,1.679-1.924c0.186-0.52,0.28-1.948,0.28-4.279V87.869l9.99-8.324
		c2.328,0.921,4.157,1.514,5.492,1.785c1.334,0.271,2.9,0.407,4.698,0.407h0.537l0.384,0.851l-3.848,3.674
		c-2.58-0.279-5.496-1.229-8.744-2.845l0.233,26.626l0.885,0.024c2.231,0,4.266-0.382,6.103-1.148
		c1.838-0.766,3.741-2.008,5.71-3.726l0.712,0.688c-1.447,1.996-2.866,3.542-4.255,4.647c-1.393,1.104-3.069,1.987-5.028,2.649
		c-1.957,0.663-3.901,0.992-5.829,0.992c-2.859,0-5.554-0.689-8.079-2.073c-2.528-1.386-4.504-3.367-5.937-5.947
		c-1.429-2.578-2.144-5.237-2.144-7.974c0-3.374,1.009-6.5,3.026-9.373C185.668,86.55,188.23,84.357,191.771,82.229z
		 M197.611,83.252l-2.728,2.363V96.26c0,1.322-0.068,2.203-0.209,2.636c-0.158,0.577-0.516,1.189-1.077,1.847
		c-1.138,1.321-2.729,2.833-4.771,4.528c1.247,1.382,2.581,2.441,4.01,3.179c1.424,0.738,3.095,1.229,5.008,1.479L197.611,83.252z
		 M230.896,89.314l4.164,3.463l-1.891,1.716v12.239c0,1.416,0.198,2.427,0.598,3.033c0.251,0.42,0.532,0.628,0.831,0.628
		c0.223,0,0.649-0.248,1.287-0.745l0.571,0.722l-4.954,3.803c-1.238-0.87-2.047-1.652-2.427-2.344
		c-0.38-0.692-0.585-1.792-0.615-3.3c-2.411,1.552-4.872,3.432-7.378,5.644c-1.504-1.182-2.488-2.221-2.953-3.112
		c-0.464-0.896-0.695-2.073-0.695-3.535V96.009c0-0.808-0.073-1.338-0.217-1.586c-0.252-0.437-0.598-0.652-1.033-0.652
		c-0.327,0-0.814,0.265-1.466,0.792l-0.57-0.723l5.513-4.525l4.234,3.463l-1.749,1.551v12.396c0,0.919,0.114,1.592,0.349,2.022
		c0.234,0.426,0.799,0.965,1.701,1.619l4.27-3.146V94.491l-1.656-1.715L230.896,89.314z M252.045,89.314l3.533,4.235l-3.533,3.136
		l-2.948-3.735l-2.31,2.102v13.57l2.66,1.908l2.4-1.89l0.534,0.747l-5.98,4.78c-1.274-1.135-2.34-1.95-3.202-2.447
		c-0.86-0.497-1.803-0.888-2.828-1.165v-0.515c0.685-0.482,1.132-0.967,1.343-1.458c0.207-0.487,0.313-1.425,0.313-2.808v-9.514
		c0-1.197-0.134-1.997-0.4-2.391c-0.267-0.397-0.56-0.596-0.877-0.596c-0.351,0-0.83,0.31-1.44,0.932l-0.569-0.677l4.862-4.221
		c1.324,1.01,2.231,1.888,2.713,2.635c0.314,0.466,0.471,1.111,0.471,1.935L252.045,89.314z M270.076,97.965l5.413,2.824v9.815
		c-1.309,0.123-2.491,0.441-3.552,0.957c-1.057,0.514-2.259,1.383-3.597,2.611c-1.151-0.685-2.152-1.158-2.999-1.421
		c-0.848-0.266-1.746-0.397-2.695-0.397c-1.463,0-2.762,0.442-3.897,1.328c-0.423,0.327-0.724,0.49-0.912,0.49
		c-0.173,0-0.342-0.087-0.516-0.257c-0.17-0.17-0.257-0.34-0.257-0.512c0-0.188,0.163-0.438,0.49-0.748
		c0.188-0.187,0.505-0.545,0.957-1.072l2.121-2.636l3.003-3.991l-5.1-2.746v-8.697c1.604-0.498,2.862-1.054,3.774-1.666
		c0.911-0.616,1.786-1.458,2.626-2.533c1.992,0.84,3.592,1.432,4.805,1.771c0.873,0.233,1.701,0.352,2.492,0.352
		c0.875,0,1.555-0.192,2.04-0.572c0.482-0.382,0.726-0.783,0.726-1.2c0-0.281-0.156-0.559-0.468-0.839
		c-0.605-0.542-0.909-1.072-0.909-1.588c0-0.479,0.131-0.865,0.396-1.15c0.263-0.291,0.561-0.431,0.886-0.431
		c0.436,0,0.831,0.197,1.179,0.592c0.35,0.397,0.524,0.924,0.524,1.574c0,0.67-0.142,1.325-0.424,1.962
		c-0.278,0.636-0.819,1.46-1.615,2.469L270.076,97.965z M267.261,101.698l-5.621,7.531c0.686-0.232,1.321-0.405,1.91-0.516
		c0.591-0.109,1.126-0.161,1.608-0.161c1.786,0,3.645,0.592,5.573,1.77v-6.76L267.261,101.698z M263.249,99.576l3.192,1.652
		l5.086-6.764c-1.043,0.295-1.943,0.448-2.707,0.448c-1.91,0-3.769-0.641-5.571-1.915V99.576z M289.69,89.314l6.576,7.673
		l-10.447,7.32v4.245l5.41,2.146l3.657-2.496l0.516,0.699l-7.546,5.268c-1.541-0.825-2.808-1.413-3.803-1.77
		c-1-0.356-2.413-0.731-4.25-1.118v-0.583c0.527-0.311,0.881-0.697,1.061-1.155c0.177-0.459,0.266-1.447,0.266-2.972V93.234
		c1.462-0.527,2.676-1.009,3.64-1.446C285.47,91.46,287.11,90.637,289.69,89.314z M286.146,91.995l-0.326,0.164v10.588l6.143-4.307
		L286.146,91.995z M298.038,81.364l15.855,10.888c0.249-0.574,0.523-1.01,0.827-1.305c0.303-0.292,0.764-0.574,1.386-0.838v0.956
		c-0.308,0.42-0.513,0.8-0.605,1.143s-0.142,1.043-0.142,2.1v15.69c-1.969,0.746-3.438,1.396-4.398,1.949
		c-0.962,0.553-2.001,1.294-3.118,2.226c-1.837-1.196-3.465-2.066-4.879-2.61c-1.417-0.544-2.942-0.92-4.577-1.12v-0.444
		c0.559-0.48,0.921-0.966,1.086-1.457c0.161-0.488,0.246-1.504,0.246-3.042V93.283c2.129-0.592,3.637-1.26,4.518-1.998l-6.198-4.232
		V81.364L298.038,81.364z M310.605,95.627l-4.815-3.287c-0.426,0.339-0.866,0.643-1.318,0.908v14.418l6.132,2.726L310.605,95.627
		L310.605,95.627z M368.944,79.313h1.026c-0.063,1.367-0.272,2.407-0.629,3.124c-0.498,0.947-1.234,1.702-2.217,2.262
		c-0.98,0.561-2.062,0.839-3.241,0.839c-1.26,0-2.759-0.339-4.5-1.023v6.176h7.297l-1.34,3.477h-5.957v11.079
		c0,2.192-0.153,3.79-0.455,4.793c-0.305,1.003-0.898,1.966-1.784,2.882c-0.884,0.918-1.995,1.687-3.331,2.309
		c-1.912,0.904-3.449,1.548-4.613,1.938l-9.766,3.28c-3.075-1.15-4.863-1.727-5.362-1.727c-0.435,0-0.824,0.152-1.166,0.46
		c-0.343,0.308-0.582,0.807-0.723,1.498l-0.99-0.231c0-1.08,0.131-1.931,0.395-2.555c0.421-0.999,1.01-1.755,1.771-2.27
		c0.763-0.516,1.581-0.773,2.448-0.773c1.229,0,2.814,0.421,4.756,1.259c1.368,0.606,2.206,0.959,2.507,1.051
		c0.303,0.095,0.598,0.141,0.876,0.141c0.48,0,0.923-0.2,1.329-0.595c0.403-0.397,0.665-1.004,0.78-1.816
		c0.116-0.818,0.176-2.516,0.176-5.096V94.17l-1.447-0.023c-2.399,0-4.177,0.276-5.334,0.829c-1.159,0.553-2.159,1.479-2.999,2.787
		l-0.9-0.386c0.624-2.046,1.439-3.521,2.449-4.424c1.709-1.517,4.081-2.277,7.11-2.277c0.246,0,0.622,0.009,1.12,0.021v-4.965
		l1.61,0.069c1.74,0,3.46-0.356,5.156-1.061c1.694-0.707,3.12-1.55,4.271-2.53c0.762-0.669,1.573-1.633,2.428-2.892
		c2.545,1.633,4.635,2.445,6.265,2.445c0.712,0,1.32-0.189,1.814-0.569C368.276,80.808,368.665,80.185,368.944,79.313z
		 M354.604,85.469c-1.041,0.561-2.229,0.988-3.566,1.281v18.788c0,0.65-0.063,1.879-0.186,3.681c-0.077,1.057-0.203,1.858-0.373,2.4
		c-0.261,0.809-0.648,1.573-1.158,2.296c-0.515,0.724-1.38,1.66-2.604,2.807c2.033-0.743,3.655-1.666,4.864-2.761
		s2.016-2.274,2.419-3.543c0.404-1.264,0.605-3.163,0.605-5.699L354.604,85.469L354.604,85.469z M376.999,89.314l4.14,3.44
		l-1.841,1.784v12.683c0,1.335,0.112,2.207,0.337,2.61c0.223,0.404,0.457,0.606,0.695,0.606c0.168,0,0.32-0.037,0.463-0.117
		c0.199-0.108,0.603-0.419,1.222-0.931l0.571,0.725l-5.001,4.056c-1.248-0.888-2.053-1.722-2.41-2.507
		c-0.362-0.785-0.539-2.156-0.539-4.114V94.54l-1.749-1.783L376.999,89.314z M378.759,81.342h2.963l-3.217,5.036h-0.934
		L378.759,81.342z M400.574,89.314l3.181,3.499l2.272-2.191l0.664,0.629c-1.098,1-1.766,1.756-2,2.271
		c-0.313,0.687-0.473,1.632-0.473,2.833v11.116c0,1.028,0.167,1.792,0.494,2.293c0.203,0.328,0.429,0.492,0.68,0.492
		c0.216,0,0.733-0.305,1.547-0.912l0.57,0.724l-5,4.103c-1.295-0.972-2.128-1.833-2.491-2.58c-0.369-0.748-0.554-1.956-0.554-3.626
		V95.209l-2.059-2.177l-3.979,3.194v12.934l1.75,1.666l-4.115,3.347l-4.142-3.347l1.749-1.666V97.263
		c0-1.693-0.169-2.836-0.515-3.423c-0.233-0.404-0.501-0.606-0.797-0.606c-0.311,0-0.78,0.302-1.406,0.91l-0.569-0.723l4.954-4.103
		c1.373,1.019,2.23,1.828,2.577,2.424c0.343,0.593,0.517,1.414,0.517,2.472v0.841L400.574,89.314z M420.579,89.314l7.26,3.407
		l4.343-2.192v5.245l-4.199-0.815v10.585c0,1.711,0.102,2.868,0.302,3.474c0.266,0.795,0.818,1.712,1.656,2.753
		c1.354,1.726,2.031,2.963,2.031,3.707c0,0.745-0.356,1.46-1.063,2.146c-0.707,0.685-2.598,1.739-5.664,3.171
		c-1.045-0.372-2.039-0.65-2.987-0.829c-0.95-0.179-1.853-0.268-2.706-0.268c-2.057,0-4.429,0.364-7.12,1.097l-0.326-0.793
		l5.516-6.44l-5.516-3.959v-16.88C415.185,92.068,418.012,90.934,420.579,89.314z M416.223,116.573
		c2.022-0.326,3.654-0.488,4.898-0.488c1.119,0,2.248,0.146,3.392,0.441c1.143,0.293,2.297,0.744,3.463,1.352l0.96-0.605
		c-2.102-1.955-3.523-3.537-4.271-4.749c-0.744-1.21-1.221-2.533-1.425-3.962L416.223,116.573z M423.227,94.913l-6.364-2.191v15.277
		l3.441,2.496l2.923-3.483V94.913L423.227,94.913z M444.794,89.314l6.576,7.673l-10.445,7.32v4.245l5.407,2.146l3.66-2.496
		l0.514,0.699l-7.545,5.268c-1.54-0.825-2.809-1.413-3.806-1.77c-0.996-0.356-2.411-0.731-4.248-1.118v-0.583
		c0.528-0.311,0.88-0.697,1.06-1.155c0.179-0.459,0.268-1.447,0.268-2.972V93.234c1.46-0.527,2.674-1.009,3.64-1.446
		C440.574,91.46,442.215,90.637,444.794,89.314z M441.25,91.995l-0.325,0.164v10.588l6.141-4.307L441.25,91.995z M466.559,89.314
		l3.533,4.235l-3.533,3.136l-2.944-3.735l-2.31,2.102v13.57l2.659,1.908l2.398-1.89l0.536,0.747l-5.98,4.78
		c-1.271-1.135-2.341-1.95-3.201-2.447c-0.862-0.497-1.804-0.888-2.827-1.165v-0.515c0.685-0.482,1.132-0.967,1.341-1.458
		c0.207-0.487,0.315-1.425,0.315-2.808v-9.514c0-1.197-0.135-1.997-0.402-2.391c-0.264-0.396-0.559-0.596-0.877-0.596
		c-0.351,0-0.829,0.31-1.438,0.932l-0.569-0.677l4.861-4.221c1.324,1.01,2.23,1.888,2.714,2.635
		c0.313,0.466,0.471,1.111,0.471,1.935L466.559,89.314z"/>
</g>
</svg>
