<?xml version="1.0" encoding="utf-8"?>
<!-- Generator: Adobe Illustrator 15.0.0, SVG Export Plug-In . SVG Version: 6.00 Build 0)  -->
<!DOCTYPE svg PUBLIC "-//W3C//DTD SVG 1.1//EN" "http://www.w3.org/Graphics/SVG/1.1/DTD/svg11.dtd">
<svg version="1.1" id="Layer_1" xmlns="http://www.w3.org/2000/svg" xmlns:xlink="http://www.w3.org/1999/xlink" x="0px" y="0px"
	 width="480px" height="236px" viewBox="0 0 480 236" enable-background="new 0 0 480 236" xml:space="preserve">
<g onclick="window.open(&quot;http://facebook.com/contactBi3&quot;, &quot;_blank&quot;)">
	<rect x="47.571" y="20.5" fill="#FFFFFF" width="384.859" height="193.694"/>
	<g>
		<path fill="none" d="M94.065,110.409c0.489-0.077,0.622,0.203,0.787,0.449c0.09,0.543-0.135,1.356,0,1.571
			C96.188,112.034,94.866,108.955,94.065,110.409z"/>
		<path fill="none" d="M99.23,167.665c-0.088-0.437-0.09-0.958-0.449-1.123c0,0.56-0.352,1.362-0.225,1.684
			C98.592,167.85,99.197,168.044,99.23,167.665z"/>
		<path fill="none" d="M98.556,162.837c-0.146-0.895,0.621-0.874,0.561-1.684c-0.211,0.027-0.248-0.127-0.45-0.112
			C98.453,161.54,97.671,162.549,98.556,162.837z"/>
		<path fill="none" d="M97.771,170.471c-0.028,0.74,0.439,0.984,0.898,1.238C98.563,171.101,98.449,170.503,97.771,170.471z"/>
		<path fill="none" d="M88.678,153.297c-0.052,0.722,0.514,0.829,1.01,1.01C89.509,153.809,89.401,153.242,88.678,153.297z"/>
		<path fill="none" d="M94.065,140.833c0.45,0,0.899,0,1.348,0c0-0.298,0-0.599,0-0.898c-0.448,0-0.898,0-1.348,0
			C94.065,140.235,94.065,140.533,94.065,140.833z"/>
		<path fill="none" d="M93.392,114.114c0.33-0.009,0.418-0.257,0.562-0.45c-0.373-0.06-0.693-0.571-1.122-0.224
			C92.903,113.779,93.006,114.088,93.392,114.114z"/>
		<path fill="none" d="M93.841,146.446c0.78,0.933,1.048,2.351,1.572,3.592c0.309-0.836,1.137,0.313,1.573,0
			c1.148-2.235-1.176-4.088-2.471-4.939c0.318,0.879,1.179,1.216,1.347,2.246c-0.112,0.224-0.193,0.478-0.449,0.559
			c-0.198-1.442-1.189-3.056-2.694-2.468C92.976,145.924,93.485,146.02,93.841,146.446z"/>
		<path fill="none" d="M88.452,164.297c0.08,1.454,1.77,1.297,2.583,2.02C90.754,165.063,90.009,164.275,88.452,164.297z"/>
		<path fill="none" d="M91.035,154.418c-1.772-0.089-1.047,2.321-2.245,2.806c-0.075-1.289-1.396-2.821-2.583-1.908
			c0.339,0.11,0.668,0.229,1.01,0.337c1.825,1.187,1.764,4.886,3.704,5.725C89.487,159.908,89.37,155.728,91.035,154.418z"/>
		<path fill="none" d="M96.759,166.88c0.331,0.31,1.41,0.375,1.459-0.226c-0.556-0.081-0.76-0.512-1.347-0.561
			C96.708,166.375,96.601,166.535,96.759,166.88z"/>
		<path fill="none" d="M89.35,162.389c0.457,1.302,1.637,1.879,2.694,2.582C91.835,163.421,90.931,162.566,89.35,162.389z"/>
		<path fill="none" d="M91.708,193.598c0.264,0.033,0.421,0.178,0.786,0.114c-0.091-0.831,0.304-1.554,0-2.247
			c-0.112,0-0.225,0-0.337,0C92.131,192.278,91.447,192.853,91.708,193.598z"/>
		<path fill="none" d="M92.158,183.942c-0.738-0.136-0.863,0.337-1.46,0.34c-0.192,0.019-0.442-0.638-0.448-0.113
			c0.015,1.292,1.615,1.004,1.46,2.469c-0.396,0.654-1.716,0.381-1.797,1.345c0.257,0.354,0.833,0.575,0.898,1.237
			c0.104,1.051-0.963,1.82-1.685,2.243C92.879,191.707,93.275,186.87,92.158,183.942z"/>
		<path fill="none" d="M93.055,137.128c-0.071,1.306-0.01,2.479,1.347,2.358C94.048,138.605,94.384,137.035,93.055,137.128z"/>
		<path fill="none" d="M83.625,124.218c0.2,0.1,0.286,0.313,0.674,0.227c0.612-0.465-0.526-1.098,0.224-1.348
			c0.18,0.31,0.455,0.52,0.562,0.897c-0.23,0.481-0.906,0.516-0.898,1.236c0.932-0.079,1.117-0.905,1.347-1.683
			c-0.5-0.064-0.575-0.548-0.785-0.9C83.786,122.582,83.79,123.484,83.625,124.218z"/>
		<path fill="none" d="M84.411,118.717c0.133,0.054,0.254,0.12,0.337,0.224c0.528-0.029,0.998-1.067,0.561-1.345
			C85.195,118.153,84.782,118.414,84.411,118.717z"/>
		<path fill="none" d="M85.982,142.293c-0.997-0.064-0.964-1.715-2.133-1.236c0,0.114,0,0.225,0,0.338
			C84.714,141.498,85.216,143.475,85.982,142.293z"/>
		<path fill="none" d="M85.869,115.686c-0.742,0.044-1.383,0.188-1.57,0.786C85.101,116.488,85.499,116.1,85.869,115.686z"/>
		<path fill="none" d="M84.748,155.764c0.077-0.483,0.454-0.665,0.336-1.345c-0.149,0-0.299,0-0.45,0
			C84.707,154.833,84.49,155.537,84.748,155.764z"/>
		<path fill="none" d="M98.556,79.536c-0.39-0.073-0.937-0.413-1.347-0.112c-0.097,0.358,0.177,0.347,0.224,0.561
			C97.973,80,98.396,79.899,98.556,79.536z"/>
		<path fill="none" d="M90.698,148.804c-1.617-0.684-4.283-3.102-5.95-1.01C87.351,146.392,89.552,150.63,90.698,148.804z"/>
		<path fill="none" d="M86.881,123.881c0.104-0.485,0.241-1.357-0.336-1.459C86.56,123.003,86.429,123.734,86.881,123.881z"/>
		<path fill="none" d="M96.985,78.188c-1.268-0.121-1.909,2.532-0.674,2.583c-0.442-1.082,0.479-1.768,0.786-2.47
			C97.215,78.295,97.185,78.156,96.985,78.188z"/>
		<path fill="none" d="M94.852,82.533c0.029,1.266,0.705,0.583,1.01,0.803c0.526,0.484,0.804,1.339,1.685,1.466
			c0.136-0.528-0.611-0.909-1.011-1.189c-0.469-0.331-0.924-1.08-1.459-1.08C95.001,82.533,94.926,82.533,94.852,82.533z"/>
		<path fill="none" d="M93.505,105.362c0.303,0.564,0.565,1.35,1.347,1.293c-0.739-1.131-1.553-2.604-1.796-3.87
			c-0.112,0-0.224,0-0.337,0C92.709,104.055,93.112,104.636,93.505,105.362z"/>
		<path fill="none" d="M93.953,95.366c-0.465-0.618-0.135-2.034-0.785-2.47C92.638,93.792,93.389,95.267,93.953,95.366z"/>
		<path fill="none" d="M93.617,85.149c0.167,0.543,0.432,0.988,0.787,1.345C94.207,85.981,94.05,85.426,93.617,85.149z"/>
		<path fill="none" d="M87.778,114.899c-0.143-0.009-0.155-0.144-0.336-0.115c-0.052,0.41-0.707,1.067,0,1.239
			C87.471,115.564,87.861,115.468,87.778,114.899z"/>
		<path fill="none" d="M89.238,143.752c-0.318,0.986,0.693,1.885,1.011,0.897C89.613,144.65,89.811,143.816,89.238,143.752z"/>
		<path fill="none" d="M84.972,164.297c0.063,0.46,1.337,0.725,1.458,0.112c-0.404-0.232-0.639-0.633-1.347-0.56
			C85.11,164.06,84.958,164.096,84.972,164.297z"/>
		<path fill="none" d="M87.105,174.177c-0.121,0.502-0.566,1.879,0.113,2.137C87.615,175.842,87.41,174.62,87.105,174.177z"/>
		<path fill="none" d="M86.655,182.485c0.49,0.126,1.765,0.338,1.796-0.34C87.994,181.991,86.666,181.83,86.655,182.485z"/>
		<path fill="none" d="M86.319,186.188c0.39,0.016,0.18-0.568,0.56-0.56c0.086-0.326,0.533-0.289,0.449-0.783
			c-0.61,0.085-0.817-0.235-1.234-0.34C86.106,185.129,86.005,185.867,86.319,186.188z"/>
		<path fill="none" d="M86.208,160.369c1.029-0.604,0.91,0.54,1.918,0.558c0.301-2.191-0.042-4.105-2.574-4.491
			c0,0.188,0,0.375,0,0.562c1.267,0.279,1.191,0.145,1.34,0.559c0.024,0.322,0.08,0.569-0.117,0.673
			c-0.66-0.164-0.648-0.943-1.405-1.01C84.737,158.264,86.925,158.88,86.208,160.369z"/>
		<path fill="none" d="M90.024,170.921c0.295-0.314,0.934-1.185,0.673-1.46c-0.734,2.185-3.592,2.243-5.052,3.704
			C87.168,172.971,89.038,171.97,90.024,170.921z"/>
		<path fill="none" d="M88.341,170.247c0.111-0.34,0.082-0.817,0.449-0.898c0.499-0.125,0.593,0.496,0.897,0.225
			c-0.049-0.659-0.338-1.082-0.225-1.909c0.201-0.1,0.287-0.314,0.674-0.225c-0.17-0.9-0.989-0.1-1.573-0.115
			c-0.295-0.189-0.113-0.859-0.336-1.123C87.507,166.921,86.771,169.877,88.341,170.247z"/>
		<path fill="none" d="M86.095,182.036c1.046,0.149,1.201-0.596,1.347-1.345C86.382,180.525,86.151,181.192,86.095,182.036z"/>
		<path fill="none" d="M94.739,158.57c0.165-2.098,1.773-3.182,2.694-4.151c-2.476,0.095-5.359,4.074-2.582,5.951
			C94.787,159.672,94.695,159.137,94.739,158.57z"/>
		<path fill="none" d="M94.065,154.867c-0.48,0.567-1.401,1.293-2.021,1.348c0.146-0.753,1.213-0.585,1.011-1.684
			c-3.045,0.718-2.793,6.934,0,7.745c-0.047-1.487-1.306-1.764-1.348-3.255c1.103-1.602,1.039,3.167,2.246,1.46
			C91.764,159.468,93.821,156.105,94.065,154.867z"/>
		<path fill="none" d="M95.861,159.021c0.887-0.305,1.561-1.411,1.909-2.245c0.091-0.218,0.504-0.788,0.112-0.898
			C96.52,156.235,96.011,157.448,95.861,159.021z"/>
		<path fill="none" d="M93.392,193.486c-0.143-0.006-0.156-0.142-0.336-0.114c-0.052,0.411-0.708,1.065,0,1.239
			C93.084,194.152,93.474,194.054,93.392,193.486z"/>
		<path fill="none" d="M93.055,169.461c0.005,0.743-0.067,1.564,0.448,1.796c-0.071-0.598,0.417-1.097,0.224-1.459
			C93.572,169.619,93.342,169.511,93.055,169.461z"/>
		<path fill="none" d="M91.146,195.956c-0.314,1.858-2.604,1.737-2.694,3.82c1.939-0.078,3.853-0.882,5.275-0.228
			C92.603,198.616,91.726,197.435,91.146,195.956z"/>
		<path fill="none" d="M89.688,118.38c0.655-0.094,1.785,0.288,1.796-0.449C90.925,117.835,89.656,117.561,89.688,118.38z"/>
		<path fill="none" d="M91.258,144.09c0.262,0,0.524,0,0.786,0c0-0.3,0-0.6,0-0.9c-0.262,0-0.524,0-0.786,0
			C91.258,143.49,91.258,143.79,91.258,144.09z"/>
		<path fill="none" d="M91.035,135.669c-0.226,0.363-0.131,1.207,0.224,1.348C91.507,136.647,91.897,135.653,91.035,135.669z"/>
		<path fill="none" d="M93.392,151.61c0.081-0.344-0.114-0.41-0.111-0.672c-0.27-0.272-0.297,0.272-0.786,0.112
			c-0.443-0.328-1.043-1.025-1.684-0.786C90.599,151.281,92.355,152.175,93.392,151.61z"/>
		<path fill="none" d="M91.146,130.168c-0.143,1.384-1.279,2.871-0.561,4.379C90.343,132.804,92.085,131.515,91.146,130.168z"/>
		<path fill="none" d="M92.381,153.07c-1.22,0.61-2.167-1.739-3.032-0.448C90.057,153.142,92.07,154.487,92.381,153.07z"/>
		<path fill="none" d="M88.564,120.176c0.574,0.151,1.21-0.376,1.573-0.786C89.466,119.506,88.726,119.553,88.564,120.176z"/>
		<path fill="none" d="M85.982,149.478c-0.263,0.028-0.064,0.494,0,0.561c0.149,0.178,0.439-0.451,1.01-0.227
			c0.81,0.427,1.299,1.173,1.908,1.799c0.1-0.239,0.342-0.334,0.337-0.672C88.725,149.946,87.409,149.185,85.982,149.478z"/>
		<path fill="none" d="M91.595,118.043c0.025,0.554-0.677,0.98,0,1.237c0.133-0.354,0.379-0.597,0.448-1.014
			C91.822,118.266,91.902,117.962,91.595,118.043z"/>
		<path fill="none" d="M92.606,149.703c0.295-0.813-0.397-1.225-0.562-1.909c0.083-0.254,0.338-0.335,0.562-0.448
			c0.697,0.575,0.169,2.375,0.897,2.919c0.492-0.396,0.373-0.63,0.113-1.235c0.257-0.599,0.122-1.768-0.226-2.135
			c-1.096-0.198-1.13,0.665-2.133,0.56C91.244,148.669,92.113,148.998,92.606,149.703z"/>
		<path fill="none" d="M87.891,154.081c-0.225,0.86,0.955,1.736,1.347,0.899C88.644,154.825,88.589,154.131,87.891,154.081z"/>
		<path fill="none" d="M95.861,153.857c-0.128-1.22-1.392-1.303-2.806-1.236C93.04,153.984,94.94,153.43,95.861,153.857z"/>
		<path fill="none" d="M97.546,152.733c-0.124-0.452-0.441-0.287-0.787-0.562c-0.829-0.663-1.209-1.948-2.694-1.345
			C94.955,151.672,95.773,153.139,97.546,152.733z"/>
		<path fill="none" d="M92.831,135.704c-0.113,0-0.225,0-0.338,0c-0.428,1.266-0.851,3.524,0.338,3.293
			c0.26-0.341-0.431-0.613-0.45-1.029C92.474,137.254,93.185,136.97,92.831,135.704z"/>
		<path fill="none" d="M143.015,74.485c-1.345-0.05-1.14-2.756,0.561-1.798c-0.029,0.459-0.419,0.556-0.337,1.125
			c0.974,0.279,0.968-1.815,0.225-2.135c-0.987-0.237-0.863,0.634-1.796,0.45C141.439,73.516,142.065,75.667,143.015,74.485z"/>
		<path fill="none" d="M161.65,73.362c0.445-0.004,0.46-0.438,0.561-0.786c-0.399-0.011-0.77-0.054-0.897-0.336
			c0.282-0.355,0.762-0.511,0.897-1.011C160.896,70.559,160.497,73.117,161.65,73.362z"/>
		<path fill="none" d="M153.342,51.469c0.024-0.735-0.275-1.145-0.897-1.235C152.55,50.838,152.812,51.288,153.342,51.469z"/>
		<path fill="none" d="M165.579,75.27c-0.222-0.001-0.142-0.306-0.448-0.224c0.078,0.938-1.283,0.437-1.347,1.236
			C164.604,76.591,165.52,76.088,165.579,75.27z"/>
		<path fill="none" d="M162.773,70.217c1.037-0.501-0.58-2.117-0.898-0.897C162.455,69.338,162.3,70.09,162.773,70.217z"/>
		<path fill="none" d="M158.395,67.973c0.634,0.115,0.723,1.534,0.251,1.796c0.595-0.042,1.598-0.267,1.598-0.448
			c0-0.263,0-0.525,0-0.786c0-0.502-1.471-0.607-1.598-1.345c0.798-0.1,1.437,0.15,1.657-1.116c-0.562,0-1.123,0-1.685,0
			c-0.126,1.266-0.23,1.335-1.01,1.229c0.006,0.482,0.151,0.932,0.226,1.346C158.295,68.661,157.982,68.01,158.395,67.973z"/>
		<path fill="none" d="M159.966,86.497c0.589-1.381-1.4-1.631-1.235-2.583c0.903-0.381,1.909,1.824,2.583,0.34
			c-3.188-1.082-5.083-4.049-7.298-5.727C155.628,81.552,157.153,84.669,159.966,86.497z"/>
		<path fill="none" d="M163.11,68.309c0.222-0.114,0.478-0.191,0.561-0.448c-0.385-0.101-0.488-0.484-1.009-0.45
			C162.411,67.743,162.693,68.293,163.11,68.309z"/>
		<path fill="none" d="M160.079,74.933c0.951-0.061,1.566-0.455,2.133-0.898c-0.896,0.092-1.371-0.645-2.133-0.336
			C160.304,74.169,160.327,74.454,160.079,74.933z"/>
		<path fill="none" d="M155.252,45.855c1.007-0.606-0.687-2.075-1.347-1.346C154.986,44.325,154.4,45.808,155.252,45.855z"/>
		<path fill="none" d="M156.261,76.282c0.807,0.293,1.781-0.147,1.796-1.013c-0.223-0.001-0.143-0.306-0.45-0.224
			C157.688,75.984,156.325,75.482,156.261,76.282z"/>
		<path fill="none" d="M154.802,66.961c0.863,0.44,2.118-0.639,1.459-1.347C156.159,66.45,154.709,65.934,154.802,66.961z"/>
		<path fill="none" d="M154.915,49c-0.214-0.049-0.283-0.24-0.561-0.226c0.045,0.758-0.848,0.575-0.897,1.236
			C154.187,49.919,154.545,49.453,154.915,49z"/>
		<path fill="none" d="M157.048,74.933c0.083-0.755-1.532-1.445-1.459-0.225C155.875,74.982,156.476,74.942,157.048,74.933z"/>
		<path fill="none" d="M156.709,72.576c0.165-0.098,0.356-0.168,0.337-0.448c-0.257,0.029-0.422-0.027-0.449-0.225
			c0.225-0.338,0.625-0.5,0.56-1.125C155.973,70.336,155.997,72.474,156.709,72.576z"/>
		<path fill="none" d="M161.537,64.491c0.292-0.3,0.36-1.207-0.337-1.123C160.749,63.719,161.159,64.323,161.537,64.491z"/>
		<path fill="none" d="M171.082,119.84c-0.905-0.044-1.678,0.044-1.686,0.897C170.301,120.782,171.073,120.691,171.082,119.84z"/>
		<path fill="none" d="M138.073,115.012c0.706,0.68,1.568,1.203,2.247,1.909C140.528,115.406,139.184,114.486,138.073,115.012z"/>
		<path fill="none" d="M170.743,123.992c0.996,0.099,1.688-0.107,1.795-0.897C171.567,123.022,170.851,123.203,170.743,123.992z"/>
		<path fill="none" d="M138.859,113.215c-0.075-0.672,0.263-0.935,0.448-1.347c-0.448,0-0.897,0-1.347,0
			C137.939,112.64,138.348,112.979,138.859,113.215z"/>
		<path fill="none" d="M85.646,204.938c-0.37,2.239,0.102,4.518,0.285,6.727h9.587c0.918-2.15,2.162-3.975,3.039-6.164
			C93.949,206.047,90.382,204.63,85.646,204.938z"/>
		<path fill="none" d="M177.255,120.737c-0.742-0.189-1.517,0.383-1.684,1.125C176.421,121.776,177.226,121.644,177.255,120.737z"/>
		<path fill="none" d="M133.246,153.297c-1.048,0.172-3.442,1.905-3.144,2.918c1.343-1.052,2.426-2.365,4.94-2.246
			C134.83,153.198,133.923,153.183,133.246,153.297z"/>
		<path fill="none" d="M164.681,73.024c0.43-0.565,0.501-1.754-0.449-1.796C164.281,71.928,164.022,72.934,164.681,73.024z"/>
		<path fill="none" d="M129.542,113.777c0,0.3,0,0.602,0,0.897c0.5-0.049,0.594,0.305,0.898,0.45
			c0.054-0.616-0.078-1.045-0.337-1.348C129.915,113.777,129.729,113.777,129.542,113.777z"/>
		<path fill="none" d="M165.13,70.667c0.239,0.214,0.528,0.963,0.786,0.787c-0.496-0.515-0.733-1.289-1.796-1.236
			C164.201,70.623,164.691,70.621,165.13,70.667z"/>
		<path fill="none" d="M164.12,74.821c0.135-0.352,0.417-0.557,0.337-1.123c-0.144-0.009-0.156-0.144-0.337-0.115
			C164.145,74.136,163.442,74.566,164.12,74.821z"/>
		<path fill="none" d="M137.401,121.075c0.092-1.217,1.037-1.583,1.347-2.583c-0.197-0.215-0.42-0.403-0.786-0.449
			C137.64,118.905,135.584,120.46,137.401,121.075z"/>
		<path fill="none" d="M136.952,113.215c0.198-0.102,0.348-0.25,0.45-0.448c-0.284-0.166-0.501-0.396-0.898-0.448
			C136.214,112.688,136.535,113.2,136.952,113.215z"/>
		<path fill="none" d="M135.605,115.237c-0.48-0.156-0.682-0.592-1.347-0.563C133.58,115.574,135.451,116.146,135.605,115.237z"/>
		<path fill="none" d="M147.505,87.506c-1.306-0.079-0.446,1.649-0.337,1.796c0.899,1.238,3.847,1.152,5.838,1.125
			c-0.49-0.559-1.478-0.542-2.357-0.674c-0.895-0.135-1.868-0.173-2.582-0.449C147.698,88.884,147.965,87.832,147.505,87.506z"/>
		<path fill="none" d="M121.572,62.809c-1.138-0.005-2.245,0.583-1.796,1.795C120.87,64.502,121.47,63.904,121.572,62.809z"/>
		<path fill="none" d="M117.866,58.991c0.502-0.055,0.501,0.396,0.897,0.447c0.027-0.588-0.089-1.031-0.337-1.345
			c-0.187,0-0.373,0-0.561,0C117.866,58.393,117.866,58.692,117.866,58.991z"/>
		<path fill="none" d="M124.377,49.224c-1.176-0.1-2.06,1.191-1.459,2.133C122.863,50.104,124.148,50.193,124.377,49.224z"/>
		<path fill="none" d="M125.164,78.077c1.968-0.84,4.728-0.886,5.95-2.472C129.238,76.462,125.978,76.533,125.164,78.077z"/>
		<path fill="none" d="M118.652,64.268c-0.167-0.285-0.474-0.425-0.786-0.561c0.025,0.623-0.781,0.416-1.347,0.448
			c0,0.448,0,0.899,0,1.345C117.582,65.443,118.285,65.023,118.652,64.268z"/>
		<path fill="none" d="M130.216,49.448c0.382-1.011-1.892-0.818-1.46-0.224C129.408,49.101,129.827,49.668,130.216,49.448z"/>
		<path fill="none" d="M124.377,51.469c0.511-1.937,2.039-0.848,2.358,0.34c0.084-0.946-0.153-1.569-0.449-2.136
			C125.169,49.669,123.777,50.497,124.377,51.469z"/>
		<path fill="none" d="M121.908,74.708c-2.99-2.931-8.221-0.2-9.991,2.132C116.371,77.674,117.69,74.479,121.908,74.708z"/>
		<path fill="none" d="M115.509,66.961c0.87-1.873-1.405-2.229-2.47-3.032c-0.33-0.248-0.397-0.724-0.786-0.672
			C112.642,65.188,113.771,66.379,115.509,66.961z"/>
		<path fill="none" d="M122.918,76.504c0.166,0.058,0.284,0.166,0.449,0.224c0.11-0.6,0.758-0.663,1.01-1.123
			c-0.166-0.058-0.283-0.168-0.448-0.226C123.866,76.03,122.98,75.857,122.918,76.504z"/>
		<path fill="none" d="M86.095,188.21c-0.16,0.44-0.498,0.702-0.562,1.237c0.337,0,0.674,0,1.011,0
			C86.943,189.025,86.781,188.173,86.095,188.21z"/>
		<path fill="none" d="M115.284,63.594c1.011-0.075,1.981-0.188,2.47-0.785C116.77,62.91,115.654,62.878,115.284,63.594z"/>
		<path fill="none" d="M114.499,60.002c0.396,0.511,0.993,1.262,1.908,0.897c0.108-0.819-0.355-1.067-0.561-1.571
			c-0.083-0.256,0.201-0.876-0.226-0.787c-0.796,0.306-2.374,0.713-1.684,1.796C114.321,60.422,114.08,59.881,114.499,60.002z"/>
		<path fill="none" d="M117.866,57.532c0.22-1.775-2.742-2.465-3.256-0.899C115.699,56.93,116.463,58.229,117.866,57.532z"/>
		<path fill="none" d="M143.575,70.217c-0.047-0.534,0.384-0.591,0.337-1.124c-0.16-0.026-0.19-0.184-0.337-0.225
			C143.472,69.306,142.909,69.978,143.575,70.217z"/>
		<path fill="none" d="M148.851,85.486c0.417-1.674-1.146-2.278-2.92-2.134C146.235,84.733,148.372,84.281,148.851,85.486z"/>
		<path fill="none" d="M153.342,65.951c0.053-0.765-0.322-1.1-0.897-1.237C152.55,65.322,152.812,65.771,153.342,65.951z"/>
		<path fill="none" d="M88.341,162.837c0.158-1.354-1.49-0.905-2.245-1.345c-0.035,0.409,0.018,0.729,0.111,1.01
			C86.699,162.833,87.466,162.889,88.341,162.837z"/>
		<path fill="none" d="M154.24,74.146c-0.674-0.593-2.063-2.237-3.031-1.122C152.748,72.791,153.007,74.796,154.24,74.146z"/>
		<path fill="none" d="M152.78,55.173c0.085-0.45-0.437-1.186-1.01-1.345c-0.059,0.166-0.166,0.282-0.226,0.448
			C152.303,54.23,152.119,55.124,152.78,55.173z"/>
		<path fill="none" d="M115.62,78.188c-0.123,0.438-0.256,0.868-0.337,1.345c0.616-0.582,1.707-0.688,1.909-1.684
			C116.719,78.016,116.396,78.328,115.62,78.188z"/>
		<path fill="none" d="M152.332,58.878c-0.006-0.743-0.328-1.172-0.786-1.459C151.047,57.943,151.825,58.665,152.332,58.878z"/>
		<path fill="none" d="M97.995,159.693c-1.516,0.449-3.791,1.617-3.48,3.369C94.841,161.106,97.136,161.119,97.995,159.693z"/>
		<path fill="none" d="M138.522,69.208c0.519-0.418,1.505-0.365,1.684-1.124c-0.025-0.086-0.003-0.222-0.111-0.224
			c-1,0.169-2.616,1.233-1.685,2.242C138.362,69.72,138.456,69.478,138.522,69.208z"/>
		<path fill="none" d="M112.366,82.343c1.794-0.899,4.505-0.882,5.837-2.243C115.978,80.491,113.307,81.039,112.366,82.343z"/>
		<path fill="none" d="M136.391,80.097c-0.295-0.156-1.354-0.278-1.347,0.224C135.33,80.749,136.296,80.536,136.391,80.097z"/>
		<path fill="none" d="M112.366,105.582c0.097,0.391,0.583,0.389,0.785,0.674c0.235,0.51,0.462,1.032,0.898,1.345
			C114.373,106.479,113.617,105.501,112.366,105.582z"/>
		<path fill="none" d="M137.512,40.13c-0.2-0.472-0.254-1.093-0.898-1.123C136.549,39.675,137.065,40.349,137.512,40.13z"/>
		<path fill="none" d="M135.492,45.63c0.354,0.056,0.438-0.158,0.673-0.224c-0.084-0.399-0.26-0.713-0.673-0.787
			c0.011,0.35-0.354,0.321-0.226,0.787C135.393,45.431,135.443,45.53,135.492,45.63z"/>
		<path fill="none" d="M104.282,108.613c-0.423-0.288-0.758-0.662-1.347-0.784c0.191,0.667,0.884,0.837,1.347,1.235
			c0.635-0.113,1.78,0.282,1.908-0.336C105.753,108.489,104.899,108.668,104.282,108.613z"/>
		<path fill="none" d="M54.771,90.988c3.43,5.476,7.043,10.769,10.666,16.056c1.124-5.504,3.569-9.68,5.053-14.82
			C65.187,91.949,59.798,91.164,54.771,90.988z"/>
		<path fill="none" d="M63.641,121.635c0.687,0.084,1.363-0.43,1.124-0.897C64.275,120.922,63.782,121.102,63.641,121.635z"/>
		<path fill="none" d="M64.09,116.472c0.299,0,0.599,0,0.898,0c0-0.263,0-0.524,0-0.783c-0.299,0-0.599,0-0.898,0
			C64.09,115.948,64.09,116.208,64.09,116.472z"/>
		<path fill="none" d="M64.427,119.503c-0.468-0.133-1.068,0.477-1.347,0.897c0.031,0.23,0.3,0.224,0.449,0.336
			C63.484,119.982,64.347,120.134,64.427,119.503z"/>
		<path fill="none" d="M63.641,117.706c-1.32-0.539-2.87-2.697-4.153-2.021c1.153,0.939,2.831,1.357,3.592,2.694
			c-0.227,0.295-0.745,0.3-0.673,0.898c0.428-0.023,0.271-0.626,0.673-0.674C63.373,118.411,63.649,118.201,63.641,117.706z"/>
		<path fill="none" d="M58.59,108.164c-0.225,0-0.45,0-0.674,0c-0.609,1.096,1.134,2.042,1.46,0.898
			C58.821,109.055,58.823,108.492,58.59,108.164z"/>
		<path fill="none" d="M63.08,113.215c0.167-1.365-0.554-1.84-1.347-2.245C61.693,112.208,61.647,113.45,63.08,113.215z"/>
		<path fill="none" d="M68.805,105.133c0.059-0.315,0.165-0.584,0.224-0.898c-0.188-0.147-0.376-0.295-0.786-0.225
			c0.012,0.611,0.081,1.278-0.45,1.347c-0.914-0.388-0.098-1.347-0.113-2.135c-0.159-0.026-0.188-0.184-0.336-0.224
			c-0.926,0.856-0.246,2.682,0.449,3.255c0.756-0.142,1.51-0.288,1.796-0.898C69.274,105.338,68.822,105.454,68.805,105.133z"/>
		<path fill="none" d="M71.5,114.451c-0.422-0.083-0.245,0.429-0.562,0.449c-0.103-0.647-0.403-1.093-0.787-1.459
			c-0.13,1.627,0.416,2.579,1.91,2.583C72.366,115.421,72.282,114.541,71.5,114.451z"/>
		<path fill="none" d="M73.072,106.593c0.123,0.327,0.458,0.438,0.786,0.561c-0.042-0.641,0.205-0.994,0.45-1.348
			C73.489,105.665,73.136,105.983,73.072,106.593z"/>
		<path fill="none" d="M73.745,110.745c0.545-1.328-2.835-0.951-1.233,0.113C72.579,110.183,73.506,110.407,73.745,110.745z"/>
		<path fill="none" d="M71.5,127.811c0.052,0.352-0.098,0.502-0.45,0.448c-0.186-0.262,0.061-0.958-0.448-0.897
			c0.125,0.761-0.316,0.955-0.449,1.46C70.774,129.752,72.816,128.411,71.5,127.811z"/>
		<path fill="none" d="M69.704,113.552c-0.081-0.305,0.223-0.225,0.224-0.447c-0.154,0.003-0.247-0.055-0.337-0.115
			C69.653,113.153,69.461,113.571,69.704,113.552z"/>
		<path fill="none" d="M58.364,111.083c-0.159,0.851-0.775,1.716-0.562,2.582c0.308-0.216,0.605-0.443,1.01-0.558
			c-0.486-0.478-0.02-1.175,0-1.796C58.591,111.307,58.671,111.001,58.364,111.083z"/>
		<path fill="none" d="M72.398,95.477c-0.386,0.05-0.629-0.042-0.897-0.111c-0.218-0.42-0.269-1.005-0.224-1.684
			c-0.112,0-0.226,0-0.338,0C70.125,94.656,71.559,96.522,72.398,95.477z"/>
		<path fill="none" d="M74.418,97.611c0.551,0.87,0.267,2.577,1.236,3.031c0.198-0.102,0.347-0.249,0.449-0.447
			c-1.387-0.239-0.639-2.329,0-2.807C75.453,97.372,74.794,97.35,74.418,97.611z"/>
		<path fill="none" d="M79.021,84.7c-0.779-0.032-1.281,0.214-1.459,0.786C78.278,85.454,78.829,85.256,79.021,84.7z"/>
		<path fill="none" d="M76.104,92.334c-1.417,0.181-1.773-0.697-3.143-0.562C72.796,93.325,75.467,92.831,76.104,92.334z"/>
		<path fill="none" d="M81.155,83.69c0.389-0.136,0.483-0.566,0.561-1.012c-0.159-0.027-0.189-0.185-0.337-0.225
			C81.352,82.89,80.81,83.236,81.155,83.69z"/>
		<path fill="none" d="M80.593,82.343c0.168-0.24,0.562-0.261,0.561-0.67c-0.143-0.01-0.156-0.145-0.336-0.114
			C80.917,81.927,80.269,82.117,80.593,82.343z"/>
		<path fill="none" d="M57.243,108.052c-0.229-0.108-0.444-0.231-0.674-0.34c-0.088,0.36-0.391,0.508-0.897,0.45
			c0.146,0.939,0.962,1.805,1.795,1.684C56.986,109.486,57.417,108.483,57.243,108.052z"/>
		<path fill="none" d="M71.5,109.848c0.04-0.752-0.578-0.846-1.347-0.787c0,0.337,0,0.674,0,1.011
			C70.526,110.314,70.966,109.133,71.5,109.848z"/>
		<path fill="none" d="M75.766,106.93c-1.05,0.074-1.283,0.963-1.796,1.569C74.76,108.167,75.625,107.91,75.766,106.93z"/>
		<path fill="none" d="M71.051,98.285c0.039-0.412,0.012-0.887,0.45-0.899c0.089,0.29,0.597,0.743,0.448,0.899
			c-0.712,0.033-1.025,0.471-1.685,0.559c-1.033-0.36,0.25-1.89-0.561-2.242c0.027,0.886-0.716,1.003-0.561,2.02
			c0.797,1.169,3.446,0.438,3.254-0.786c-0.105-0.676-1.651-1.173-2.133-0.225C70.49,97.871,70.674,98.175,71.051,98.285z"/>
		<path fill="none" d="M70.152,101.091c-0.06,0.56,0.907,0.366,0.898,0c-0.938-1.371-1.899,0.052-2.919,0.448
			c-0.352-1.162,1.378-1.101,0.786-1.796c-0.4,0.273-0.526,0.821-1.123,0.899c0.19,0.972,0.74,2.18,1.796,1.908
			C68.813,102.271,69.677,101.19,70.152,101.091z"/>
		<path fill="none" d="M72.735,105.02c-0.195,0.405-0.696,0.502-0.899,0.899c-0.211,0.87,0.441,1.873,1.011,1.238
			C71.757,106.893,73.007,105.474,72.735,105.02z"/>
		<path fill="none" d="M73.971,102.887c0.2,0.211,0.326,0.497,0.786,0.448c0.152-0.334,0.081-0.891,0.561-0.899
			c-0.08,0.566,0.414,0.559,0.448,1.013c-0.678-0.04-0.92,0.35-1.459,0.449c-0.081-0.854-1.266-0.679-1.085-1.796
			c0.29-0.157,0.934-0.156,0.934-0.336c0-0.188,0-0.377,0-0.561c0-0.154,0-1.432-1.266-0.898c0,0.111,0,0.224,0,0.336
			c0,0.583,0.78,0.322,1.213,0.562c0.002,0.863-1.276,0.567-1.021,1.684c0.523,0.264,0.563,0.949,0.837,1.457
			c1.123-0.224,2.225-0.438,2.326-1.681C75.949,101.794,74.069,101.979,73.971,102.887z"/>
		<path fill="none" d="M83.288,141.955c0.699,1.247,1.158,2.734,1.909,3.93C85.758,144.163,84.625,142.1,83.288,141.955z"/>
		<path fill="none" d="M83.962,144.988c-0.103,0.76-0.422,1.897-0.562,2.245C83.646,146.65,84.586,145.708,83.962,144.988z"/>
		<path fill="none" d="M84.522,156.214c-0.028,0.313-0.63,0.633-0.337,0.898C84.182,156.765,84.754,156.416,84.522,156.214z"/>
		<path fill="none" d="M84.186,151.723c-0.07-0.623,0.501-1.708,0-2.023C84.343,150.46,83.856,151.166,84.186,151.723z"/>
		<path fill="none" d="M83.513,126.352c-0.501,0.209-1.408,0.015-1.236,0.897C83.012,127.344,83.726,126.831,83.513,126.352z"/>
		<path fill="none" d="M80.818,97.835c-1.041-0.028-1.165,0.854-1.236,1.795c1.117-0.312,1.498,1.801,2.133,0.562
			C80.417,100.271,80.48,98.792,80.818,97.835z"/>
		<path fill="none" d="M81.716,94.579c-0.764,0.574,0.062,2.082,0.45,2.137C81.619,96.149,82.669,94.894,81.716,94.579z"/>
		<path fill="none" d="M72.511,130.056c1.174-0.239,1.021,0.85,1.796,1.009C74.573,129.85,72.847,128.637,72.511,130.056z"/>
		<path fill="none" d="M83.737,170.135c0.017,0.581-0.115,1.312,0.336,1.457C84.179,171.111,84.314,170.238,83.737,170.135z"/>
		<path fill="none" d="M86.095,166.205c0.131,1.479-0.969,3.208,0.336,3.93c0.246-1.251-0.057-3.051,0.563-3.93
			c-0.94,0.116-0.957-0.69-1.909-0.558c-1.252,1.674-0.634,5.083,0.897,5.946C85.643,170.017,84.163,166.767,86.095,166.205z"/>
		<path fill="none" d="M85.309,160.592c-0.419,0.33-1.207,0.29-1.123,1.123C84.822,161.675,85.455,161.042,85.309,160.592z"/>
		<path fill="none" d="M96.759,162.389c-0.298,0-0.599,0-0.898,0c0,0.299,0,0.598,0,0.899c0.299,0,0.6,0,0.898,0
			C96.759,162.987,96.759,162.688,96.759,162.389z"/>
		<path fill="none" d="M83.175,80.546c0.423-0.176,0.723-0.475,0.898-0.899c-1.565-0.271-1.466,2.044-0.673,2.583
			C83.599,81.8,83.314,81.004,83.175,80.546z"/>
		<path fill="none" d="M76.439,99.518c0.334-0.347-0.437-0.221-0.225-0.785c0.342-0.107,0.914,0.016,0.898-0.448
			C76.065,97.833,75.512,99.37,76.439,99.518z"/>
		<path fill="none" d="M79.358,195.508c-0.061-1.186,1.063-1.186,1.347-2.024C79.985,193.352,78.557,194.819,79.358,195.508z"/>
		<path fill="none" d="M77.225,105.356c0.354,0.127,0.255,0.011,0.674,0c0.303-0.464,0.392-1.732-0.226-1.908
			C77.505,104.012,76.85,104.612,77.225,105.356z"/>
		<path fill="none" d="M75.205,119.727c-0.046-0.795,0.682-0.815,0.898-1.345C75.179,118.199,74.299,119.436,75.205,119.727z"/>
		<path fill="none" d="M75.092,116.921c-0.229-0.108-0.444-0.23-0.673-0.336c-0.099,0.5-0.203,0.991-0.448,1.345
			c0.298,0,0.599,0,0.897,0C74.906,117.556,75.193,117.433,75.092,116.921z"/>
		<path fill="none" d="M78.909,100.979c-0.776-0.521-1.42,0.351-1.685,1.011c0.365,0.121,0.424,0.549,0.674,0.785
			c0.319-0.353-0.272-0.474-0.226-0.897C77.776,101.267,78.556,101.337,78.909,100.979z"/>
		<path fill="none" d="M79.358,164.297c-0.694,0.077-1.271,1.55-0.449,1.796C78.588,165.308,79.305,165.033,79.358,164.297z"/>
		<path fill="none" d="M78.348,126.8c-0.466-0.058-0.48-0.566-1.124-0.447c0,0.148,0,0.297,0,0.447
			c0.863-0.114,0.831,0.667,1.348,0.898c0.004-0.46,0.645-0.705,0.225-1.234C78.371,126.298,78.775,126.965,78.348,126.8z"/>
		<path fill="none" d="M77.562,168.227c-0.422-0.613,0.62-0.723,1.01-0.9c0-0.225,0-0.449,0-0.671
			C77.498,165.933,76.567,168.241,77.562,168.227z"/>
		<path fill="none" d="M76.215,168.339c-0.29-1.366,0.867-2.185,1.347-3.144C76.116,165.146,75.197,167.335,76.215,168.339z"/>
		<path fill="none" d="M77.338,95.366c0.495-0.128,1.414-0.487,1.683,0.111c-0.706,1.595-3.618,0.354-2.582-1.345
			c-1.287,0.789-0.077,2.617,0.898,2.695c1.176,0.092,1.927-1.144,2.133-2.358C78.769,94.031,76.999,94.435,77.338,95.366z"/>
		<path fill="none" d="M80.818,84.477c-0.035-0.344-0.434-0.315-0.449-0.675c-0.118-0.406,0.254-1.302-0.225-1.348
			c-0.09,0.288-0.461,0.29-0.673,0.45C79.583,83.699,79.998,85.104,80.818,84.477z"/>
		<path fill="none" d="M96.759,135.895c-0.495,2.423,0.899,8.525,2.694,5.612C101.29,139.376,97.781,137.252,96.759,135.895z"/>
		<path fill="none" d="M99.679,135.669c0.262,0,0.524,0,0.787,0c0-0.297,0-0.6,0-0.899c-0.263,0-0.524,0-0.787,0
			C99.679,135.07,99.679,135.371,99.679,135.669z"/>
		<path fill="none" d="M117.305,161.828c0.074-0.748-0.326-1.023-0.787-1.235C116.47,161.313,116.805,161.654,117.305,161.828z"/>
		<path fill="none" d="M108.885,78.638c-0.454-0.153-1.304,0.164-1.347,0.786C108.173,79.349,108.748,79.211,108.885,78.638z"/>
		<path fill="none" d="M114.499,158.909c-0.332-0.491-0.727-0.921-1.348-1.123C113.053,158.665,113.903,159.426,114.499,158.909z"/>
		<path fill="none" d="M115.958,156.326c-0.693-0.006-0.867-1.042-1.459-0.786C114.397,156.37,115.623,157.305,115.958,156.326z"/>
		<path fill="none" d="M100.015,132.077c-0.067,0.42-0.134,0.838-0.561,0.898c-0.815-0.533-0.516-2.178-1.684-2.356
			c-0.988,1.82,1.237,3.214,2.919,2.356C100.728,132.412,100.41,132.205,100.015,132.077z"/>
		<path fill="none" d="M103.945,97.386c1.155,0.088,0.812,2.243,1.797,2.132C105.659,98.476,104.801,96.814,103.945,97.386z"/>
		<path fill="none" d="M107.538,80.995c0.756-0.141,1.51-0.288,1.796-0.897C108.492,80.154,107.201,79.76,107.538,80.995z"/>
		<path fill="none" d="M99.679,85.149c1.194-0.79,4.647,0.08,4.827-1.348c-1.569,0.341-3.48,0.338-4.716,1.011
			C99.702,84.825,99.451,85.184,99.679,85.149z"/>
		<path fill="none" d="M103.721,115.237c-0.989,2.08-2.48,3.656-4.041,5.164c0.086,0.7,0.462,1.11,0.336,2.021
			c-0.227,0.238-0.835,0.514-1.235,0.224c0.231,0.818,0.39,2.253,0,3.034c1.231-0.827,1.812-2.305,3.032-3.144
			c-0.273-0.137-0.364-0.458-0.45-0.785c0.329-1.131,1.645-1.276,2.357-2.021c-1.422-1.489,0.968-2.471,1.796-3.141
			C104.725,116.329,104.736,115.269,103.721,115.237z"/>
		<path fill="none" d="M100.015,79.087c-0.824-1.933,1.304-2.508,0.897-3.593c-0.612,0.357-1.741,0.203-1.683,1.234
			c0.341-0.004,0.738-0.064,0.673,0.337c-0.153,0.632-0.764,0.81-0.673,1.684C99.446,78.908,99.681,79.047,100.015,79.087z"/>
		<path fill="none" d="M100.241,158.459c0.338,1.125,1.102,2.113,1.236,3.034c0.062,0.424-0.138,0.938-0.113,1.345
			c0.19,3.001,4.314,3.779,2.919,7.522c0.738,0.796,2.394,0.675,2.358,2.245c2.852-0.705,3.038-4.074,5.613-5.051
			c-1.239,2.678-5.206,3.738-4.603,7.519c2.479,0.219,2.66-2.802,4.603-3.367c-0.916,1.628-2.413,2.676-3.704,3.93
			c0.734,1.397,1.377,2.889,1.908,4.491c2.808-1.714,3.787-5.483,5.726-8.195c1.771-2.479,4.26-4.446,4.491-7.634
			c-1.375-1.398-1.893,1.103-3.256,1.123c-0.131-0.596,0.605-0.746,0.226-1.235c-0.509-0.166-1.235,0.103-1.686-0.123
			c0.285-1.669-0.981-1.773-0.897-3.039c-0.787,0-1.571,0-2.357,0c-0.682-1.266-1.536-2.873-1.46-5.044
			c-4.625-2.482-8.185-6.144-13.023-8.413C98.952,151.117,99.274,155.248,100.241,158.459z M115.172,164.521
			c-0.033,0.644-1.059,1.261-1.684,1.684C113.809,165.405,114.635,165.107,115.172,164.521z M114.386,168.563
			c0.749-0.924,1.513-1.798,2.021-2.918c0.75,2.461-2.893,3.796-3.592,5.613C112.803,170.145,113.742,169.357,114.386,168.563z"/>
		<path fill="none" d="M98.106,183.495c-0.238-1.662,1.642-1.203,1.459-2.806c-1.168-0.294-1.293,1.349-2.245,0.558
			C97.416,182.247,96.765,183.594,98.106,183.495z"/>
		<path fill="none" d="M102.822,183.495c-2.214,0.554-2.738,2.8-4.604,3.706c0.975-1.018,3.383-3.634,0.787-4.604
			c-2.167,2.192-1.77,7.402-1.236,11.116c1.842,0.383,3.713,1.267,3.256,3.365c-0.203,0.927-2.146,1.589-1.011,2.696
			c1.941-0.726,2.708-2.478,3.592-4.265c1.253-2.535,2.93-5.372,3.032-8.758C104.572,186.459,102.881,185.792,102.822,183.495z"/>
		<path fill="none" d="M101.027,171.819c0,0.262,0,0.524,0,0.786c0.299,0,0.6,0,0.898,0c0-0.262,0-0.524,0-0.786
			C101.624,171.819,101.326,171.819,101.027,171.819z"/>
		<path fill="none" d="M96.424,173.054c-0.195,0.329-0.265,0.783-0.225,1.346C97.057,174.683,96.866,173.1,96.424,173.054z"/>
		<path fill="none" d="M96.199,170.247c0.317-0.469,0.848-0.723,1.01-1.346C96.332,168.726,95.416,169.821,96.199,170.247z"/>
		<path fill="none" d="M83.737,81.445c0.731,0.037,1.221-0.644,1.796-0.113C85.841,79.63,83.476,80.112,83.737,81.445z"/>
		<path fill="none" d="M113.488,187.424c0.511-0.538-0.002-1.721-0.673-1.345C113.472,186.092,112.946,187.292,113.488,187.424z"/>
		<path fill="none" d="M103.832,171.258c0,0.299,0,0.599,0,0.899c0.299,0,0.6,0,0.898,0c0-0.3,0-0.6,0-0.899
			C104.433,171.258,104.133,171.258,103.832,171.258z"/>
		<path fill="none" d="M122.469,162.276c0.944-0.968,1.446-2.371,3.368-2.357c0.029-0.704-0.148-1.199-0.449-1.572
			c-0.279-0.095-0.601-0.147-1.01-0.112c-0.056,0.518-0.177,0.881-0.448,1.237C123.167,160.462,120.9,161.225,122.469,162.276z"/>
		<path fill="none" d="M109.222,181.924c0.388-0.134,0.481-0.567,0.561-1.012c-0.161-0.026-0.19-0.184-0.338-0.224
			C109.418,181.122,108.877,181.469,109.222,181.924z"/>
		<path fill="none" d="M108.099,180.239c0.401-0.049,0.616-0.283,0.786-0.56C108.481,178.987,107.413,179.62,108.099,180.239z"/>
		<path fill="none" d="M119.212,159.132c-0.732,0.03-1.172-1.541-1.684-0.673C117.629,158.638,118.832,160.257,119.212,159.132z"/>
		<path fill="none" d="M94.964,78.638c0.298,0,0.599,0,0.897,0c0-0.299,0-0.599,0-0.899c-0.298,0-0.599,0-0.897,0
			C94.964,78.039,94.964,78.339,94.964,78.638z"/>
		<path fill="none" d="M100.465,72.014c0.363-0.425,0.492-1.082,1.01-1.348c0.563,0.041,1.018-0.03,1.347-0.225
			c-0.306-1.08-1.384,0.01-2.244,0c0.193,0.422-0.519,0.902-0.561,1.457C100.228,71.877,100.264,72.029,100.465,72.014z"/>
		<path fill="none" d="M96.759,73.809c-0.623-1.559,1.297-1.546,1.573-2.581C96.469,70.722,95.139,73.565,96.759,73.809z"/>
		<path fill="none" d="M97.995,75.158c0.582,0.662,2.292-0.337,1.235-0.899c-0.103,0.197-0.038,0.56-0.224,0.674
			C98.642,74.981,98.034,74.785,97.995,75.158z"/>
		<path fill="none" d="M98.556,73.698c-0.563-0.553,0.246-0.708,0.45-1.125c-0.673,0.077-0.934-0.264-1.347-0.447
			C96.808,72.672,97.722,74.523,98.556,73.698z"/>
		<path fill="none" d="M93.392,75.495c-0.003-0.486-0.596-0.38-0.448-1.013c0.365-0.717,1.131-1.037,1.908-1.345
			c-0.105-0.495-0.59-0.608-1.235-0.561c-0.212,0.273-0.76,0.792-0.898,1.459C92.607,74.576,92.486,75.621,93.392,75.495z"/>
		<path fill="none" d="M93.505,74.821c0.406,0.205,1.01-0.225,1.459-0.339c0.059,0.391,0.057,0.839,0.448,0.898
			C95.815,73.99,93.431,73.281,93.505,74.821z"/>
		<path fill="none" d="M89.125,85.936c-0.088,0.027-0.13,0.093-0.111,0.226c1.582,0.026,1.984,1.234,3.03,1.796
			C91.909,86.514,90.708,85.56,89.125,85.936z"/>
		<path fill="none" d="M86.881,79.985c-0.271-0.627-0.593-1.203-0.45-2.246c0.498,0.011,0.841-0.13,0.897-0.56
			c-0.097-0.166-0.167-0.355-0.448-0.339c-0.446,0.716-1.295,1.026-1.348,2.134C86.21,79.084,86.244,79.835,86.881,79.985z"/>
		<path fill="none" d="M94.402,80.21c-0.306-0.344-1.49-1.047-1.796-0.338C92.684,80.795,94.167,81.254,94.402,80.21z"/>
		<path fill="none" d="M89.348,77.627c0-0.448,0-0.899,0-1.345c1.266-0.557,0.965-0.833,1.347-1.348
			C88.894,74.59,88.083,76.858,89.348,77.627z"/>
		<path fill="none" d="M91.708,115.125c0.753,0.006,1.503,1.522,2.133,0.561c-0.752,0.041-0.773-0.651-1.235-0.901
			C92.508,115.352,91.763,114.603,91.708,115.125z"/>
		<path fill="none" d="M90.585,76.954c0.392,0.208,0.828,0.371,1.459,0.34C91.988,76.705,90.677,75.837,90.585,76.954z"/>
		<path fill="none" d="M109.784,74.933c0.287,0.537-0.054,1.7,0.673,1.795c0.662-0.931-0.2-2.06-1.01-2.244
			c-0.155,0.636-0.68,1.099-0.449,1.798c0.438,0.085,0.583,0.115,0.898-0.115C109.912,75.73,109.067,75.037,109.784,74.933z"/>
		<path fill="none" d="M109.108,102.325c0.16,0.42,0.579,0.471,0.787,0.898c0.327,0.672,0.167,1.588,0.337,2.47
			C111.495,104.859,110.466,102.316,109.108,102.325z"/>
		<path fill="none" d="M105.179,71.903c-0.779-1.827,1.592-1.479,1.909-2.58C104.957,68.727,103.362,71.567,105.179,71.903z"/>
		<path fill="none" d="M107.538,77.739c0.562,0.079,0.673-0.299,0.897-0.56c-0.248-0.128-0.458-0.289-0.897-0.226
			C107.377,77.103,107.377,77.59,107.538,77.739z"/>
		<path fill="none" d="M109.558,70.89c0.4,0.389,0.928,0.645,1.236,1.126c0.093-0.47,0.66-0.462,0.448-1.237
			C110.662,70.798,109.975,70.709,109.558,70.89z"/>
		<path fill="none" d="M110.232,69.657c-0.024,0.036,0.387-0.535,0-0.449c-0.558,0.526-1.381,0.791-1.684,1.572
			C109.097,70.667,109.937,70.106,110.232,69.657z"/>
		<path fill="none" d="M106.863,74.371c0.364-0.271,0.998-0.274,0.898-1.009C107.138,73.301,106.634,73.95,106.863,74.371z"/>
		<path fill="none" d="M104.731,73.362c0.388,0.199,0.737-0.009,0.897-0.337c-0.317-0.169-0.518-0.454-1.01-0.449
			C104.554,72.94,104.696,73.097,104.731,73.362z"/>
		<path fill="none" d="M101.475,71.228c0.106,0.492-0.006,1.204,0.449,1.345c0.053-0.765,1.034-0.348,1.347-0.112
			C103.588,71.542,102.409,70.937,101.475,71.228z"/>
		<path fill="none" d="M88.79,79.424c-0.346-0.44-0.565-1.008-1.235-1.123C86.902,78.909,88.23,79.693,88.79,79.424z"/>
		<path fill="none" d="M102.935,76.617c0.552,0.197,0.634,0.861,1.235,1.01c-0.112-0.597-0.573-0.85-0.449-1.685
			c0.399-0.017,0.722-0.692,1.01-0.447c-0.029,0.533-0.547,0.576-0.449,1.234c1.397,0.236,1.362-1.557,1.123-2.581
			c-0.228,0.383-1.2,0.25-1.458,0C104.209,75.571,102.812,75.335,102.935,76.617z"/>
		<path fill="#333333" d="M151.322,136.118c2.193-0.725,3.754-2.084,4.938-3.82c-0.018-0.131,0.019-0.317-0.113-0.336
			C155.096,133.904,152.202,134.005,151.322,136.118z"/>
		<path fill="#333333" d="M145.708,140.721c-0.666,0.384-1.743,0.95-1.685,1.684C144.572,141.83,145.235,141.37,145.708,140.721z"/>
		<path fill="#333333" d="M132.911,148.579c-0.805,0.244-1.327,0.771-1.796,1.348C131.832,149.598,132.539,149.256,132.911,148.579z
			"/>
		<path fill="#333333" d="M115.172,164.521c-0.537,0.586-1.363,0.884-1.684,1.684C114.113,165.782,115.139,165.165,115.172,164.521z
			"/>
		<path fill="#333333" d="M116.406,165.645c-0.508,1.12-1.272,1.992-2.021,2.918c-0.644,0.794-1.583,1.582-1.571,2.695
			C113.513,169.441,117.156,168.109,116.406,165.645z"/>
		<path fill="#333333" d="M81.38,215.461c1.423,0,2.845,0,4.266,0c0.027,0,0.032,0.084,0.054,0h-4.322
			C81.38,215.545,81.378,215.461,81.38,215.461z"/>
		<path fill="#333333" d="M85.646,204.938c4.737-0.306,8.303,1.112,12.91,0.562c-0.878,2.189-2.12,4.014-3.039,6.164h3.654
			c0.161-0.473,0.324-0.956,0.508-1.449c0.541-1.455,1.595-4.353,3.032-4.828c0.74-0.245,1.852-0.182,2.807-0.224
			c1.652-0.076,3.481,0.238,4.939,0.224c1.134-1.956-0.236-6.298-2.357-4.939c-0.125-0.475,0.264-1.46-0.225-1.57
			c-1.708-0.614-1.781,1.953-3.48,1.345c1.322-3.955,2.764-7.789,4.94-10.889c-0.097,0.658,0.114,1.009,0.337,1.345
			c0.692,0.319,2.008,0.485,2.919,0.225c0.001,0.599-0.07,1.269,0.224,1.573c0.903,0.255,1.51-0.289,2.245-0.113
			c1.294,0.308,2.272,3.29,4.603,1.908c0.765,1.041,4.078,2.515,4.267,0c-3.459-2.44-6.837-4.908-9.205-8.643
			c-0.475-0.75-2.016-3.018-1.909-4.041c0.037-0.354,0.845-1.405,1.236-2.021c3.061-4.814,5.432-10.317,9.879-13.362
			c0.055,0.692,1.128,0.37,0.897,1.348c2.551-1.265,5.993-2.715,5.613-6.624c-0.044-0.458-0.407-0.976-0.337-1.457
			c0.18-1.223,2.463-2.708,4.267-2.921c2.567-0.3,3.818,0.732,5.053,1.572c0.037-1.763-1.924-2.541-2.133-4.042
			c-0.08-0.572,0.197-1.117,0.113-1.684c-1.454-0.671-3.782,0.502-4.94-0.448c-0.106-0.435,0.438-0.462,0.111-0.786
			c-0.953,0.364-1.794,1.235-2.694,1.909c-0.825,0.618-1.804,1.648-3.031,0.897c0.633-1.687,3.271-1.968,3.482-3.704
			c-1.147,1.733-4.033,1.731-4.155,4.49c-0.58-0.724-2.123,0.802-2.133,1.237c-0.014,0.601,0.891,0.783,0.786,1.458
			c-0.058,0.386-0.949,0.895-1.123,1.01c-0.513,0.341-0.856,0.571-1.572,0.673c-2.468-1.499-4.917-3.016-6.174-5.725
			c-1.646-0.112-2.9,0.17-3.704,0.898c-4.11-4.086-9.746-6.647-13.473-11.114c2.376-1.463,4.387-3.472,4.153-6.735
			c-0.141-1.988-1.829-3.974-1.876-5.723c-0.075-2.761,2.216-3.544,4.748-4.828c0-0.749,0-1.499,0-2.245
			c1.266,0.168,2.587-0.583,2.774-1.235c0.262-0.909-0.697-1.713-0.129-2.583c1.375,0.87,2.639-0.425,3.473-1.123
			c0.176-1.149-0.524-1.426-0.566-2.357c1.314-0.445,3.416-0.1,4.376-0.899c0.391-0.88,0.128-2.416,0.672-3.14
			c8.636,1.272,11.2-8.649,7.636-14.934c1.796,0.077,3.891-0.148,5.5,0.114c0.013,4.964,1.239,9.311,0.787,14.37
			c-2.037-0.202-2.89,0.78-3.145,2.357c4.964,3.962,3.165,15.626,1.909,22.339c0.573,0.441,1.125,0.896,1.46,1.573
			c14.024-3.116,25.479-8.801,37.834-13.583c1.007,0.674,1.634,1.732,3.592,1.457c1.24-1.343,2.444-2.481,5.038-2.469
			c1.121-4.793,6.016-6.685,7.282-10.214c0-0.038,0-0.078,0-0.113c-2.532-1.925-1.233-7.434-5.259-7.86
			c-0.152-0.907-0.459-1.134-0.555-1.908c-0.54-4.402,4.077-5.438,5.223-8.418c-1.185-0.1-1.471,0.667-2.103,1.122
			c-0.361-0.2-0.771-0.338-0.998-0.674c-0.646,0.415-0.766,1.435-1.675,1.573c-0.723,0.112-1.392-0.405-2.13-0.673
			c-0.957,3.074-3.031,7.297-1.457,11.114c-0.368,0.157-0.905,0.143-1.01,0.562c-0.05,0.87,0.2,1.448,0.112,2.354
			c1.464,1.072,4.596,1.024,4.604,3.255c0.01,3.139-6.214,1.688-6.962,4.715c-0.819-0.843-2.393-0.838-3.706-0.447
			c-0.831,0.926-1.131,2.386-1.01,4.267c-11.931,2.813-21.324,8.163-33.567,10.666c0.071-1.427-0.145-3.139,0.113-4.379
			c0.639-0.258,1.89,0.094,2.133-0.561c-0.404-0.455-1.469-0.251-1.684-0.899c-0.114-0.56,0.105-0.978,0.112-1.57
			c0.033-2.663-2.084-6.267,0.561-6.96c-1.093,3.923,2.151,5.886,1.908,9.317c2.752-1.136,1.611-6.172,4.266-7.409
			c-2.007-2.587,1.491-5.566,0.113-8.533c0.885-0.412,2.248-0.861,1.796-2.246c-1.796-0.262-4.08-0.035-6.063-0.112
			c0.537-1.671-0.728-2.38-0.897-3.704c1.202,0.116,1.99-0.181,1.795-1.46c-1.05-1.131-1.916,0.525-3.254,0.45
			c-0.712-4.815,1.82-10.331-0.448-14.033c-4.703,0.083-9.499,0.23-13.473-0.45c-1.711-0.29-3.456-0.664-4.153-1.908
			c4.36-0.719,7.264-2.552,11.675-2.919c6.137-0.51,9.33,1.662,12.8,4.378c2.444,1.913,5.721,5.146,8.981,4.715
			c1.711-0.228,3.024-2.34,4.827-0.898c0.645-0.448,0.182-1.529,0.112-2.244c0.682,0.014,1.302,0.681,1.909,1.235
			c1.055,0.959,1.976,2.236,3.93,1.46c0.325-1.672-1.149-1.548-2.244-1.798c5.097-2.043,3.327,6.88,8.195,6.513
			c0.351-0.461,0.042-1.078,0-1.572c-0.401-4.645-0.915-9.169-1.123-13.694c-0.083-1.834-0.513-4.327-0.113-6.177
			c0.18-0.826,0.978-1.324,1.348-2.134c-0.446-1.431,0.046-2.938,0.112-4.49c-0.464-1.04-2.056-1.139-2.021-2.246
			c0.027-0.866,1.083-0.701,1.124-1.796c-0.267-0.55-0.763,0.17-1.347,0c-0.654-0.242-0.794-1.001-1.46-1.235
			c0.015-0.791,0.307-1.025,0.226-1.571c-0.137-0.931-1.193-1.236-1.235-1.909c-0.056-0.884,0.677-0.676,0.786-1.684
			c-0.444-0.968-1.396-0.055-2.021,0.111c-1.133-2.366,1.133-3.453,1.235-5.613c-1.668-0.658-1.767,1.228-3.031,1.345
			c-0.499-0.267-0.353-0.978-0.338-1.459c0.075-2.225,1.332-3.708,1.91-5.163c-1.144-0.457-1.771,0.438-2.47,0.784
			c-1.866-1.566-0.143-4.438,0.674-5.948c-0.68-0.821-1.562,0.143-2.47,0.113c-0.679-0.948-0.641-2.799-0.111-3.93
			c0.307-0.658,0.922-0.86,1.121-1.345c-0.386-0.723-1.37,0.056-1.795-0.113c0.016-1.858,0.843-2.899,1.347-4.267
			c-0.399-0.657-1.057-0.989-1.459-1.684c-0.913-1.579-1.097-3.678-2.694-4.603c-0.502,0.131-0.873,0.396-1.571,0.337
			c-0.491-0.442,0.515-1.333-0.224-1.348c-0.839-0.279-0.479,1.001-0.787,1.459c-0.393-0.094-0.276-0.696-0.673-0.785
			c-0.687,0.011-1.04-0.116-1.604-0.225c-1.112-1.844-0.562-5.741-1.829-6.848c0-0.037,0-0.658,0-0.658c-1.266,0-1.133,0-1.506,0
			c-0.586,1.266-0.942,1.5-2.246,1.283c0.094,2.072,0.36,4.837-1.123,5.637c-0.406,0.177-0.645-0.225-1.235-0.268
			c-0.932-0.072-1.87,0.396-2.247-0.417c0.057,0.656-0.192,1.021-0.561,1.253c-0.907,0.083-1.495-0.143-2.133-0.33
			c-0.196,0.807-0.083,1.231-0.224,1.803c-0.424,1.728-2.569,2.566-2.693,4.152c-0.092,1.143,0.755,2.101,1.347,3.034
			c0.616,0.972,1.091,1.896,1.459,3.033c-0.574,0.313-1.631-0.686-2.245,0c-0.061,0.707,0.661,1.368,1.01,2.135
			c0.38,0.835,0.718,1.729,0.337,2.695c-1.249-0.03-2.501-0.849-3.705-0.225c-0.163,0.444,0.402,0.866,0.673,1.345
			c0.621,1.103,0.748,2.117-0.112,2.921c-0.39-0.027-0.845-0.42-1.124-0.673c-2.856-2.593-6.323-6.901-12.011-5.276
			c1.318,1.313,1.906,4.2,2.583,6.512c-0.745-0.236-1.389-0.236-2.133,0c-0.408,0.775-0.38,1.462-0.898,2.02
			c-1.136,1.225-3.468,1.237-4.377,2.698c0.047,1.338-0.184,2.951,0.337,3.816c-3.739,0.818-4.329,7.399-2.358,10.666
			c-4.63,0.046-9.036,0.319-11.789,2.246c-0.625-0.408-1.932-0.69-2.807-0.341c-0.711,0.289-0.54,1.154-1.123,1.348
			c-2.454-0.208-3.324,1.168-4.267,2.47c-6.592,2.913-11.532,7.478-15.941,12.574C66.195,86.6,56.77,87.436,49.046,85.72
			c-0.731,0.069-1.468,1.162-1.468,2.02c0,0.45,0,0.898,0,1.347c1.266,3.778,5.071,5.193,6.409,9.095
			c-0.968,0.154-2.238,0.116-2.017,1.459c0.715,0.413,1.285-0.23,1.967-0.224c0.47,0.822,0.613,1.733,0.983,2.583
			c0.367,0.838,0.777,1.656,1.107,2.467c-1.713,0.535-3.361,1.136-4.609,2.136c0.865,1.081,2.12,1.767,3.252,2.582
			c2.64,8.961,9.71,13.49,14.706,20.096c-1.072-0.256-2.848-0.027-3.034,1.01c-0.194,1.084,1.18,1.408,1.01,2.695
			c3.799,0.203,4.759,3.249,7.41,4.602c0.042,0.449-0.104,1.08,0.111,1.348c0.568,1.009,2.082,0.804,2.245,2.021
			c0.122,0.894-1.031,1.606-0.897,2.582c0.156,1.144,1.403,1.009,2.245,1.909c-1.188,1.442-0.977,4.649,0.899,5.166
			c-0.393,0.588-0.993,0.882-1.123,1.683c-0.223,1.38,0.763,2.739,1.572,3.368c-0.32,0.167-0.842,0.131-1.011,0.448
			c-0.033,0.679-0.516,0.909-0.787,1.348c0.064,1.507,1.799,1.346,1.909,2.806c-0.34,0.379-0.99,0.239-1.46,0.449
			c-1.366,0.61-1.532,2.292-1.795,4.039c-2.972,0.433-4.366,2.448-6.512,3.708c0.594,3.521,4.473,3.76,5.951,6.399
			c-0.104,0.821-0.37,1.241-0.337,2.02c0.058,1.364,1.11,2.486,1.011,3.706c-0.037,0.456-0.601,1.134-0.563,1.571
			c0.081,0.922,1.547,0.902,1.347,1.91c-0.111,0.565-0.224,0.046-0.786,0.338c-0.207,0.106-0.481,0.386-0.563,0.673
			c-0.215,0.775,0.563,1.424,0.897,2.243c1.086,2.654,0.326,6.035,0.449,9.655c0.016,0.886,3.192,1.006,3.256,1.796
			c0.029,0.372-1.993,1.335-2.358,1.571c-0.986,0.643-1.434,1.102-1.795,2.021c-0.108,0.486,0.421,0.33,0.448,0.673
			c-0.054,0.429,0.031,0.717,0.226,0.898c0.697,0.201,1.793,0.002,2.47,0.226c0.086,0.738-0.5,1.357-0.897,1.91
			c-1.209,1.669-2.754,3.356-3.704,5.389c0.747,0.488,1.369,1.1,2.246,1.458c1.443-1.249,1.708-3.679,3.817-4.265
			c0.114,0.932,0.13,1.967,0.125,3.02h4.539C85.748,209.455,85.276,207.174,85.646,204.938z M133.246,153.297
			c0.677-0.115,1.582-0.098,1.797,0.67c-2.515-0.119-3.597,1.194-4.94,2.246C129.804,155.201,132.199,153.468,133.246,153.297z
			 M177.255,120.737c-0.03,0.906-0.833,1.039-1.684,1.125C175.737,121.121,176.514,120.545,177.255,120.737z M172.54,123.095
			c-0.108,0.79-0.798,0.996-1.795,0.897C170.851,123.203,171.567,123.022,172.54,123.095z M171.082,119.84
			c-0.008,0.852-0.78,0.942-1.686,0.897C169.403,119.884,170.176,119.795,171.082,119.84z M140.319,116.921
			c-0.679-0.706-1.541-1.229-2.247-1.909C139.184,114.486,140.528,115.406,140.319,116.921z M139.309,111.868
			c-0.185,0.413-0.524,0.675-0.448,1.347c-0.513-0.238-0.92-0.576-0.899-1.347C138.41,111.868,138.859,111.868,139.309,111.868z
			 M138.748,118.492c-0.31,1-1.255,1.365-1.347,2.583c-1.815-0.614,0.239-2.169,0.561-3.034
			C138.328,118.089,138.551,118.277,138.748,118.492z M136.502,112.318c0.396,0.052,0.615,0.284,0.897,0.447
			c-0.102,0.198-0.251,0.348-0.449,0.449C136.535,113.2,136.214,112.688,136.502,112.318z M134.258,114.674
			c0.666-0.027,0.867,0.407,1.347,0.563C135.451,116.146,133.58,115.574,134.258,114.674z M129.542,114.674c0-0.295,0-0.597,0-0.897
			c0.188,0,0.374,0,0.561,0c0.259,0.303,0.391,0.732,0.337,1.348C130.135,114.979,130.042,114.625,129.542,114.674z M165.916,71.453
			c-0.257,0.177-0.546-0.572-0.786-0.787c-0.44-0.045-0.929-0.043-1.01-0.447C165.183,70.165,165.42,70.938,165.916,71.453z
			 M164.232,71.228c0.949,0.042,0.879,1.231,0.449,1.796C164.022,72.934,164.281,71.928,164.232,71.228z M164.12,73.585
			c0.181-0.028,0.193,0.106,0.337,0.113c0.08,0.566-0.202,0.771-0.337,1.125C163.442,74.566,164.145,74.136,164.12,73.585z
			 M165.13,75.046c0.306-0.082,0.227,0.222,0.448,0.224c-0.06,0.818-0.975,1.321-1.796,1.013
			C163.847,75.482,165.208,75.984,165.13,75.046z M158.732,83.914c-0.167,0.952,1.823,1.202,1.236,2.583
			c-2.815-1.828-4.338-4.944-5.951-7.972c2.215,1.678,4.111,4.647,7.297,5.727C160.64,85.737,159.634,83.533,158.732,83.914z
			 M162.661,67.41c0.523-0.032,0.624,0.349,1.009,0.45c-0.081,0.254-0.338,0.335-0.561,0.448
			C162.693,68.293,162.411,67.743,162.661,67.41z M162.773,70.217c-0.473-0.129-0.318-0.879-0.898-0.897
			C162.194,68.103,163.81,69.719,162.773,70.217z M161.201,63.369c0.696-0.084,0.629,0.82,0.337,1.123
			C161.159,64.323,160.749,63.719,161.201,63.369z M162.211,71.228c-0.136,0.5-0.616,0.656-0.897,1.011
			c0.127,0.283,0.498,0.325,0.897,0.336c-0.101,0.349-0.116,0.782-0.561,0.786C160.497,73.117,160.896,70.559,162.211,71.228z
			 M162.211,74.035c-0.567,0.444-1.183,0.838-2.133,0.898c0.249-0.479,0.226-0.765,0-1.235
			C160.84,73.39,161.314,74.127,162.211,74.035z M158.619,66.075c0.562,0,1.123,0,1.685,0c-0.22,1.266-0.859,1.016-1.657,1.116
			c0.127,0.736,1.598,0.841,1.598,1.345c0,0.261,0,0.523,0,0.786c0,0.182-1.002,0.404-1.598,0.448
			c0.471-0.262,0.453-1.682-0.182-1.796c-0.413,0.037-0.135,0.797-0.597,0.785c-0.075-0.413-0.235-0.976-0.242-1.454
			C158.405,67.41,158.492,67.341,158.619,66.075z M157.607,75.046c0.307-0.082,0.227,0.222,0.45,0.224
			c-0.015,0.866-0.99,1.306-1.796,1.013C156.325,75.482,157.688,75.984,157.607,75.046z M155.588,74.708
			c-0.072-1.22,1.542-0.531,1.459,0.225C156.476,74.942,155.875,74.982,155.588,74.708z M157.159,70.779
			c0.063,0.624-0.337,0.786-0.561,1.124c0.026,0.197,0.192,0.255,0.449,0.227c0.02,0.281-0.172,0.348-0.336,0.447
			C155.997,72.474,155.973,70.336,157.159,70.779z M156.261,65.615c0.66,0.71-0.597,1.787-1.459,1.347
			C154.709,65.934,156.159,66.45,156.261,65.615z M155.252,45.855c-0.85-0.047-0.266-1.53-1.347-1.346
			C154.565,43.783,156.259,45.25,155.252,45.855z M154.353,48.774c0.28-0.018,0.347,0.177,0.561,0.226
			c-0.37,0.453-0.728,0.922-1.459,1.01C153.504,49.349,154.398,49.532,154.353,48.774z M153.342,51.469
			c-0.531-0.182-0.792-0.631-0.897-1.235C153.067,50.324,153.366,50.734,153.342,51.469z M153.342,65.951
			c-0.531-0.183-0.792-0.629-0.897-1.237C153.02,64.851,153.395,65.186,153.342,65.951z M151.771,53.827
			c0.574,0.161,1.095,0.894,1.011,1.345c-0.661-0.049-0.478-0.943-1.236-0.897C151.604,54.109,151.712,53.992,151.771,53.827z
			 M151.546,57.419c0.458,0.29,0.78,0.716,0.786,1.459C151.825,58.665,151.047,57.943,151.546,57.419z M154.24,74.146
			c-1.234,0.649-1.492-1.355-3.031-1.122C152.176,71.909,153.565,73.554,154.24,74.146z M150.647,89.752
			c0.881,0.13,1.868,0.115,2.358,0.673c-1.991,0.027-4.939,0.113-5.838-1.125c-0.108-0.148-0.97-1.873,0.337-1.796
			c0.461,0.325,0.195,1.377,0.563,1.796C148.781,89.578,149.752,89.617,150.647,89.752z M148.851,85.486
			c-0.479-1.206-2.616-0.753-2.92-2.134C147.704,83.208,149.269,83.813,148.851,85.486z M143.575,68.87
			c0.147,0.04,0.177,0.198,0.337,0.226c0.047,0.533-0.384,0.589-0.337,1.121C142.909,69.978,143.472,69.306,143.575,68.87z
			 M141.667,72.126c0.933,0.185,0.81-0.688,1.796-0.45c0.743,0.32,0.75,2.412-0.225,2.135c-0.081-0.568,0.308-0.664,0.337-1.125
			c-1.7-0.958-1.905,1.749-0.561,1.798C142.065,75.667,141.439,73.516,141.667,72.126z M140.095,67.86
			c0.108,0.002,0.086,0.135,0.111,0.224c-0.179,0.758-1.165,0.706-1.684,1.124c-0.068,0.269-0.161,0.512-0.112,0.898
			C137.479,69.094,139.095,68.03,140.095,67.86z M137.512,40.13c-0.447,0.219-0.963-0.455-0.898-1.123
			C137.259,39.037,137.313,39.658,137.512,40.13z M135.492,44.62c0.414,0.076,0.589,0.387,0.673,0.787
			c-0.235,0.065-0.32,0.279-0.673,0.224c-0.051-0.098-0.099-0.197-0.226-0.224C135.139,44.941,135.503,44.97,135.492,44.62z
			 M136.391,80.097c-0.094,0.439-1.061,0.651-1.347,0.224C135.036,79.819,136.096,79.941,136.391,80.097z M114.049,107.603
			c-0.437-0.313-0.663-0.834-0.898-1.345c-0.202-0.287-0.688-0.285-0.785-0.673C113.617,105.501,114.373,106.479,114.049,107.603z
			 M112.366,82.343c0.942-1.301,3.612-1.852,5.837-2.243C116.869,81.458,114.16,81.444,112.366,82.343z M115.284,79.536
			c0.081-0.479,0.214-0.909,0.337-1.345c0.776,0.138,1.099-0.175,1.573-0.338C116.991,78.849,115.9,78.955,115.284,79.536z
			 M123.368,76.729c-0.166-0.058-0.284-0.166-0.449-0.224c0.063-0.65,0.948-0.475,1.01-1.125c0.166,0.059,0.284,0.167,0.449,0.226
			C124.126,76.066,123.477,76.129,123.368,76.729z M125.164,78.077c0.815-1.546,4.074-1.615,5.95-2.472
			C129.892,77.191,127.132,77.237,125.164,78.077z M130.216,49.448c-0.389,0.22-0.808-0.347-1.46-0.224
			C128.326,48.631,130.598,48.437,130.216,49.448z M126.285,49.673c0.297,0.565,0.534,1.188,0.45,2.136
			c-0.318-1.188-1.845-2.277-2.358-0.34C123.777,50.497,125.169,49.669,126.285,49.673z M124.377,49.224
			c-0.228,0.969-1.514,0.877-1.459,2.133C122.317,50.417,123.202,49.124,124.377,49.224z M121.572,62.809
			c-0.102,1.096-0.701,1.694-1.796,1.795C119.326,63.392,120.432,62.804,121.572,62.809z M118.765,59.439
			c-0.397-0.052-0.396-0.5-0.898-0.447c0-0.299,0-0.601,0-0.899c0.188,0,0.374,0,0.562,0
			C118.676,58.406,118.791,58.852,118.765,59.439z M116.519,64.155c0.566-0.032,1.373,0.175,1.347-0.448
			c0.313,0.136,0.62,0.279,0.786,0.561c-0.367,0.755-1.07,1.176-2.133,1.235C116.519,65.054,116.519,64.604,116.519,64.155z
			 M115.284,63.594c0.37-0.716,1.485-0.684,2.47-0.785C117.265,63.406,116.295,63.52,115.284,63.594z M117.866,57.532
			c-1.403,0.696-2.167-0.602-3.256-0.899C115.125,55.067,118.085,55.757,117.866,57.532z M115.62,58.542
			c0.427-0.09,0.144,0.531,0.226,0.787c0.206,0.504,0.669,0.751,0.561,1.571c-0.916,0.365-1.513-0.388-1.908-0.897
			c-0.419-0.121-0.177,0.42-0.562,0.336C113.246,59.255,114.824,58.848,115.62,58.542z M113.039,63.931
			c1.065,0.804,3.34,1.16,2.47,3.033c-1.738-0.582-2.867-1.772-3.256-3.704C112.64,63.206,112.708,63.682,113.039,63.931z
			 M121.908,74.708c-4.218-0.233-5.537,2.965-9.991,2.132C113.687,74.509,118.918,71.778,121.908,74.708z M86.544,189.444
			c-0.337,0-0.674,0-1.011,0c0.064-0.534,0.402-0.796,0.562-1.236C86.781,188.173,86.943,189.025,86.544,189.444z M86.208,162.501
			c-0.095-0.281-0.147-0.601-0.111-1.01c0.754,0.441,2.403-0.01,2.245,1.345C87.466,162.889,86.699,162.833,86.208,162.501z
			 M86.431,164.41c-0.122,0.612-1.395,0.348-1.458-0.112c-0.014-0.202,0.137-0.237,0.111-0.448
			C85.791,163.777,86.026,164.178,86.431,164.41z M84.635,154.418c0.151,0,0.3,0,0.45,0c0.118,0.679-0.26,0.863-0.336,1.345
			C84.49,155.537,84.707,154.833,84.635,154.418z M84.748,147.794c1.667-2.093,4.333,0.326,5.95,1.01
			C89.552,150.63,87.351,146.392,84.748,147.794z M84.299,116.472c0.187-0.598,0.829-0.742,1.57-0.783
			C85.499,116.1,85.101,116.488,84.299,116.472z M84.748,118.941c-0.083-0.104-0.204-0.169-0.337-0.224
			c0.371-0.303,0.785-0.564,0.897-1.124C85.746,117.874,85.276,118.909,84.748,118.941z M84.748,122.646
			c0.211,0.351,0.286,0.836,0.785,0.9c-0.229,0.777-0.416,1.604-1.347,1.683c-0.008-0.718,0.669-0.755,0.898-1.237
			c-0.106-0.378-0.382-0.588-0.562-0.897c-0.75,0.25,0.389,0.882-0.224,1.346c-0.389,0.088-0.475-0.126-0.674-0.227
			C83.79,123.484,83.786,122.582,84.748,122.646z M83.849,141.057c1.169-0.477,1.136,1.173,2.133,1.237
			c-0.766,1.183-1.268-0.796-2.133-0.898C83.849,141.282,83.849,141.171,83.849,141.057z M86.544,122.422
			c0.579,0.102,0.441,0.977,0.336,1.459C86.429,123.734,86.56,123.003,86.544,122.422z M87.442,114.788
			c0.183-0.03,0.194,0.106,0.336,0.114c0.082,0.566-0.307,0.663-0.336,1.124C86.735,115.852,87.39,115.196,87.442,114.788z
			 M93.953,95.366c-0.564-0.099-1.315-1.573-0.785-2.47C93.818,93.329,93.489,94.745,93.953,95.366z M93.617,85.149
			c0.434,0.277,0.59,0.829,0.787,1.345C94.048,86.139,93.784,85.692,93.617,85.149z M93.055,102.789
			c0.243,1.266,1.056,2.792,1.796,3.921c-0.783,0.057-1.043-0.834-1.347-1.397c-0.393-0.727-0.794-1.256-0.787-2.522
			C92.831,102.789,92.943,102.789,93.055,102.789z M96.311,80.771c-1.234-0.051-0.594-2.704,0.674-2.583
			c0.201-0.032,0.229,0.106,0.112,0.112C96.79,79.004,95.869,79.692,96.311,80.771z M96.535,83.673
			c0.399,0.281,1.147,0.602,1.011,1.13c-0.88-0.13-1.159-1.042-1.685-1.527c-0.305-0.219-0.98,0.523-1.01-0.743
			c0.074,0,0.149,0,0.224,0C95.611,82.533,96.067,83.341,96.535,83.673z M97.209,79.424c0.41-0.301,0.957,0.039,1.347,0.112
			c-0.159,0.364-0.583,0.464-1.123,0.449C97.386,79.771,97.112,79.782,97.209,79.424z M94.852,112.429
			c-0.135-0.215,0.09-1.03,0-1.571c-0.165-0.246-0.298-0.525-0.787-0.449C94.866,108.955,96.188,112.034,94.852,112.429z
			 M95.413,139.935c0,0.3,0,0.6,0,0.898c-0.448,0-0.898,0-1.348,0c0-0.298,0-0.599,0-0.898
			C94.515,139.935,94.964,139.935,95.413,139.935z M93.953,113.665c-0.145,0.192-0.232,0.444-0.562,0.45
			c-0.386-0.027-0.489-0.337-0.561-0.674C93.26,113.093,93.58,113.605,93.953,113.665z M94.402,139.486
			c-1.357,0.121-1.418-1.052-1.347-2.358C94.384,137.035,94.048,138.605,94.402,139.486z M95.413,147.906
			c0.256-0.08,0.337-0.337,0.449-0.559c-0.167-1.029-1.029-1.366-1.347-2.245c1.295,0.852,3.619,2.706,2.471,4.939
			c-0.435,0.313-1.264-0.837-1.573,0c-0.524-1.24-0.792-2.659-1.572-3.593c-0.355-0.426-0.865-0.521-1.123-1.013
			C94.224,144.85,95.215,146.463,95.413,147.906z M98.556,168.227c-0.128-0.319,0.224-1.124,0.224-1.684
			c0.359,0.165,0.362,0.686,0.45,1.123C99.197,168.044,98.592,167.85,98.556,168.227z M98.668,171.706
			c-0.458-0.249-0.926-0.496-0.898-1.235C98.449,170.503,98.563,171.101,98.668,171.706z M98.556,162.837
			c-0.884-0.288-0.104-1.294,0.111-1.796c0.202-0.015,0.238,0.138,0.45,0.112C99.178,161.961,98.41,161.942,98.556,162.837z
			 M98.219,166.655c-0.049,0.6-1.129,0.535-1.459,0.226c-0.159-0.347-0.051-0.506,0.113-0.787
			C97.459,166.143,97.663,166.574,98.219,166.655z M89.125,191.465c0.722-0.425,1.788-1.193,1.685-2.243
			c-0.064-0.661-0.642-0.882-0.898-1.238c0.08-0.967,1.4-0.693,1.797-1.345c0.155-1.464-1.445-1.177-1.46-2.468
			c0.008-0.526,0.257,0.13,0.448,0.112c0.597-0.002,0.722-0.476,1.459-0.338C93.275,186.87,92.879,191.707,89.125,191.465z
			 M92.493,193.712c-0.365,0.064-0.522-0.081-0.786-0.114c-0.26-0.748,0.421-1.323,0.449-2.136c0.112,0,0.224,0,0.337,0
			C92.797,192.16,92.403,192.881,92.493,193.712z M89.35,162.389c1.581,0.178,2.486,1.03,2.694,2.582
			C90.986,164.268,89.808,163.69,89.35,162.389z M91.035,166.317c-0.812-0.721-2.503-0.563-2.583-2.02
			C90.009,164.275,90.754,165.063,91.035,166.317z M87.218,155.653c-0.342-0.108-0.671-0.228-1.01-0.337
			c1.186-0.912,2.508,0.619,2.583,1.908c1.197-0.485,0.474-2.895,2.245-2.806c-1.665,1.31-1.547,5.49-0.113,6.96
			C88.981,160.539,89.043,156.837,87.218,155.653z M88.678,153.297c0.725-0.052,0.833,0.51,1.01,1.01
			C89.191,154.128,88.626,154.02,88.678,153.297z M89.238,154.979c-0.393,0.837-1.572-0.039-1.347-0.899
			C88.589,154.131,88.644,154.825,89.238,154.979z M88.901,151.61c-0.609-0.626-1.099-1.371-1.908-1.797
			c-0.571-0.228-0.861,0.401-1.011,0.226c-0.064-0.07-0.263-0.533,0-0.561c1.426-0.291,2.743,0.469,3.255,1.46
			C89.243,151.279,89.001,151.375,88.901,151.61z M89.35,152.621c0.864-1.292,1.811,1.06,3.032,0.448
			C92.07,154.487,90.057,153.142,89.35,152.621z M90.811,150.264c0.641-0.239,1.24,0.458,1.684,0.786
			c0.489,0.16,0.517-0.385,0.786-0.112c-0.002,0.263,0.193,0.33,0.111,0.672C92.355,152.175,90.599,151.281,90.811,150.264z
			 M90.585,134.547c-0.716-1.508,0.419-2.995,0.561-4.379C92.085,131.515,90.343,132.804,90.585,134.547z M91.258,137.017
			c-0.354-0.141-0.45-0.984-0.224-1.348C91.897,135.653,91.507,136.647,91.258,137.017z M92.044,143.189c0,0.301,0,0.6,0,0.9
			c-0.262,0-0.524,0-0.786,0c0-0.3,0-0.6,0-0.9C91.521,143.189,91.783,143.189,92.044,143.189z M95.861,153.857
			c-0.921-0.427-2.821,0.129-2.806-1.236C94.469,152.554,95.733,152.637,95.861,153.857z M94.065,150.825
			c1.487-0.604,1.865,0.682,2.694,1.345c0.344,0.277,0.663,0.108,0.787,0.562C95.773,153.139,94.955,151.672,94.065,150.825z
			 M92.831,138.998c-1.188,0.234-0.766-2.027-0.338-3.293c0.113,0,0.225,0,0.338,0c0.354,1.266-0.357,1.55-0.45,2.265
			C92.4,138.382,93.091,138.656,92.831,138.998z M93.392,146.896c0.349,0.365,0.482,1.536,0.226,2.136
			c0.26,0.604,0.38,0.839-0.112,1.234c-0.729-0.543-0.202-2.344-0.897-2.919c-0.225,0.114-0.479,0.192-0.562,0.448
			c0.165,0.684,0.857,1.097,0.562,1.909c-0.494-0.705-1.363-1.031-1.348-2.244C92.261,147.562,92.296,146.698,93.392,146.896z
			 M91.595,119.278c-0.677-0.255,0.025-0.684,0-1.238c0.307-0.079,0.226,0.223,0.448,0.224
			C91.975,118.684,91.729,118.925,91.595,119.278z M89.688,118.38c-0.03-0.819,1.237-0.546,1.796-0.449
			C91.473,118.667,90.341,118.286,89.688,118.38z M90.137,119.391c-0.362,0.41-0.999,0.937-1.573,0.786
			C88.726,119.553,89.466,119.506,90.137,119.391z M90.248,144.65c-0.316,0.988-1.329,0.089-1.011-0.897
			C89.811,143.816,89.613,144.65,90.248,144.65z M85.421,157.224c0.757,0.067,0.8,0.846,1.459,1.011
			c0.196-0.104,0.032-0.352,0.009-0.674c-0.147-0.414-0.074-0.282-1.339-0.559c0-0.187,0-0.373,0-0.562
			c2.532,0.386,2.875,2.297,2.574,4.49c-1.008-0.02-0.997-1.161-2.026-0.558C86.816,158.88,84.792,158.264,85.421,157.224z
			 M88.228,166.205c0.223,0.263,0.042,0.931,0.336,1.125c0.583,0.013,1.401-0.787,1.573,0.113c-0.389-0.089-0.475,0.125-0.674,0.226
			c-0.113,0.824,0.175,1.247,0.225,1.908c-0.304,0.271-0.398-0.346-0.897-0.225c-0.367,0.081-0.338,0.559-0.449,0.897
			C86.771,169.877,87.507,166.921,88.228,166.205z M90.698,169.461c0.261,0.277-0.378,1.146-0.673,1.46
			c-0.985,1.048-2.856,2.05-4.378,2.241C87.106,171.706,89.963,171.646,90.698,169.461z M87.442,180.688
			c-0.146,0.751-0.3,1.496-1.347,1.345C86.151,181.192,86.382,180.525,87.442,180.688z M87.105,174.177
			c0.305,0.445,0.51,1.665,0.113,2.137C86.539,176.056,86.984,174.677,87.105,174.177z M86.881,185.628
			c-0.382-0.008-0.172,0.576-0.561,0.56c-0.314-0.321-0.212-1.06-0.224-1.684c0.418,0.105,0.624,0.425,1.233,0.34
			C87.413,185.337,86.966,185.302,86.881,185.628z M86.655,182.485c0.01-0.658,1.338-0.497,1.796-0.34
			C88.42,182.823,87.145,182.611,86.655,182.485z M88.452,199.773c0.09-2.083,2.38-1.962,2.694-3.82
			c0.58,1.48,1.457,2.663,2.583,3.593C92.305,198.892,90.391,199.698,88.452,199.773z M93.055,193.373
			c0.181-0.028,0.192,0.108,0.336,0.114c0.082,0.568-0.307,0.666-0.336,1.125C92.349,194.438,93.003,193.783,93.055,193.373z
			 M93.505,171.258c-0.517-0.232-0.443-1.054-0.448-1.796c0.287,0.049,0.516,0.157,0.673,0.337
			C93.922,170.161,93.434,170.66,93.505,171.258z M91.708,159.021c0.042,1.494,1.301,1.768,1.348,3.255
			c-2.793-0.813-3.045-7.028,0-7.745c0.202,1.099-0.866,0.931-1.011,1.684c0.62-0.057,1.54-0.78,2.021-1.348
			c-0.244,1.24-2.301,4.603-0.112,5.617C92.748,162.187,92.811,157.418,91.708,159.021z M97.433,154.418
			c-0.921,0.972-2.529,2.054-2.694,4.152c-0.044,0.564,0.048,1.1,0.113,1.798C92.074,158.492,94.957,154.513,97.433,154.418z
			 M97.883,155.877c0.392,0.11-0.023,0.681-0.112,0.898c-0.347,0.835-1.022,1.94-1.909,2.246
			C96.011,157.448,96.52,156.235,97.883,155.877z M94.515,163.062c-0.311-1.751,1.965-2.92,3.48-3.369
			C97.136,161.119,94.841,161.106,94.515,163.062z M95.861,162.389c0.299,0,0.6,0,0.898,0c0,0.299,0,0.598,0,0.899
			c-0.298,0-0.599,0-0.898,0C95.861,162.987,95.861,162.688,95.861,162.389z M96.199,174.4c-0.041-0.563,0.029-1.02,0.225-1.346
			C96.866,173.1,97.057,174.683,96.199,174.4z M96.199,170.247c-0.783-0.425,0.133-1.521,1.01-1.346
			C97.047,169.523,96.516,169.778,96.199,170.247z M97.321,181.249c0.952,0.791,1.077-0.854,2.245-0.558
			c0.182,1.604-1.696,1.146-1.459,2.806C96.765,183.594,97.416,182.247,97.321,181.249z M103.608,195.508
			c-0.884,1.787-1.651,3.539-3.592,4.265c-1.136-1.107,0.809-1.768,1.01-2.696c0.457-2.099-1.415-2.982-3.256-3.365
			c-0.534-3.717-0.93-8.924,1.236-11.116c2.597,0.971,0.187,3.586-0.786,4.604c1.865-0.905,2.389-3.148,4.603-3.706
			c0.06,2.297,1.75,2.965,3.817,3.255C106.54,190.136,104.861,192.974,103.608,195.508z M101.027,172.605c0-0.262,0-0.524,0-0.786
			c0.299,0,0.6,0,0.898,0c0,0.262,0,0.524,0,0.786C101.624,172.605,101.326,172.605,101.027,172.605z M103.832,172.157
			c0-0.3,0-0.6,0-0.899c0.299,0,0.6,0,0.898,0c0,0.299,0,0.599,0,0.899C104.433,172.157,104.133,172.157,103.832,172.157z
			 M108.099,180.239c-0.686-0.617,0.382-1.25,0.786-0.56C108.715,179.957,108.5,180.19,108.099,180.239z M109.222,181.924
			c-0.345-0.453,0.195-0.802,0.224-1.235c0.148,0.036,0.178,0.194,0.338,0.224C109.704,181.358,109.61,181.788,109.222,181.924z
			 M113.488,187.424c-0.542-0.131-0.016-1.332-0.673-1.345C113.484,185.7,113.999,186.886,113.488,187.424z M123.928,159.468
			c0.271-0.353,0.393-0.716,0.449-1.236c0.409-0.034,0.731,0.018,1.01,0.113c0.301,0.372,0.479,0.87,0.448,1.571
			c-1.922-0.013-2.425,1.393-3.367,2.358C120.9,161.225,123.167,160.462,123.928,159.468z M119.212,159.132
			c-0.382,1.125-1.583-0.495-1.684-0.673C118.041,157.591,118.481,159.162,119.212,159.132z M117.305,161.828
			c-0.501-0.174-0.835-0.515-0.787-1.235C116.979,160.805,117.379,161.08,117.305,161.828z M115.958,156.326
			c-0.334,0.975-1.559,0.044-1.459-0.786C115.091,155.284,115.264,156.319,115.958,156.326z M114.499,158.909
			c-0.595,0.518-1.446-0.244-1.348-1.123C113.771,157.99,114.167,158.417,114.499,158.909z M111.242,155.979
			c-0.078,2.176,0.779,3.778,1.459,5.044c0.787,0,1.573,0,2.358,0c-0.084,1.266,1.184,1.37,0.897,3.039
			c0.45,0.225,1.176,0.064,1.686,0.23c0.379,0.49-0.358,0.586-0.226,1.182c1.364-0.02,1.88-2.546,3.256-1.147
			c-0.23,3.191-2.719,5.142-4.491,7.621c-1.939,2.715-2.917,6.475-5.726,8.188c-0.531-1.603-1.173-3.094-1.908-4.494
			c1.292-1.251,2.788-2.301,3.704-3.929c-1.943,0.563-2.125,3.586-4.603,3.367c-0.604-3.782,3.363-4.842,4.603-7.523
			c-2.575,0.978-2.761,4.35-5.613,5.053c0.037-1.571-1.62-1.451-2.357-2.247c1.396-3.742-2.729-4.521-2.919-7.519
			c-0.025-0.408,0.174-0.924,0.112-1.346c-0.134-0.919-0.897-1.909-1.236-3.032c-0.965-3.213-1.289-7.345-2.021-10.896
			C103.058,149.836,106.618,153.497,111.242,155.979z M99.454,141.507c-1.794,2.916-3.189-3.189-2.693-5.612
			C97.781,137.252,101.29,139.376,99.454,141.507z M100.465,135.669c-0.263,0-0.524,0-0.787,0c0-0.297,0-0.6,0-0.899
			c0.262,0,0.524,0,0.787,0C100.465,135.07,100.465,135.371,100.465,135.669z M97.771,130.617c1.167,0.18,0.869,1.823,1.684,2.356
			c0.427-0.061,0.495-0.479,0.561-0.899c0.395,0.131,0.713,0.337,0.674,0.899C99.006,133.832,96.782,132.439,97.771,130.617z
			 M103.721,119.727c-0.713,0.746-2.03,0.89-2.357,2.02c0.086,0.329,0.177,0.649,0.45,0.787c-1.22,0.84-1.801,2.316-3.032,3.144
			c0.39-0.779,0.231-2.215,0-3.034c0.4,0.29,1.007,0.015,1.235-0.224c0.125-0.911-0.25-1.322-0.336-2.021
			c1.561-1.508,3.052-3.087,4.041-5.164c1.015,0.032,1.004,1.092,1.796,1.346C104.688,117.257,102.299,118.239,103.721,119.727z
			 M99.23,76.729c-0.057-1.03,1.071-0.875,1.684-1.234c0.406,1.082-1.722,1.66-0.897,3.593c-0.334-0.04-0.57-0.182-0.786-0.34
			c-0.09-0.874,0.52-1.052,0.673-1.684C99.969,76.664,99.571,76.724,99.23,76.729z M99.679,85.149
			c-0.228,0.032,0.023-0.327,0.113-0.339c1.235-0.674,3.146-0.669,4.715-1.011C104.326,85.232,100.874,84.359,99.679,85.149z
			 M105.742,99.518c-0.985,0.113-0.642-2.042-1.797-2.132C104.801,96.814,105.659,98.476,105.742,99.518z M104.282,109.062
			c-0.463-0.397-1.156-0.566-1.347-1.236c0.589,0.124,0.923,0.5,1.347,0.785c0.618,0.056,1.471-0.124,1.908,0.115
			C106.062,109.343,104.917,108.949,104.282,109.062z M107.538,80.995c-0.337-1.237,0.954-0.84,1.796-0.897
			C109.048,80.709,108.293,80.854,107.538,80.995z M107.538,79.424c0.043-0.622,0.894-0.938,1.347-0.786
			C108.748,79.211,108.173,79.349,107.538,79.424z M109.895,76.168c-0.316,0.229-0.46,0.2-0.897,0.115
			c-0.23-0.7,0.294-1.163,0.448-1.798c0.81,0.185,1.672,1.313,1.01,2.244c-0.727-0.095-0.386-1.259-0.673-1.795
			C109.067,75.037,109.912,75.73,109.895,76.168z M110.232,105.694c-0.17-0.882-0.01-1.798-0.337-2.47
			c-0.208-0.428-0.625-0.479-0.787-0.898C110.466,102.316,111.495,104.859,110.232,105.694z M111.242,70.779
			c0.211,0.773-0.357,0.765-0.448,1.237c-0.306-0.482-0.833-0.738-1.236-1.126C109.975,70.709,110.662,70.798,111.242,70.779z
			 M110.232,69.208c0.387-0.084-0.024,0.487,0,0.449c-0.295,0.448-1.135,1.01-1.684,1.123
			C108.851,69.998,109.674,69.733,110.232,69.208z M108.436,77.18c-0.226,0.259-0.335,0.636-0.897,0.559
			c-0.159-0.149-0.159-0.637,0-0.786C107.977,76.889,108.188,77.051,108.436,77.18z M106.863,74.371
			c-0.231-0.42,0.274-1.069,0.898-1.009C107.861,74.096,107.229,74.1,106.863,74.371z M107.088,69.319
			c-0.316,1.104-2.688,0.755-1.909,2.582C103.362,71.567,104.957,68.727,107.088,69.319z M105.628,73.024
			c-0.161,0.329-0.51,0.537-0.897,0.337c-0.035-0.265-0.177-0.422-0.112-0.786C105.11,72.571,105.311,72.855,105.628,73.024z
			 M103.945,74.146c0.258,0.251,1.231,0.384,1.459,0c0.239,1.028,0.274,2.818-1.123,2.582c-0.098-0.661,0.42-0.701,0.449-1.234
			c-0.288-0.244-0.612,0.432-1.01,0.447c-0.124,0.835,0.337,1.086,0.449,1.684c-0.6-0.148-0.683-0.813-1.235-1.01
			C102.812,75.335,104.209,75.571,103.945,74.146z M103.271,72.463c-0.313-0.237-1.294-0.655-1.347,0.113
			c-0.456-0.141-0.342-0.855-0.448-1.345C102.409,70.937,103.588,71.542,103.271,72.463z M100.578,70.442
			c0.861,0.01,1.938-1.08,2.244,0c-0.33,0.192-0.784,0.266-1.347,0.225c-0.518,0.268-0.648,0.922-1.01,1.348
			c-0.201,0.015-0.237-0.137-0.448-0.115C100.059,71.344,100.771,70.864,100.578,70.442z M97.995,75.158
			c0.039-0.374,0.646-0.177,1.01-0.225c0.186-0.114,0.122-0.477,0.224-0.674C100.287,74.821,98.578,75.82,97.995,75.158z
			 M98.556,73.698c-0.834,0.822-1.75-1.029-0.897-1.572c0.413,0.185,0.674,0.523,1.347,0.448
			C98.801,72.994,97.993,73.148,98.556,73.698z M98.332,71.228c-0.274,1.035-2.196,1.022-1.573,2.581
			C95.139,73.565,96.469,70.722,98.332,71.228z M95.861,77.739c0,0.3,0,0.6,0,0.899c-0.298,0-0.599,0-0.897,0
			c0-0.299,0-0.599,0-0.899C95.263,77.739,95.563,77.739,95.861,77.739z M95.413,75.382c-0.392-0.058-0.389-0.507-0.448-0.897
			c-0.45,0.114-1.054,0.543-1.459,0.338C93.431,73.281,95.815,73.99,95.413,75.382z M92.718,74.035
			c0.138-0.667,0.686-1.188,0.898-1.459c0.645-0.047,1.129,0.07,1.235,0.561c-0.777,0.308-1.543,0.628-1.908,1.345
			c-0.148,0.633,0.445,0.526,0.448,1.013C92.486,75.621,92.607,74.576,92.718,74.035z M94.402,80.21
			c-0.236,1.044-1.718,0.585-1.796-0.338C92.912,79.163,94.097,79.868,94.402,80.21z M92.606,114.788
			c0.461,0.249,0.481,0.941,1.235,0.9c-0.63,0.96-1.379-0.556-2.133-0.562C91.763,114.603,92.508,115.352,92.606,114.788z
			 M92.044,77.291c-0.631,0.031-1.068-0.132-1.459-0.34C90.677,75.837,91.988,76.705,92.044,77.291z M90.695,74.933
			c-0.383,0.514-0.081,0.792-1.347,1.345c0,0.449,0,0.898,0,1.346C88.083,76.858,88.894,74.59,90.695,74.933z M89.125,85.936
			c1.583-0.375,2.784,0.578,2.919,2.022c-1.046-0.562-1.448-1.771-3.03-1.796C88.996,86.029,89.038,85.959,89.125,85.936z
			 M87.555,78.301c0.669,0.115,0.89,0.683,1.235,1.123C88.23,79.693,86.902,78.909,87.555,78.301z M86.881,76.841
			c0.281-0.019,0.351,0.173,0.448,0.34c-0.057,0.428-0.4,0.57-0.897,0.559c-0.143,1.043,0.179,1.619,0.45,2.246
			c-0.636-0.149-0.671-0.9-1.348-1.01C85.586,77.867,86.435,77.557,86.881,76.841z M85.533,81.332
			c-0.575-0.531-1.065,0.15-1.796,0.113C83.476,80.112,85.841,79.63,85.533,81.332z M84.074,79.647
			c-0.176,0.424-0.474,0.723-0.898,0.899c0.139,0.458,0.421,1.253,0.225,1.684C82.607,81.692,82.508,79.376,84.074,79.647z
			 M81.716,82.678c-0.08,0.446-0.172,0.873-0.561,1.012c-0.343-0.454,0.197-0.8,0.226-1.236
			C81.527,82.494,81.557,82.651,81.716,82.678z M80.818,81.556c0.181-0.03,0.192,0.106,0.336,0.115c0,0.409-0.393,0.43-0.561,0.669
			C80.269,82.117,80.917,81.927,80.818,81.556z M79.021,84.7c-0.192,0.556-0.743,0.754-1.459,0.786
			C77.74,84.914,78.243,84.669,79.021,84.7z M76.104,92.334c-0.635,0.497-3.306,0.99-3.143-0.562
			C74.329,91.637,74.686,92.516,76.104,92.334z M76.104,100.192c-0.102,0.198-0.251,0.346-0.449,0.447
			c-0.967-0.452-0.685-2.16-1.236-3.032c0.376-0.261,1.034-0.238,1.685-0.227C75.464,97.863,74.716,99.954,76.104,100.192z
			 M70.938,93.682c0.112,0,0.226,0,0.338,0c-0.044,0.679,0.006,1.264,0.224,1.684c0.268,0.069,0.512,0.161,0.897,0.111
			C71.559,96.522,70.125,94.656,70.938,93.682z M72.398,97.835c0.19,1.224-2.457,1.955-3.255,0.786
			c-0.155-1.017,0.587-1.134,0.561-2.02c0.811,0.352-0.473,1.882,0.561,2.242c0.66-0.088,0.972-0.525,1.685-0.559
			c0.148-0.156-0.36-0.607-0.448-0.899c-0.438,0.012-0.411,0.487-0.449,0.899c-0.377-0.11-0.56-0.414-0.787-0.674
			C70.746,96.662,72.292,97.16,72.398,97.835z M72.847,107.154c-0.57,0.638-1.222-0.367-1.01-1.238
			c0.203-0.396,0.704-0.493,0.898-0.898C73.007,105.474,71.757,106.893,72.847,107.154z M69.591,102.551
			c-1.056,0.271-1.606-0.937-1.796-1.909c0.596-0.078,0.723-0.625,1.123-0.898c0.592,0.696-1.137,0.634-0.786,1.796
			c1.019-0.396,1.981-1.82,2.919-0.448c0.009,0.366-0.959,0.56-0.897,0C69.677,101.19,68.813,102.271,69.591,102.551z
			 M70.152,109.062c0.771-0.06,1.388,0.035,1.347,0.787c-0.533-0.715-0.974,0.466-1.347,0.225
			C70.152,109.735,70.152,109.399,70.152,109.062z M55.671,108.164c0.507,0.059,0.809-0.09,0.897-0.449
			c0.229,0.108,0.445,0.232,0.674,0.339c0.175,0.432-0.257,1.434,0.224,1.796C56.633,109.969,55.816,109.104,55.671,108.164z
			 M58.814,113.104c-0.405,0.117-0.704,0.342-1.01,0.558c-0.214-0.866,0.401-1.731,0.562-2.582c0.307-0.08,0.226,0.222,0.448,0.225
			C58.794,111.931,58.328,112.627,58.814,113.104z M57.915,108.164c0.225,0,0.449,0,0.674,0c0.233,0.328,0.23,0.892,0.786,0.898
			C59.049,110.206,57.307,109.259,57.915,108.164z M62.407,119.278c-0.072-0.598,0.446-0.604,0.673-0.898
			c-0.763-1.337-2.439-1.755-3.592-2.694c1.283-0.676,2.833,1.481,4.153,2.021c0.009,0.495-0.268,0.705-0.561,0.898
			C62.678,118.652,62.835,119.257,62.407,119.278z M61.733,110.971c0.792,0.405,1.514,0.88,1.347,2.245
			C61.647,113.45,61.693,112.208,61.733,110.971z M63.08,120.401c0.279-0.42,0.879-1.031,1.347-0.897
			c-0.08,0.63-0.943,0.479-0.897,1.234C63.38,120.625,63.111,120.631,63.08,120.401z M63.641,121.635
			c0.142-0.533,0.634-0.712,1.124-0.897C65.003,121.205,64.326,121.719,63.641,121.635z M64.988,116.472c-0.299,0-0.599,0-0.898,0
			c0-0.263,0-0.524,0-0.783c0.299,0,0.599,0,0.898,0C64.988,115.948,64.988,116.208,64.988,116.472z M54.771,90.988
			c5.026,0.178,10.416,0.96,15.718,1.236c-1.484,5.14-3.929,9.316-5.053,14.82C61.814,101.757,58.202,96.464,54.771,90.988z
			 M67.795,106.255c-0.695-0.574-1.375-2.401-0.448-3.255c0.148,0.04,0.176,0.198,0.337,0.224c0.015,0.789-0.802,1.747,0.113,2.135
			c0.53-0.07,0.462-0.735,0.449-1.346c0.41-0.073,0.598,0.078,0.787,0.225c-0.061,0.314-0.165,0.584-0.225,0.897
			c0.016,0.324,0.468,0.206,0.786,0.227C69.305,105.97,68.552,106.113,67.795,106.255z M69.704,113.552
			c-0.243,0.02-0.051-0.398-0.113-0.56c0.09,0.061,0.183,0.119,0.337,0.115C69.927,113.327,69.622,113.247,69.704,113.552z
			 M70.152,128.82c0.132-0.503,0.574-0.7,0.45-1.458c0.509-0.061,0.262,0.635,0.448,0.897c0.352,0.053,0.501-0.096,0.449-0.448
			C72.816,128.411,70.774,129.752,70.152,128.82z M72.062,116.023c-1.494-0.004-2.04-0.956-1.91-2.583
			c0.381,0.366,0.684,0.813,0.787,1.459c0.316-0.022,0.14-0.536,0.562-0.449C72.282,114.541,72.366,115.421,72.062,116.023z
			 M73.745,110.745c-0.239-0.341-1.164-0.563-1.233,0.113C70.91,109.794,74.29,109.417,73.745,110.745z M73.858,107.154
			c-0.327-0.125-0.663-0.236-0.786-0.561c0.064-0.607,0.417-0.927,1.236-0.787C74.061,106.16,73.816,106.513,73.858,107.154z
			 M75.766,106.93c-0.141,0.979-1.006,1.239-1.796,1.569C74.482,107.892,74.717,107.003,75.766,106.93z M74.308,131.065
			c-0.775-0.16-0.622-1.249-1.796-1.009C72.847,128.637,74.573,129.85,74.308,131.065z M73.971,117.931
			c0.247-0.352,0.35-0.847,0.448-1.345c0.229,0.106,0.444,0.229,0.673,0.336c0.101,0.512-0.186,0.635-0.224,1.01
			C74.569,117.931,74.269,117.931,73.971,117.931z M75.205,119.727c-0.905-0.289-0.026-1.528,0.898-1.345
			C75.886,118.912,75.159,118.932,75.205,119.727z M73.858,104.346c-0.274-0.51-0.375-1.195-0.897-1.459
			c-0.256-1.116,1.146-0.821,1.143-1.684c-0.433-0.24-1.213,0.021-1.213-0.562c0-0.112,0-0.225,0-0.336
			c1.266-0.534,1.266,0.744,1.266,0.898c0,0.184,0,0.374,0,0.561c0,0.181-0.644,0.18-0.934,0.336
			c-0.183,1.118,0.965,0.942,1.046,1.796c0.54-0.098,0.802-0.49,1.479-0.449c-0.035-0.45-0.519-0.445-0.438-1.012
			c-0.48,0.01-0.406,0.565-0.557,0.899c-0.46,0.048-0.584-0.238-0.784-0.448c0.1-0.909,1.951-1.093,2.247-0.225
			C76.112,103.909,74.98,104.123,73.858,104.346z M76.215,98.733c-0.212,0.564,0.559,0.438,0.225,0.785
			c-0.927-0.148-0.374-1.685,0.673-1.233C77.129,98.75,76.557,98.626,76.215,98.733z M77.9,102.775
			c-0.25-0.239-0.309-0.664-0.673-0.785c0.264-0.66,0.908-1.532,1.684-1.011c-0.353,0.354-1.133,0.288-1.236,0.899
			C77.627,102.301,78.219,102.422,77.9,102.775z M77.674,103.449c0.617,0.175,0.529,1.444,0.226,1.908
			c-0.42,0.011-0.32,0.127-0.673,0C76.85,104.612,77.505,104.012,77.674,103.449z M78.572,127.698
			c-0.517-0.231-0.485-1.012-1.348-0.898c0-0.149,0-0.296,0-0.447c0.643-0.119,0.658,0.391,1.124,0.447
			c0.427,0.166,0.023-0.5,0.449-0.336C79.217,126.993,78.576,127.238,78.572,127.698z M77.338,96.826
			c-0.976-0.08-2.185-1.906-0.898-2.695c-1.037,1.7,1.876,2.938,2.582,1.345c-0.269-0.599-1.188-0.238-1.683-0.112
			c-0.339-0.928,1.431-1.335,2.133-0.899C79.265,95.682,78.514,96.917,77.338,96.826z M79.471,82.904
			c0.212-0.164,0.583-0.165,0.673-0.448c0.479,0.043,0.106,0.939,0.225,1.345c0.016,0.36,0.415,0.334,0.449,0.675
			C79.998,85.104,79.583,83.699,79.471,82.904z M76.215,168.339c-1.018-1.004-0.099-3.192,1.347-3.144
			C77.082,166.157,75.923,166.973,76.215,168.339z M78.572,167.326c-0.39,0.178-1.432,0.288-1.01,0.901
			c-0.997,0.015-0.064-2.296,1.01-1.571C78.572,166.88,78.572,167.104,78.572,167.326z M79.358,164.297
			c-0.053,0.736-0.77,1.01-0.449,1.796C78.087,165.848,78.666,164.374,79.358,164.297z M79.358,195.508
			c-0.801-0.689,0.626-2.156,1.347-2.024C80.422,194.325,79.299,194.325,79.358,195.508z M79.584,99.631
			c0.069-0.941,0.193-1.823,1.236-1.795c-0.34,0.956-0.402,2.436,0.897,2.357C81.082,101.432,80.7,99.319,79.584,99.631z
			 M81.716,94.579c0.953,0.314-0.099,1.57,0.45,2.137C81.778,96.659,80.952,95.153,81.716,94.579z M82.277,127.249
			c-0.172-0.883,0.733-0.688,1.236-0.897C83.726,126.831,83.012,127.344,82.277,127.249z M85.197,145.885
			c-0.751-1.194-1.21-2.682-1.909-3.93C84.625,142.1,85.758,144.163,85.197,145.885z M84.186,149.703
			c0.501,0.314-0.07,1.398,0,2.022C83.856,151.166,84.343,150.46,84.186,149.703z M84.522,156.214
			c0.232,0.202-0.341,0.55-0.337,0.898C83.892,156.847,84.495,156.527,84.522,156.214z M83.962,144.988
			c0.625,0.72-0.315,1.663-0.562,2.245C83.542,146.885,83.86,145.748,83.962,144.988z M84.074,171.594
			c-0.452-0.145-0.32-0.875-0.336-1.456C84.314,170.238,84.179,171.111,84.074,171.594z M85.309,160.592
			c0.146,0.447-0.487,1.08-1.123,1.123C84.102,160.883,84.891,160.922,85.309,160.592z M85.084,165.645
			c0.95-0.132,0.969,0.674,1.909,0.558c-0.619,0.879-0.316,2.679-0.563,3.93c-1.304-0.722-0.205-2.454-0.336-3.93
			c-1.933,0.561-0.452,3.81-0.113,5.389C84.45,170.729,83.832,167.321,85.084,165.645z"/>
		<path fill="#333333" d="M94.402,215.461c0.974,0,1.945,0,2.918,0c0.062,0,0.103,0.082,0.159,0h-3.034
			C94.435,215.549,94.412,215.461,94.402,215.461z"/>
		<path fill="#333333" d="M136.614,148.355c0.103-0.198,0.252-0.348,0.449-0.449c0.968-1.104,2.342-1.646,3.48-2.583
			c0.792-0.651,1.602-1.249,2.133-2.134c-2.351,1.166-3.938,3.097-5.837,4.717C136.872,148.104,136.31,148.254,136.614,148.355z"/>
		<path fill="none" d="M221.96,90.128h-21.206v67.098h18.255c18.07,0,26.055-8.073,26.055-26.328v-13.275
			C245.064,101.766,239.293,90.128,221.96,90.128z"/>
		<path fill="#333333" d="M221.96,86.331h-25.003v125.333h3.798v-50.64h18.255c20.466,0,29.853-9.842,29.853-30.309V117.81
			C248.862,99.738,241.875,86.331,221.96,86.331z M245.064,130.898c0,18.254-7.984,26.328-26.055,26.328h-18.255V90.128h21.206
			c17.33,0,23.104,11.637,23.104,27.495V130.898z"/>
		<path fill="#333333" d="M85.93,211.663c0.106,1.299,0.097,2.571-0.23,3.798h8.748c0.198-1.426,0.585-2.661,1.069-3.798H85.93z"/>
		<path fill="#333333" d="M99.171,211.663c-0.487,1.433-0.949,2.736-1.691,3.798h99.477v-3.798H99.171z"/>
		<path fill="#333333" d="M85.93,211.663h-4.539c-0.006,1.268-0.04,2.564-0.013,3.798h4.322
			C86.026,214.234,86.037,212.962,85.93,211.663z"/>
		<path fill="#333333" d="M95.517,211.663c-0.484,1.137-0.872,2.372-1.069,3.798h3.033c0.744-1.062,1.204-2.365,1.691-3.798H95.517z
			"/>
		<rect x="196.957" y="211.663" fill="#333333" width="3.798" height="3.798"/>
	</g>
	<g enable-background="new    ">
		<path fill="#333333" d="M256.169,129.842c1.072-1.878,2.281-3.296,3.623-4.249c2.476-1.759,5.295-2.638,8.457-2.638
			c1.941,0,3.417,0.434,4.432,1.296c0.924,0.775,1.389,1.729,1.389,2.861c0,0.835-0.276,1.521-0.828,2.057
			c-0.553,0.537-1.261,0.805-2.126,0.805c-1.016,0-1.895-0.416-2.641-1.25l-1.387-1.52c-1.105-1.162-2.403-1.743-3.895-1.743
			c-2.029,0-3.612,1.311-4.743,3.932c-1.135,2.622-1.701,6.273-1.701,10.951v8.36l0.045,3.396c0,2.028,0.118,3.509,0.357,4.448
			c0.239,0.938,0.701,1.721,1.388,2.347c0.836,0.805,2.372,1.417,4.609,1.833v0.938h-19.781v-0.938
			c1.79-0.239,3.073-0.571,3.85-1.001c0.775-0.433,1.402-1.167,1.881-2.206c0.325-0.683,0.557-1.715,0.691-3.093
			c0.135-1.381,0.203-3.377,0.203-5.989v-11c0-3.057-0.076-5.201-0.226-6.434c-0.147-1.232-0.478-2.234-0.983-3.005
			c-0.507-0.831-1.118-1.432-1.835-1.804c-0.716-0.371-1.746-0.602-3.089-0.69v-0.939l11.538-1.611
			C255.911,125.633,256.169,127.929,256.169,129.842z"/>
		<path fill="#333333" d="M276.754,142.781c0-4.833,1.789-9.145,5.369-12.935c4.355-4.594,9.564-6.891,15.62-6.891
			c6.059,0,11.247,2.297,15.574,6.891c3.581,3.82,5.371,8.146,5.371,12.979c0,4.774-1.701,9.025-5.103,12.755
			c-4.178,4.595-9.459,6.893-15.843,6.893s-11.683-2.297-15.887-6.893c-1.642-1.79-2.903-3.79-3.782-5.997
			C277.194,147.376,276.754,145.107,276.754,142.781z M284.9,142.267c0,5.187,1.162,9.581,3.491,13.186
			c2.623,4.024,5.832,6.036,9.622,6.036c1.611,0,3.178-0.447,4.699-1.341c1.522-0.894,2.834-2.144,3.937-3.755
			c1.165-1.667,2.104-3.762,2.821-6.28c0.718-2.518,1.075-4.955,1.075-7.308c0-2.444-0.382-4.91-1.142-7.399
			c-0.762-2.487-1.782-4.625-3.066-6.414c-2.446-3.367-5.444-5.051-8.994-5.051c-3.372,0-6.282,1.773-8.727,5.32
			C286.137,132.805,284.9,137.14,284.9,142.267z"/>
		<path fill="#333333" d="M336.053,125.326v23.377l0.045,3.397c0,2.028,0.119,3.509,0.358,4.448c0.236,0.939,0.7,1.721,1.387,2.347
			c0.835,0.805,2.372,1.416,4.61,1.832v0.939h-19.781v-0.939c1.79-0.237,3.071-0.572,3.848-1.006
			c0.776-0.431,1.402-1.168,1.88-2.212c0.328-0.685,0.559-1.72,0.694-3.105c0.134-1.387,0.201-3.391,0.201-6.013v-23.063h-6.489
			v-1.7h6.489v-10.92c0-2.625,0.337-4.699,1.012-6.221c0.678-1.522,1.886-2.924,3.628-4.206c1.56-1.134,3.466-2.022,5.721-2.664
			c2.252-0.642,4.633-0.963,7.14-0.963c2.326,0,4.19,0.402,5.595,1.209c1.4,0.805,2.103,1.878,2.103,3.222
			c0,0.895-0.29,1.642-0.873,2.238c-0.582,0.597-1.291,0.896-2.125,0.896c-0.807,0-1.507-0.216-2.104-0.649
			c-0.598-0.433-1.193-1.142-1.79-2.126c-0.836-1.373-1.521-2.275-2.06-2.708c-0.536-0.433-1.268-0.649-2.191-0.649
			c-1.135,0-2.209,0.231-3.224,0.693s-1.806,1.067-2.372,1.813c-0.625,0.835-1.058,1.932-1.296,3.291
			c-0.238,1.357-0.358,3.32-0.358,5.884v11.86h8.816v1.7H336.053L336.053,125.326z"/>
		<path fill="#333333" d="M348.808,124.566l12.89-1.61v25.775l0.045,3.389c0,2.023,0.118,3.502,0.358,4.437
			c0.237,0.938,0.699,1.717,1.387,2.343c0.835,0.803,2.372,1.412,4.609,1.828v0.939h-19.781v-0.939
			c1.79-0.237,3.073-0.57,3.849-1.002c0.775-0.431,1.402-1.166,1.88-2.204c0.327-0.682,0.56-1.715,0.693-3.093
			c0.134-1.381,0.202-3.378,0.202-5.99V137.44c0-3.058-0.075-5.201-0.225-6.434c-0.148-1.232-0.477-2.234-0.983-3.005
			c-0.508-0.831-1.12-1.432-1.836-1.804c-0.715-0.371-1.746-0.603-3.087-0.689L348.808,124.566L348.808,124.566z M358.14,106.888
			c-1.173,0-2.14-0.372-2.903-1.12c-0.765-0.745-1.147-1.684-1.147-2.819c0-1.104,0.388-2.038,1.17-2.798
			c0.778-0.76,1.739-1.141,2.881-1.141c1.138,0,2.098,0.382,2.879,1.141c0.779,0.76,1.17,1.694,1.17,2.798
			c0,1.135-0.383,2.074-1.146,2.819C360.275,106.516,359.309,106.888,358.14,106.888z"/>
		<path fill="#333333" d="M371.004,100.398l12.891-1.611v49.909l0.044,3.4c0,2.028,0.118,3.509,0.358,4.45
			c0.237,0.94,0.699,1.722,1.387,2.348c0.836,0.804,2.372,1.417,4.61,1.832v0.939h-19.782v-0.939
			c1.79-0.237,3.074-0.571,3.851-1.005c0.775-0.433,1.401-1.169,1.879-2.213c0.327-0.685,0.558-1.719,0.693-3.104
			c0.135-1.386,0.202-3.389,0.202-6.01v-35.079c0-3.039-0.076-5.184-0.224-6.435c-0.149-1.251-0.479-2.263-0.985-3.037
			c-0.508-0.835-1.118-1.431-1.836-1.788c-0.714-0.357-1.745-0.581-3.087-0.669L371.004,100.398L371.004,100.398z"/>
		<path fill="#333333" d="M402.198,137.321c-0.119,1.46-0.18,2.52-0.18,3.177c0,2.595,0.381,5.132,1.137,7.608
			c0.758,2.477,1.792,4.535,3.1,6.176c1.338,1.671,2.996,2.984,4.974,3.938c1.978,0.955,4.052,1.432,6.223,1.432
			c1.605,0,3.128-0.268,4.571-0.806c1.44-0.538,2.64-1.283,3.59-2.239c1.07-1.043,1.99-2.713,2.765-5.012l0.939,0.314
			c-0.775,3.49-2.438,6.124-4.989,7.898c-2.55,1.775-5.942,2.663-10.18,2.663c-3.671,0-6.819-0.583-9.443-1.746
			c-2.625-1.163-4.849-2.953-6.67-5.369c-2.534-3.372-3.803-7.519-3.803-12.442c0-6.713,2.399-11.978,7.203-15.799
			c3.492-2.773,7.475-4.162,11.951-4.162c2.385,0,4.593,0.425,6.621,1.275c2.03,0.852,3.743,2.083,5.147,3.693
			c2.177,2.506,3.266,5.639,3.266,9.4H402.198z M421.71,135.576c-0.207-2.983-0.757-5.283-1.646-6.893
			c-0.806-1.461-1.874-2.618-3.209-3.468c-1.337-0.851-2.765-1.276-4.276-1.276c-2.556,0-4.789,1.104-6.706,3.312
			c-1.917,2.208-3.052,4.982-3.407,8.325H421.71L421.71,135.576z"/>
	</g>
</g>
</svg>
