<?xml version="1.0" encoding="utf-8"?>
<!-- Generator: Adobe Illustrator 15.0.0, SVG Export Plug-In . SVG Version: 6.00 Build 0)  -->
<!DOCTYPE svg PUBLIC "-//W3C//DTD SVG 1.1//EN" "http://www.w3.org/Graphics/SVG/1.1/DTD/svg11.dtd">
<svg version="1.1" id="Layer_1" xmlns="http://www.w3.org/2000/svg" xmlns:xlink="http://www.w3.org/1999/xlink" x="0px" y="0px"
	 width="480px" height="68.042px" viewBox="0 0 480 68.042" enable-background="new 0 0 480 68.042" xml:space="preserve">
<g>
	<path fill="#333333" d="M477.758,34.843c-0.617-0.008-1.029,0.396-1.182,0.848c-10.297-0.01-20.598-0.049-30.896-0.092
		c0.48-0.503,0.957-1.01,1.453-1.498c0-0.002,0.008-0.005,0.008-0.005c0.387-0.323,3.861-2.803,5.211-2.755
		c0.398,0.058,0.441,0.021,0.5,0.581c0,0.053-0.004,0.111-0.008,0.181c-0.002,0.015-0.004,0.05-0.004,0.09
		c0,0.672,0.6,1.017,1.086,1.018c0.506,0.001,1.123-0.368,1.125-1.07c0-0.021,0-0.024,0-0.024c0.004-0.879-0.279-1.565-0.771-2.005
		c-0.49-0.439-1.137-0.611-1.795-0.611c-1.145,0.006-2.385,0.498-3.285,1.251c-1.793,1.506-3.393,3.171-4.971,4.847
		c-0.217-0.002-0.436-0.002-0.654-0.003c-0.973-1.014-1.986-2-3.125-2.863c-2.291-1.743-4.771-3.226-7.58-3.229
		c-0.861,0-1.754,0.143-2.664,0.459c-1.713,0.586-2.533,2.018-2.521,3.425c0,0.756,0.229,1.511,0.646,2.157
		c-1.924-0.005-3.85-0.007-5.773-0.011c0.246-0.54,0.453-1.1,0.6-1.682c0.195-0.788,0.291-1.571,0.291-2.338
		c-0.025-6.276-6.219-11.282-12.395-11.293c-1.508,0-3.021,0.302-4.438,0.967c-2.354,1.096-3.852,3.068-3.855,5.242
		c0,0.257,0.021,0.517,0.064,0.774c-2.83,0.128-5.648,0.671-8.283,1.459c-4.857,1.456-9.172,4.198-13.463,6.814
		c-4.982-2.925-10.096-5.64-15.955-6.409c-0.496-0.064-1.125-0.1-1.848-0.1c-2.342,0.001-5.67,0.364-8.465,1.351
		c-2.547,0.899-4.744,2.37-5.092,4.695c-0.328-0.312-0.775-0.485-1.229-0.487c-0.279,0-0.572,0.069-0.836,0.228
		c-0.514,0.301-0.834,0.848-0.846,1.442c0,0.005-0.002,0.017-0.002,0.03c-0.002,0.813,0.561,1.412,1.234,1.646l0.035,0.014
		c0.166,0.059,0.336,0.087,0.5,0.087c0.438-0.005,0.813-0.189,1.096-0.467c0.141,2.557,2.443,4.144,5.135,5.095
		c2.793,0.986,6.123,1.348,8.467,1.349c0.723,0,1.35-0.032,1.848-0.099c5.861-0.768,10.975-3.484,15.957-6.407
		c4.291,2.615,8.604,5.358,13.461,6.813c2.637,0.791,5.455,1.331,8.283,1.461c-0.041,0.259-0.063,0.517-0.063,0.771
		c0.002,2.175,1.5,4.147,3.854,5.244c1.42,0.664,2.932,0.965,4.438,0.965c6.176-0.011,12.367-5.016,12.395-11.295
		c0-0.764-0.096-1.545-0.291-2.333c-0.184-0.731-0.457-1.435-0.797-2.105c2.256-0.002,4.512-0.006,6.768-0.013
		c-0.934,0.757-1.447,1.906-1.447,3.05c-0.01,1.409,0.813,2.848,2.525,3.434c0.912,0.314,1.803,0.46,2.666,0.459
		c2.807-0.006,5.285-1.488,7.58-3.229c1.266-0.964,2.381-2.075,3.453-3.206c1.686,1.789,3.379,3.578,5.297,5.186
		c0.9,0.753,2.141,1.244,3.283,1.251c0.66,0,1.307-0.174,1.797-0.612c0.486-0.437,0.77-1.119,0.77-1.987v-0.003v-0.037
		c0-0.704-0.617-1.073-1.123-1.072c-0.484,0-1.086,0.346-1.086,1.019c0,0.025,0,0.069,0.006,0.12
		c0.004,0.038,0.006,0.095,0.006,0.147c-0.057,0.561-0.102,0.523-0.5,0.582c-0.686,0.018-2.068-0.661-3.188-1.367
		c-0.568-0.354-1.084-0.705-1.459-0.974c-0.188-0.134-0.338-0.244-0.443-0.321c-0.055-0.039-0.094-0.07-0.123-0.093l-0.006-0.002
		c-0.793-0.781-1.561-1.583-2.318-2.396c10.623-0.041,21.25-0.081,31.875-0.092c0.193,0.33,0.557,0.594,1.031,0.594
		c0.008,0,0.018,0,0.023,0c0.813-0.001,1.254-0.688,1.256-1.286C479,35.519,478.561,34.843,477.758,34.843z M351.08,35.176
		c0.555-1.354,2.215-2.541,4.219-3.377c1.18-0.499,2.459-0.88,3.627-1.137c0.059-0.013,0.109-0.021,0.164-0.031
		c0.234-0.05,0.465-0.098,0.688-0.137c0.195-0.033,0.381-0.06,0.563-0.086c0.076-0.01,0.154-0.024,0.229-0.033
		c0.219-0.029,0.424-0.05,0.623-0.063c0.027-0.003,0.063-0.008,0.092-0.01c0.191-0.016,0.365-0.02,0.531-0.021
		c0.027-0.001,0.063-0.005,0.09-0.005c0.002,0,0.006,0,0.01,0c0.104,0,0.197,0.005,0.289,0.011c0.014,0,0.033,0,0.047,0.001
		c0.484,0.031,0.969,0.083,1.457,0.143c0.088,0.011,0.178,0.017,0.266,0.028c0.168,0.021,0.334,0.055,0.5,0.08
		c3.166,0.474,6.326,1.495,9.25,2.834c0.641,0.294,1.271,0.596,1.887,0.914c0.572,0.3,1.139,0.617,1.703,0.937
		c0.176,0.098,0.352,0.188,0.523,0.287c-4.475-0.001-8.949-0.001-13.424-0.002c-2.904,0-5.871-0.102-8.84-0.102l0,0
		c-1.545,0-3.088,0.028-4.621,0.108C350.979,35.401,351.033,35.289,351.08,35.176z M375.607,38.632
		c-4.078,2.122-8.777,3.706-13.355,3.998c-0.104,0.006-0.217,0.009-0.34,0.009c-1.52,0.003-4.314-0.532-6.695-1.556
		c-2.314-0.979-4.17-2.422-4.344-4.058c3.07,0.237,6.18,0.317,9.299,0.318c6.16-0.001,12.359-0.313,18.383-0.354
		C377.576,37.564,376.596,38.116,375.607,38.632z M405.053,24.517c0.283-0.55,0.793-1.069,1.576-1.569
		c0.109-0.059,0.225-0.106,0.336-0.163c1.031-0.514,2.129-0.873,3.281-0.892c0.09-0.003,0.178-0.003,0.268-0.003
		c2.07,0,4.152,0.403,5.938,1.436c0.939,0.544,1.834,1.223,2.619,1.997c1.727,1.708,2.924,3.889,2.916,6.139
		c0,0.393-0.049,0.788-0.123,1.186c-0.141,0.743-0.402,1.493-0.842,2.246c-1.477-1.885-3.459-3.447-5.492-4.65
		c-0.959-0.564-1.932-1.06-2.865-1.456c-0.199-0.082-0.4-0.151-0.604-0.229c-0.568-0.216-1.146-0.409-1.725-0.571
		c-0.01-0.044-0.02-0.094-0.031-0.142c-0.082-0.296-0.258-0.538-0.484-0.71c-0.029-0.021-0.063-0.028-0.092-0.046
		c-0.092-0.061-0.186-0.117-0.287-0.153c-0.139-0.047-0.281-0.073-0.432-0.077l0,0l0,0c-0.127-0.001-0.254,0.028-0.383,0.075
		c-0.096,0.033-0.188,0.076-0.275,0.142c-0.109,0.084-0.213,0.162-0.318,0.241c-0.059,0.045-0.121,0.088-0.18,0.135
		c-0.885-0.135-1.773-0.22-2.668-0.256c-0.061-0.128-0.117-0.265-0.176-0.407c-0.074-0.19-0.125-0.375-0.166-0.555
		c-0.043-0.206-0.068-0.404-0.068-0.597C404.777,25.248,404.869,24.876,405.053,24.517z M386.766,34.087
		c2.318-1.327,4.662-2.565,7.084-3.542c0.111-0.045,0.229-0.083,0.342-0.128c2.916-1.124,6.043-1.707,9.135-1.717
		c0.059,0.112,0.127,0.224,0.191,0.335c0.34,0.571,0.785,1.131,1.371,1.656c0.146,0.131,0.299,0.239,0.459,0.338
		c0.533,0.327,1.129,0.479,1.713,0.479l0,0l0,0c1.275-0.004,2.531-0.688,3.068-1.826c1.775,0.538,3.465,1.298,5.016,2.288
		c1.508,0.962,2.889,2.142,4.086,3.554c-1.877-0.005-3.754-0.011-5.629-0.011c-0.004,0-0.008,0-0.012,0c-1.625,0-3.25,0-4.877,0
		c-8.125-0.002-16.252-0.003-24.377-0.005C385.145,35.029,385.953,34.553,386.766,34.087z M403.813,43.431
		c-0.133,0.184-0.252,0.371-0.355,0.558c-0.043,0.075-0.09,0.15-0.131,0.228c-1.51-0.003-3.029-0.148-4.529-0.421
		c-1.553-0.284-3.08-0.71-4.557-1.275c-0.131-0.05-0.262-0.096-0.391-0.146c-0.236-0.096-0.473-0.199-0.709-0.302
		c-3.262-1.389-6.383-3.219-9.514-5.084c9.473-0.002,18.947-0.003,28.422-0.003c1.672-0.002,3.342-0.007,5.016-0.01
		c0.836-0.001,1.672-0.002,2.508-0.004c-1.545,1.935-3.414,3.464-5.494,4.609c-0.361,0.199-0.732,0.383-1.109,0.56
		c-0.053,0.025-0.105,0.057-0.162,0.083c-0.863,0.397-1.758,0.733-2.676,1.011c-0.402-0.854-1.211-1.451-2.129-1.699
		c-0.303-0.083-0.621-0.127-0.939-0.127c-0.203,0-0.408,0.021-0.611,0.059c-0.557,0.104-1.1,0.346-1.563,0.762
		C404.457,42.613,404.105,43.018,403.813,43.431z M417.768,48.712c-0.424,0.321-0.863,0.619-1.318,0.879
		c-1.131,0.654-2.381,1.056-3.672,1.262c-0.748,0.119-1.506,0.174-2.264,0.173c-0.018,0-0.035,0-0.055,0
		c-0.072,0-0.145,0-0.213-0.002c-0.822-0.014-1.613-0.206-2.381-0.499c-0.428-0.163-0.85-0.347-1.26-0.568
		c-0.994-0.639-1.549-1.313-1.742-2.049c-0.057-0.206-0.086-0.412-0.086-0.626c0-0.356,0.072-0.739,0.232-1.153
		c0.051-0.126,0.105-0.243,0.154-0.359c0.008-0.014,0.016-0.03,0.02-0.044c0.65-0.025,1.295-0.088,1.938-0.166
		c0.244-0.029,0.488-0.053,0.73-0.091c0.021,0.019,0.049,0.036,0.068,0.054c0.141,0.108,0.281,0.21,0.432,0.324
		c0.051,0.037,0.107,0.055,0.16,0.081c0.16,0.083,0.33,0.134,0.498,0.134c0.535-0.013,1.01-0.334,1.223-0.828
		c0.021-0.054,0.057-0.099,0.07-0.156c0.014-0.05,0.023-0.097,0.031-0.142c0.449-0.125,0.896-0.271,1.34-0.427
		c0.332-0.115,0.664-0.238,0.99-0.375c1.891-0.8,3.924-1.969,5.713-3.441c0.973-0.8,1.879-1.688,2.643-2.665
		c0.004,0.001,0.004,0.003,0.006,0.004c0.67,1.153,0.961,2.305,0.961,3.428C421.996,44.238,420.162,46.906,417.768,48.712z
		 M429.094,34.475c-0.014-0.047-0.039-0.091-0.051-0.139c-0.041-0.162-0.061-0.328-0.064-0.499c0.004-0.561,0.225-1.162,0.619-1.69
		c0.641-0.854,1.738-1.525,3.143-1.526c0.375,0,0.775,0.059,1.195,0.163c0.063,0.016,0.119,0.021,0.182,0.039
		c1.273,0.298,2.457,0.771,3.576,1.431c0.42,0.244,0.828,0.499,1.229,0.762c0.146,0.095,0.283,0.196,0.424,0.293
		c0.252,0.173,0.502,0.344,0.746,0.525c0.168,0.123,0.326,0.258,0.486,0.387c0.211,0.166,0.42,0.331,0.623,0.508
		c0.166,0.144,0.324,0.298,0.484,0.447c0.146,0.136,0.287,0.271,0.43,0.413c-2.346-0.009-4.689-0.018-7.035-0.024
		c-1.705-0.006-3.41-0.014-5.117-0.019c-0.088-0.058-0.16-0.118-0.236-0.179c-0.063-0.054-0.139-0.104-0.193-0.16
		c-0.072-0.075-0.127-0.158-0.186-0.239c-0.041-0.058-0.094-0.112-0.127-0.174C429.164,34.692,429.129,34.583,429.094,34.475z
		 M442.381,37.551c-0.064,0.065-0.137,0.127-0.201,0.192c-1.328,1.345-2.836,2.426-4.486,3.396c-0.297,0.175-0.6,0.334-0.906,0.481
		c-0.848,0.411-1.73,0.727-2.648,0.94c-0.506,0.145-0.969,0.206-1.398,0.206c-2.275-0.004-3.76-1.756-3.762-3.219
		c0.018-0.937,0.545-1.772,2.064-2.132c0.049-0.013,0.09-0.027,0.139-0.038c0.002,0,0.002,0,0.002,0l0,0
		c0.066-0.01,0.129-0.034,0.188-0.067c0.018-0.012,0.037-0.027,0.055-0.043c0.035-0.025,0.066-0.052,0.094-0.084
		c0.02-0.021,0.033-0.037,0.047-0.06c0.023-0.034,0.043-0.068,0.059-0.104c0.01-0.021,0.021-0.039,0.027-0.061
		c0.002-0.007,0.006-0.013,0.008-0.019c3.777-0.012,7.557-0.024,11.334-0.04C442.787,37.122,442.586,37.336,442.381,37.551z
		 M1,36.114c0.001,0.601,0.443,1.285,1.256,1.286c0.008,0,0.017,0,0.023,0c0.475,0,0.837-0.264,1.032-0.594
		c10.625,0.011,21.251,0.051,31.875,0.092c-0.761,0.813-1.526,1.613-2.319,2.396l-0.007,0.002c-0.028,0.021-0.068,0.053-0.122,0.092
		c-0.105,0.078-0.257,0.188-0.444,0.322c-0.374,0.268-0.89,0.619-1.458,0.973c-1.118,0.706-2.502,1.385-3.188,1.367
		c-0.398-0.059-0.443-0.021-0.5-0.582c0-0.053,0.001-0.109,0.006-0.147c0.006-0.051,0.006-0.095,0.006-0.12
		c0-0.673-0.601-1.019-1.087-1.019c-0.505-0.001-1.123,0.368-1.123,1.072v0.038v0.002c0,0.869,0.282,1.552,0.771,1.987
		c0.489,0.438,1.135,0.612,1.796,0.612c1.144-0.007,2.383-0.498,3.283-1.251c1.917-1.605,3.611-3.396,5.297-5.186
		c1.072,1.131,2.188,2.243,3.453,3.207c2.295,1.739,4.772,3.223,7.58,3.229c0.862,0.001,1.754-0.144,2.665-0.459
		c1.716-0.586,2.535-2.022,2.525-3.434c0-1.144-0.514-2.292-1.447-3.05c2.256,0.008,4.514,0.011,6.77,0.013
		c-0.342,0.672-0.614,1.374-0.797,2.105c-0.197,0.788-0.292,1.569-0.292,2.333c0.025,6.279,6.219,11.284,12.394,11.295
		c1.508,0,3.02-0.301,4.438-0.965c2.354-1.097,3.851-3.069,3.854-5.244c0-0.256-0.021-0.514-0.063-0.771
		c2.829-0.13,5.647-0.67,8.283-1.461c4.857-1.454,9.171-4.197,13.462-6.813c4.981,2.924,10.096,5.641,15.956,6.407
		c0.498,0.065,1.125,0.1,1.85,0.1c2.342-0.001,5.672-0.362,8.466-1.35c2.69-0.951,4.994-2.538,5.134-5.095
		c0.283,0.277,0.659,0.462,1.097,0.467c0.163,0,0.333-0.028,0.499-0.087l0.036-0.014c0.675-0.233,1.236-0.833,1.233-1.646
		c0-0.015-0.001-0.024-0.001-0.029c-0.012-0.597-0.333-1.144-0.845-1.443c-0.265-0.157-0.558-0.228-0.838-0.228
		c-0.451,0.003-0.898,0.178-1.229,0.487c-0.346-2.325-2.544-3.796-5.092-4.695c-2.794-0.985-6.123-1.35-8.463-1.351
		c-0.725,0-1.353,0.034-1.849,0.1c-5.859,0.771-10.974,3.484-15.956,6.409c-4.291-2.616-8.604-5.357-13.462-6.813
		c-2.636-0.789-5.454-1.331-8.283-1.459c0.041-0.26,0.063-0.52,0.063-0.775c-0.003-2.174-1.501-4.146-3.854-5.242
		c-1.416-0.665-2.93-0.967-4.438-0.967c-6.176,0.011-12.368,5.017-12.396,11.293c0,0.767,0.096,1.55,0.292,2.338
		c0.146,0.582,0.354,1.143,0.6,1.683c-1.925,0.004-3.852,0.005-5.774,0.01c0.42-0.646,0.647-1.401,0.647-2.157
		c0.011-1.407-0.811-2.839-2.521-3.425c-0.911-0.316-1.803-0.459-2.665-0.459c-2.808,0.004-5.288,1.486-7.58,3.229
		c-1.139,0.863-2.151,1.851-3.125,2.863c-0.22,0.001-0.438,0.001-0.653,0.003c-1.579-1.676-3.179-3.341-4.972-4.847
		c-0.9-0.753-2.141-1.245-3.283-1.251c-0.66,0-1.307,0.172-1.797,0.612c-0.49,0.438-0.773,1.125-0.771,2.005c0,0,0,0.002,0,0.023
		c0.001,0.702,0.618,1.071,1.124,1.07c0.487-0.001,1.086-0.345,1.086-1.018c0-0.04-0.001-0.074-0.004-0.09
		c-0.004-0.067-0.008-0.128-0.008-0.181c0.059-0.562,0.102-0.523,0.5-0.581c1.35-0.048,4.826,2.432,5.212,2.755
		c0,0,0.007,0.003,0.008,0.005c0.495,0.488,0.972,0.995,1.453,1.498c-10.301,0.043-20.602,0.082-30.896,0.092
		c-0.152-0.452-0.564-0.854-1.182-0.848C1.44,34.843,1.001,35.519,1,36.114z M129.051,35.516c-1.532-0.08-3.076-0.108-4.62-0.108
		c0,0,0,0-0.001,0c-2.969,0-5.936,0.102-8.84,0.102c-4.476,0.001-8.949,0.001-13.425,0.002c0.173-0.1,0.351-0.189,0.523-0.287
		c0.564-0.318,1.132-0.637,1.704-0.936c0.613-0.319,1.246-0.621,1.886-0.915c2.924-1.339,6.085-2.36,9.25-2.834
		c0.167-0.025,0.333-0.061,0.5-0.08c0.089-0.013,0.179-0.019,0.267-0.028c0.487-0.059,0.974-0.11,1.457-0.143
		c0.015,0,0.032,0,0.047,0c0.092-0.007,0.187-0.012,0.289-0.012c0.004,0,0.008,0,0.011,0c0.025,0,0.062,0.004,0.089,0.005
		c0.166,0.002,0.34,0.007,0.53,0.021c0.029,0.002,0.064,0.007,0.094,0.01c0.198,0.015,0.403,0.034,0.623,0.063
		c0.071,0.009,0.15,0.023,0.227,0.033c0.183,0.026,0.367,0.053,0.563,0.086c0.222,0.039,0.452,0.087,0.688,0.137
		c0.055,0.011,0.106,0.02,0.163,0.031c1.169,0.257,2.448,0.638,3.627,1.137c2.004,0.836,3.664,2.021,4.22,3.377
		C128.968,35.289,129.021,35.401,129.051,35.516z M101.446,36.992c6.021,0.04,12.223,0.354,18.382,0.354
		c3.12-0.001,6.229-0.081,9.299-0.318c-0.174,1.636-2.026,3.077-4.344,4.059c-2.381,1.021-5.177,1.558-6.695,1.555
		c-0.122,0-0.234-0.003-0.339-0.009c-4.579-0.292-9.276-1.876-13.355-3.998C103.404,38.116,102.425,37.564,101.446,36.992z
		 M75.227,25.635c0,0.191-0.026,0.391-0.069,0.597c-0.04,0.18-0.091,0.363-0.165,0.555c-0.058,0.144-0.116,0.279-0.176,0.407
		c-0.896,0.036-1.784,0.121-2.668,0.256c-0.06-0.047-0.121-0.09-0.181-0.135c-0.104-0.079-0.209-0.157-0.318-0.241
		c-0.086-0.064-0.181-0.107-0.275-0.142c-0.128-0.047-0.256-0.076-0.383-0.075l0,0l0,0c-0.148,0.004-0.293,0.03-0.43,0.077
		c-0.104,0.036-0.196,0.094-0.289,0.153c-0.028,0.018-0.063,0.025-0.09,0.046c-0.229,0.172-0.404,0.414-0.485,0.71
		c-0.013,0.048-0.021,0.098-0.031,0.142c-0.579,0.162-1.154,0.355-1.725,0.571c-0.202,0.077-0.403,0.146-0.604,0.229
		c-0.936,0.396-1.906,0.892-2.865,1.456c-2.034,1.203-4.018,2.767-5.492,4.65c-0.439-0.753-0.701-1.503-0.841-2.246
		c-0.075-0.397-0.124-0.793-0.124-1.186c-0.009-2.25,1.189-4.431,2.917-6.139c0.784-0.774,1.679-1.453,2.618-1.997
		c1.783-1.031,3.865-1.436,5.937-1.436c0.091,0,0.178,0,0.268,0.003c1.153,0.019,2.25,0.378,3.281,0.892
		c0.112,0.057,0.228,0.104,0.336,0.163c0.784,0.5,1.293,1.021,1.576,1.569C75.132,24.876,75.225,25.248,75.227,25.635z
		 M95.665,35.51c-8.126,0.002-16.252,0.003-24.378,0.005c-1.626,0-3.251,0-4.877,0c-0.003,0-0.007,0-0.011,0
		c-1.875,0-3.753,0.006-5.629,0.011c1.197-1.412,2.578-2.592,4.085-3.554c1.552-0.99,3.24-1.75,5.016-2.288
		c0.537,1.139,1.794,1.822,3.068,1.826l0,0l0,0c0.585,0,1.18-0.152,1.713-0.479c0.16-0.099,0.313-0.207,0.46-0.338
		c0.586-0.526,1.032-1.085,1.37-1.656c0.065-0.111,0.135-0.223,0.191-0.335c3.094,0.009,6.22,0.592,9.136,1.716
		c0.112,0.045,0.229,0.083,0.342,0.129c2.422,0.977,4.765,2.215,7.083,3.541C94.047,34.553,94.856,35.029,95.665,35.51z
		 M75.112,42.226c-0.462-0.416-1.006-0.658-1.562-0.762c-0.203-0.036-0.408-0.059-0.611-0.059c-0.318,0-0.638,0.044-0.94,0.127
		c-0.917,0.248-1.726,0.847-2.129,1.699c-0.918-0.276-1.812-0.612-2.676-1.011c-0.055-0.026-0.108-0.058-0.162-0.083
		c-0.376-0.177-0.747-0.359-1.109-0.56c-2.078-1.146-3.947-2.676-5.492-4.609c0.836,0.002,1.671,0.003,2.507,0.004
		c1.673,0.003,3.343,0.008,5.015,0.01c9.477,0,18.95,0.001,28.423,0.003c-3.131,1.865-6.253,3.695-9.514,5.084
		c-0.236,0.103-0.472,0.206-0.709,0.302c-0.129,0.052-0.26,0.098-0.39,0.146c-1.478,0.565-3.006,0.991-4.558,1.275
		c-1.5,0.271-3.02,0.418-4.53,0.421c-0.04-0.076-0.088-0.151-0.13-0.228c-0.104-0.187-0.225-0.374-0.355-0.558
		C75.896,43.018,75.543,42.613,75.112,42.226z M58.015,41.457c0-1.122,0.291-2.272,0.962-3.427c0.001-0.001,0.001-0.003,0.004-0.004
		c0.764,0.978,1.67,1.865,2.643,2.665c1.79,1.474,3.822,2.643,5.714,3.441c0.326,0.137,0.658,0.26,0.99,0.375
		c0.442,0.156,0.89,0.302,1.339,0.427c0.009,0.045,0.02,0.092,0.031,0.142c0.015,0.059,0.05,0.104,0.072,0.156
		c0.211,0.494,0.687,0.815,1.222,0.828c0.167,0,0.337-0.051,0.497-0.134c0.054-0.026,0.111-0.044,0.161-0.081
		c0.148-0.114,0.29-0.216,0.431-0.324c0.021-0.018,0.047-0.035,0.068-0.054c0.243,0.038,0.486,0.062,0.73,0.091
		c0.644,0.078,1.287,0.141,1.938,0.166c0.005,0.014,0.012,0.03,0.02,0.044c0.052,0.116,0.104,0.233,0.154,0.359
		c0.16,0.414,0.234,0.797,0.234,1.153c0,0.214-0.031,0.42-0.086,0.626c-0.195,0.736-0.748,1.41-1.743,2.05
		c-0.41,0.222-0.832,0.404-1.259,0.567c-0.769,0.293-1.561,0.485-2.382,0.499c-0.068,0.002-0.142,0.002-0.214,0.002
		c-0.019,0-0.036,0-0.055,0c-0.757,0.001-1.515-0.054-2.262-0.173c-1.292-0.206-2.542-0.606-3.674-1.262
		c-0.453-0.261-0.895-0.558-1.317-0.879C59.838,46.906,58.005,44.238,58.015,41.457z M50.78,34.792
		c-0.033,0.062-0.086,0.115-0.126,0.174c-0.059,0.081-0.112,0.164-0.187,0.238c-0.056,0.059-0.13,0.107-0.193,0.16
		c-0.076,0.062-0.148,0.122-0.236,0.18c-1.706,0.005-3.411,0.013-5.116,0.019c-2.346,0.008-4.69,0.016-7.035,0.024
		c0.142-0.144,0.283-0.277,0.429-0.413c0.161-0.149,0.319-0.306,0.485-0.447c0.202-0.177,0.412-0.342,0.622-0.508
		c0.161-0.129,0.319-0.265,0.487-0.388c0.243-0.182,0.494-0.353,0.745-0.524c0.142-0.098,0.278-0.198,0.424-0.293
		c0.4-0.264,0.811-0.518,1.229-0.763c1.118-0.657,2.302-1.132,3.575-1.43c0.063-0.018,0.119-0.023,0.182-0.039
		c0.42-0.104,0.821-0.163,1.197-0.163c1.402,0.001,2.502,0.672,3.142,1.526c0.396,0.527,0.615,1.131,0.618,1.689
		c-0.003,0.172-0.023,0.337-0.063,0.499c-0.012,0.048-0.037,0.093-0.052,0.14C50.871,34.583,50.837,34.692,50.78,34.792z
		 M37.009,36.905c3.778,0.017,7.558,0.028,11.336,0.04c0.002,0.006,0.006,0.012,0.008,0.019c0.006,0.021,0.017,0.039,0.025,0.061
		c0.017,0.036,0.034,0.07,0.06,0.105c0.014,0.021,0.027,0.038,0.047,0.059c0.025,0.032,0.059,0.059,0.094,0.084
		c0.019,0.016,0.036,0.031,0.055,0.043c0.059,0.033,0.119,0.06,0.187,0.067l0,0c0,0,0,0,0.002,0
		c0.049,0.011,0.091,0.025,0.139,0.038c1.521,0.358,2.049,1.195,2.065,2.132c-0.002,1.463-1.486,3.215-3.762,3.219
		c-0.432,0-0.894-0.062-1.398-0.206c-0.92-0.215-1.802-0.529-2.648-0.939c-0.308-0.148-0.609-0.309-0.906-0.482
		c-1.651-0.972-3.158-2.053-4.486-3.396c-0.065-0.066-0.137-0.128-0.202-0.193C37.414,37.336,37.213,37.122,37.009,36.905z"/>
	<path fill="#333333" d="M157.976,43.252l3.55-23.524h7.242v33.133h-4.923V29.1l-3.598,23.761h-4.923l-3.881-23.43v23.43h-4.544
		V19.728h7.242L157.976,43.252z M177.429,41.879l-6.579-22.151h5.442l3.977,15.099l3.976-15.099h4.97l-6.58,22.151v10.98h-5.207
		v-10.98H177.429z M214.063,27.916v4.309c0,5.301-2.556,8.188-7.763,8.188h-2.461V52.86h-5.207V19.727h7.667
		C211.507,19.728,214.063,22.615,214.063,27.916z M203.839,24.461v11.218h2.461c1.657,0,2.557-0.758,2.557-3.124v-4.97
		c0-2.367-0.899-3.124-2.557-3.124H203.839z M227.6,52.861c-0.283-0.852-0.473-1.373-0.473-4.07v-5.207
		c0-3.075-1.042-4.213-3.408-4.213h-1.798v13.49h-5.207V19.728h7.856c5.396,0,7.716,2.509,7.716,7.62v2.604
		c0,3.408-1.089,5.634-3.408,6.723c2.604,1.088,3.456,3.597,3.456,7.053v5.111c0,1.608,0.047,2.793,0.568,4.022H227.6z
		 M221.92,24.461v10.177h2.035c1.939,0,3.124-0.854,3.124-3.503v-3.268c0-2.366-0.806-3.406-2.651-3.406H221.92z M235.314,27.68
		c0-5.302,2.791-8.331,7.904-8.331c5.111,0,7.904,3.029,7.904,8.331v17.229c0,5.302-2.793,8.331-7.904,8.331
		c-5.113,0-7.904-3.029-7.904-8.331V27.68z M240.521,45.241c0,2.366,1.041,3.267,2.697,3.267s2.697-0.899,2.697-3.267V27.348
		c0-2.366-1.041-3.267-2.697-3.267s-2.697,0.899-2.697,3.267V45.241z M253.064,48.127c0.566,0.048,1.23,0.048,1.799,0.048
		c1.656,0,2.98-0.615,2.98-3.172V19.728h5.207v24.896c0,6.628-3.551,8.331-7.479,8.331c-0.947,0-1.656,0-2.51-0.095v-4.732H253.064z
		 M271.809,33.691h7.146v4.733h-7.146v9.703h8.992v4.732h-14.199V19.727h14.199v4.733h-8.992V33.691z M299.119,40.507v4.4
		c0,5.303-2.65,8.331-7.764,8.331c-5.111,0-7.762-3.028-7.762-8.331V27.679c0-5.302,2.65-8.331,7.762-8.331s7.764,3.029,7.764,8.331
		v3.218h-4.924v-3.55c0-2.366-1.041-3.266-2.697-3.266s-2.697,0.898-2.697,3.266V45.24c0,2.366,1.041,3.219,2.697,3.219
		s2.697-0.853,2.697-3.219v-4.732H299.119L299.119,40.507z M300.773,19.728h16.094v4.733h-5.443V52.86h-5.205V24.461h-5.443v-4.733
		H300.773z M326.145,19.349c5.064,0,7.668,3.029,7.668,8.331v1.041h-4.924v-1.373c0-2.366-0.945-3.267-2.602-3.267
		c-1.658,0-2.605,0.899-2.605,3.267c0,6.815,10.178,8.095,10.178,17.561c0,5.302-2.65,8.331-7.764,8.331
		c-5.111,0-7.762-3.029-7.762-8.331v-2.034h4.922v2.366c0,2.366,1.041,3.219,2.697,3.219c1.658,0,2.699-0.853,2.699-3.219
		c0-6.815-10.178-8.095-10.178-17.561C318.477,22.378,321.08,19.349,326.145,19.349z"/>
</g>
</svg>
