<?xml version="1.0" encoding="utf-8"?>
<!-- Generator: Adobe Illustrator 15.0.0, SVG Export Plug-In . SVG Version: 6.00 Build 0)  -->
<!DOCTYPE svg PUBLIC "-//W3C//DTD SVG 1.1//EN" "http://www.w3.org/Graphics/SVG/1.1/DTD/svg11.dtd">
<svg version="1.1" id="Layer_1" xmlns="http://www.w3.org/2000/svg" xmlns:xlink="http://www.w3.org/1999/xlink" x="0px" y="0px"
	 width="480px" height="236px" viewBox="0 0.041 480 236" enable-background="new 0 0.041 480 236" xml:space="preserve">
<g onclick="window.open(&quot;http://wattpad.com/user/castrix-project&quot;, &quot;_blank&quot;)">
	<rect x="143" y="20.013" fill="#FFFFFF" width="194" height="195"/>
	<path fill="#333333" d="M308.078,20.013H143v165.648l28.922,29.353H337V49.504L308.078,20.013z M306,163.014
		c-35,0-70.393,0-105.479,0c-14.529,0-26.521-12.039-26.521-26.51V72.013h25.43l-0.43,0.29v59.493
		c0,6.026,5.368,11.218,11.398,11.218H227v-71h26v71h26v-11.219V72.013h27C306,102.013,306,133.014,306,163.014z"/>
	<polygon fill="#595959" points="308.078,20.333 337.25,49.504 308.078,49.504 	"/>
	<polygon opacity="0.3" enable-background="new    " points="308.078,49.504 337.25,78.676 337.25,49.504 	"/>
	<polygon fill="#595959" points="171.922,214.833 142.75,185.662 171.922,185.662 	"/>
	<polygon opacity="0.3" enable-background="new    " points="201.096,214.833 171.922,185.662 171.922,214.833 	"/>
	<path opacity="0.3" fill="#020202" enable-background="new    " d="M241.637,214.833h95.613v-4.709v-53.75v-52.657l-31.413-31.413
		v52.658v37.899h-15.851H200.52c-6.72,0-12.863-2.526-17.515-6.66L241.637,214.833z M226.82,142.764v-43.07l-27.39-27.391v59.492
		c0,6.028,4.938,10.969,10.969,10.969H226.82L226.82,142.764z M253.18,142.764h16.709h9.592v-10.969V98.66L253.18,72.303v53.749
		V142.764z"/>
</g>
</svg>
